<?xml version="1.0" encoding="UTF-8" standalone="no"?>
<!-- Created with Inkscape (http://www.inkscape.org/) -->

<svg
   xmlns:dc="http://purl.org/dc/elements/1.1/"
   xmlns:cc="http://creativecommons.org/ns#"
   xmlns:rdf="http://www.w3.org/1999/02/22-rdf-syntax-ns#"
   xmlns:svg="http://www.w3.org/2000/svg"
   xmlns="http://www.w3.org/2000/svg"
   xmlns:xlink="http://www.w3.org/1999/xlink"
   xmlns:sodipodi="http://sodipodi.sourceforge.net/DTD/sodipodi-0.dtd"
   xmlns:inkscape="http://www.inkscape.org/namespaces/inkscape"
   width="218.35498mm"
   height="165.26218mm"
   viewBox="0 0 218.35498 165.26218"
   version="1.1"
   id="svg8"
   inkscape:version="0.92.2 5c3e80d, 2017-08-06"
   sodipodi:docname="logo_bps.svg">
  <defs
     id="defs2">
    <inkscape:path-effect
       effect="spiro"
       id="path-effect6201"
       is_visible="true" />
    <inkscape:path-effect
       effect="spiro"
       id="path-effect5445"
       is_visible="true" />
    <inkscape:path-effect
       effect="spiro"
       id="path-effect5441"
       is_visible="true" />
    <inkscape:path-effect
       effect="spiro"
       id="path-effect5385"
       is_visible="true" />
    <inkscape:path-effect
       effect="spiro"
       id="path-effect5381"
       is_visible="true" />
    <inkscape:path-effect
       effect="bspline"
       id="path-effect5377"
       is_visible="true"
       weight="33.333333"
       steps="2"
       helper_size="0"
       apply_no_weight="true"
       apply_with_weight="true"
       only_selected="false" />
  </defs>
  <sodipodi:namedview
     id="base"
     pagecolor="#ffffff"
     bordercolor="#666666"
     borderopacity="1.0"
     inkscape:pageopacity="0.0"
     inkscape:pageshadow="2"
     inkscape:zoom="0.98994949"
     inkscape:cx="279.8461"
     inkscape:cy="272.00422"
     inkscape:document-units="mm"
     inkscape:current-layer="layer1"
     showgrid="false"
     inkscape:window-width="1920"
     inkscape:window-height="1054"
     inkscape:window-x="0"
     inkscape:window-y="0"
     inkscape:window-maximized="1"
     inkscape:pagecheckerboard="true"
     borderlayer="false"
     showguides="false"
     inkscape:snap-global="false"
     fit-margin-left="2.5"
     fit-margin-top="5"
     fit-margin-right="2.5"
     fit-margin-bottom="5" />
  <metadata
     id="metadata5">
    <rdf:RDF>
      <cc:Work
         rdf:about="">
        <dc:format>image/svg+xml</dc:format>
        <dc:type
           rdf:resource="http://purl.org/dc/dcmitype/StillImage" />
        <dc:title></dc:title>
      </cc:Work>
    </rdf:RDF>
  </metadata>
  <g
     inkscape:label="Layer 1"
     inkscape:groupmode="layer"
     id="layer1"
     transform="translate(-15.175031,-127.35597)">
    <path
       style="fill:none;fill-opacity:1;stroke:none;stroke-width:0.26533511px;stroke-linecap:butt;stroke-linejoin:miter;stroke-opacity:1"
       d="m 41.552498,254.8517 c 20.42088,19.18241 47.990418,30.57105 75.995802,31.39296 30.2727,0.88845 60.72554,-10.65755 82.79969,-31.39296"
       id="path6199"
       inkscape:connector-curvature="0"
       inkscape:path-effect="#path-effect6201"
       inkscape:original-d="m 41.552498,254.8517 c 25.332194,10.46404 50.664124,20.92836 75.995802,31.39296 25.33167,10.46458 55.20007,-20.92892 82.79969,-31.39296" />
    <path
       style="fill:none;stroke:#000000;stroke-width:0.23979165px;stroke-linecap:butt;stroke-linejoin:miter;stroke-opacity:1"
       inkscape:path-effect="#path-effect5445"
       inkscape:original-d="m 79.667004,164.80829 c 11.790551,-9.14354 33.404376,-8.42249 47.834686,-15.69876 14.43038,-7.27645 26.56011,8.67322 42.11139,16.07578"
       d="m 79.667004,164.80829 c 13.361829,-10.75206 30.700146,-16.44229 47.834686,-15.69876 15.27246,0.66272 30.2824,6.39268 42.11139,16.07578"
       id="path5443"
       inkscape:connector-curvature="0" />
    <g
       id="g3876"
       transform="translate(10.885709,-64.558327)" />
    <g
       id="g4100"
       transform="matrix(0.86186364,0,0,0.85011393,-61.363372,-25.051598)"
       style="fill:#e2c044;fill-opacity:1">
      <g
         id="g4058"
         style="fill:#e2c044;fill-opacity:1" />
      <g
         id="g4072"
         style="fill:#e2c044;fill-opacity:1">
        <path
           id="path4062"
           d="m 324.29457,321.4376 c 0.83385,-1.24251 1.72901,-2.34304 2.62602,-3.37181 0.335,-0.4396 0.72768,-0.88073 1.06267,-1.32033 3.63654,-4.47537 7.1816,-8.01495 10.86404,-10.69656 0.0577,-0.002 0.0559,-0.0732 0.1135,-0.0747 0.0558,-0.0732 0.11351,-0.0747 0.16934,-0.14805 -0.46319,-0.0595 -0.92272,0.0243 -1.38224,0.10808 -0.28651,0.0793 -0.57486,0.0868 -0.92088,0.0959 -2.82215,0.21782 -5.75782,0.51044 -8.97815,0.95414 -3.85286,0.53214 -7.57203,1.77875 -11.10348,3.59481 -4.44133,2.34258 -8.33609,5.74776 -11.90944,10.43686 l 0.29754,0.35117 c 0.35519,0.34965 0.65272,0.7008 0.94841,0.98022 1.83552,1.81849 3.39185,4.0033 4.94453,6.04462 0.47788,0.63361 0.95761,1.33899 1.43549,1.97259 1.25329,1.6184 1.41821,3.55263 0.55058,5.72941 -0.37981,0.94337 -0.82097,1.74476 -1.3198,2.54765 -0.22149,0.36483 -0.50067,0.73117 -0.778,1.16926 -0.49884,0.80289 -1.05534,1.60732 -1.55416,2.41022 -0.38716,0.65638 -0.77433,1.31275 -0.86763,2.17678 -0.097,0.72053 0.0239,0.93276 0.54841,1.13435 0.40919,0.20463 0.81471,0.26577 1.1589,0.18491 0.97488,-0.24104 1.71541,-0.61951 2.33692,-1.13844 0.79085,-0.66699 1.41053,-1.25769 1.97255,-1.84685 0.616,-0.73419 1.23384,-1.39663 1.84986,-2.13083 0.72949,-0.80896 1.45717,-1.68969 2.18669,-2.49866 5.4434,-6.03067 11.92596,-9.79111 19.22065,-11.13177 0.11534,-0.003 0.28835,-0.008 0.40185,-0.0824 0.40369,-0.0106 0.74787,-0.0914 1.08839,-0.31581 -0.2362,-0.20919 -0.47055,-0.34663 -0.76257,-0.48254 -0.0594,-0.0702 -0.17484,-0.0671 -0.23435,-0.13743 -3.45394,-1.91951 -7.11285,-2.82844 -10.80372,-2.73135 -0.80738,0.0212 -1.73009,0.0455 -2.71233,-3.8e-4 -0.51902,0.0136 -0.87238,-0.26425 -1.05641,-0.69019 -0.18586,-0.4977 0.0951,-0.79229 0.2608,-1.08384 0.29019,0.0641 0.34786,0.0626 0.34602,-0.009 z"
           class="st21"
           inkscape:connector-curvature="0"
           style="fill:#e2c044;fill-opacity:1;stroke-width:0.64347595" />
        <path
           id="path4064"
           d="m 306.7,339.8 c 1.6,-1.8 2.8,-3.3 3.8,-5.1 0.8,-1.5 0.7,-2.9 -0.3,-4.2 -3.2,3.9 -7.3,6.8 -11.2,9.7 -1.2,0.9 -2.5,1.8 -3.7,2.8 l 0.6,0.6 c 0.6,0.6 1.3,1.2 1.9,1.8 0.3,0.3 0.6,0.6 1,1 0.5,0.5 1,1 1.5,1.5 0.7,0.7 1.4,1.3 2.3,1.7 -0.3,-2 0.1,-3.8 1.3,-5.7 0.7,-1.6 1.7,-2.9 2.8,-4.1 z"
           class="st21"
           inkscape:connector-curvature="0"
           style="fill:#e2c044;fill-opacity:1" />
        <path
           id="path4066"
           d="m 121.9,330.6 c -1,1.3 -1.1,2.7 -0.3,4.2 0.9,1.8 2.2,3.3 3.8,5.1 1,1.2 2.1,2.4 3,3.9 1.2,1.9 1.6,3.7 1.3,5.7 0.8,-0.4 1.5,-1 2.3,-1.7 0.5,-0.5 1,-1 1.5,-1.5 0.3,-0.3 0.6,-0.6 1,-1 0.6,-0.6 1.2,-1.2 1.9,-1.8 l 0.6,-0.6 c -1.2,-0.9 -2.5,-1.9 -3.7,-2.8 -4.2,-2.7 -8.2,-5.7 -11.4,-9.5 z"
           class="st21"
           inkscape:connector-curvature="0"
           style="fill:#e2c044;fill-opacity:1" />
        <path
           id="path4068"
           d="m 123.64908,343.11983 c -0.54243,-0.82853 -1.14513,-1.65706 -1.68754,-2.48559 -0.30135,-0.37661 -0.54242,-0.75321 -0.78351,-1.12981 -0.54241,-0.82853 -1.02457,-1.65706 -1.44645,-2.63624 -0.96431,-2.18431 -0.84378,-4.21797 0.42188,-6.02568 0.48216,-0.67788 0.9643,-1.35578 1.44646,-2.10899 1.567,-2.25962 3.134,-4.51925 5.00235,-6.4776 0.30134,-0.3766 0.66296,-0.67789 0.9643,-1.05449 l 0.36162,-0.37661 c -3.85723,-4.82054 -8.01581,-8.2853 -12.71681,-10.62026 -3.73669,-1.8077 -7.65419,-3.01284 -11.69223,-3.46476 -3.37507,-0.37661 -6.448799,-0.67789 -9.40199,-0.75321 -0.301348,0 -0.662963,-0.0754 -0.964308,-0.0754 -0.482154,-0.0753 -0.964307,-0.15064 -1.446462,-0.0753 0.06027,0.0753 0.120539,0.0753 0.180808,0.15065 0.06027,0 0.06027,0.0753 0.120538,0.0753 3.917499,2.71155 7.714459,6.25163 11.631964,10.92154 0.3616,0.45192 0.7835,0.90385 1.14511,1.35577 0.96431,1.12982 1.98888,2.25964 2.83265,3.46477 0.0603,0.0754 0.0603,0.0754 0.12054,0.15065 0.18081,0.22595 0.48216,0.60256 0.30135,1.1298 -0.12054,0.45193 -0.48216,0.75322 -1.08485,0.75322 -1.02457,0.0753 -1.98888,0.0753 -2.83265,0.0753 -3.85723,0 -7.654192,1.0545 -11.210075,3.16349 -0.06027,0.0754 -0.120539,0.0754 -0.241077,0.15064 -0.301346,0.15064 -0.542424,0.30128 -0.7835,0.52724 0.361616,0.22597 0.723231,0.22597 1.145115,0.30129 0.180808,0 0.301347,0 0.421884,0.0753 7.714463,1.20514 14.585153,4.97119 20.371003,11.14751 0.78349,0.82853 1.56699,1.73238 2.3505,2.56091 0.66295,0.75322 1.32592,1.4311 1.98888,2.18431 0.60269,0.60257 1.26565,1.28046 2.10942,1.88302 0.66296,0.52726 1.44647,0.82853 2.47104,1.12982 0.36161,0.0753 0.7835,0 1.20538,-0.22596 v 0 c 0.54242,-0.30128 0.60269,-0.45193 0.54242,-1.20513 0,-1.12982 -0.36161,-1.88303 -0.84376,-2.4856 z"
           class="st21"
           inkscape:connector-curvature="0"
           style="fill:#e2c044;fill-opacity:1;stroke-width:0.67376083" />
        <path
           id="path4070"
           d="m 304,333.22247 c 1.2,-0.9 2.4,-1.8 3.5,-2.7 0.3,-0.3 0.7,-0.6 0.7,-0.8 0,-0.2 -0.3,-0.6 -0.6,-0.9 -2.9,-3.3 -6.5,-6.6 -11.1,-10.4 -2,-1.7 -4.5,-3.6 -7.3,-5.2 -3,-1.7 -5.9,-1.8 -9.1,-0.2 -1.9,0.9 -3.7,2 -5.5,3 -0.5,0.3 -1.1,0.6 -1.6,0.9 -31.8,18 -45.3,21.4 -57.9,21.3 -16,-0.1 -31.5,-7.3 -56.3,-21.3 -0.5,-0.3 -1.1,-0.6 -1.6,-0.9 -1.8,-1 -3.6,-2.1 -5.5,-3 -1.5,-0.8 -3,-1.1 -4.4,-1.1 -1.6,0 -3.1,0.4 -4.7,1.3 -2.8,1.6 -5.2,3.5 -7.3,5.2 -4.6,3.8 -8.1,7.2 -11.1,10.4 -0.3,0.3 -0.6,0.7 -0.6,0.9 0,0.2 0.4,0.5 0.7,0.8 1.1,0.9 2.3,1.8 3.5,2.7 0.7,0.5 1.4,1.1 2.1,1.6 8.9,6.9 18.4,13 28.2,18.2 37.7,19.7 77.6,19.7 115.3,0 9.8,-5.1 19.3,-11.2 28.2,-18.2 1,-0.5 1.7,-1.1 2.4,-1.6 z"
           class="st21"
           inkscape:connector-curvature="0"
           style="fill:#e2c044;fill-opacity:1" />
      </g>
    </g>
    <g
       style="fill:#ffffff"
       id="g4917"
       transform="matrix(0.08703812,0,0,-0.13801139,-136.09402,607.02835)">
      <path
         sodipodi:nodetypes="cacacacsc"
         d="m 2356.58,3282.74 c 115.0433,-51.4838 153.2897,-182.9515 156.24,-282.74 3.2738,-110.7296 -61.3746,-257.8983 -154.7046,-317.5983 271.9057,-89.6531 398.1933,-162.0241 623.1434,-163.4375 234.9183,-1.476 410.038,78.13 656.0198,162.4691 -93.33,59.7 -148.7893,207.792 -150.0986,318.5667 -1.1458,96.9458 -12.6365,162.4072 124.7558,280.0013 -196.971,113.3742 -388.0616,157.995 -622.5393,159.3417 -222.5353,1.278 -424.181,-40.9685 -632.8165,-156.603 z"
         style="fill:#ffffff;fill-opacity:1;fill-rule:nonzero;stroke:none"
         id="path4987"
         inkscape:connector-curvature="0" />
    </g>
    <g
       transform="matrix(0.04204963,0,0,-0.03768225,-14.825594,323.24946)"
       inkscape:label="ink_ext_XXXXXX"
       id="g5465">
      <g
         transform="scale(0.1)"
         id="g5467">
        <g
           transform="scale(2.43466)"
           id="g5469" />
        <g
           transform="scale(2.31687)"
           id="g5473">
          <path
             inkscape:connector-curvature="0"
             id="path5475"
             style="fill:#feecd2;fill-opacity:1;fill-rule:nonzero;stroke:none"
             d="m 12909.8,13584.5 c 534.1,0 1059.8,-188.2 1261,-269.1 4.2,-1.6 8.5,-2.4 12.8,-2.4 6.8,0 13.5,2 19.2,5.9 9.5,6.3 15.1,17 15.1,28.4 v 2506.5 c 0,10.1 -4.4,19.8 -12.2,26.3 -158.1,132.8 -341.2,236.9 -544.3,309.3 -206,73.4 -422.5,110.6 -643.7,110.6 -341.2,0 -615.1,-79.4 -717,-113.6 -14,-4.7 -23.4,-17.8 -23.4,-32.5 v -2638.7 c 0,-11.4 5.7,-22 15.1,-28.4 5.8,-3.9 12.5,-5.9 19.2,-5.9 4.3,0 8.7,0.8 12.8,2.5 166.7,67.1 363.7,101.1 585.4,101.1" />
        </g>
        <g
           transform="scale(2.31687)"
           id="g5477">
          <path
             inkscape:connector-curvature="0"
             id="path5479"
             style="fill:#feecd2;fill-opacity:1;fill-rule:nonzero;stroke:none"
             d="m 15467.6,16300 c -221.1,0 -437.7,-37.2 -643.6,-110.6 -203.1,-72.4 -386.2,-176.5 -544.3,-309.3 -7.8,-6.5 -12.3,-16.1 -12.3,-26.3 v -2506.5 c 0,-11.4 5.7,-22.1 15.1,-28.4 5.8,-3.9 12.5,-5.9 19.2,-5.9 4.3,0 8.7,0.8 12.8,2.4 201.3,80.9 727,269.1 1261.1,269.1 221.6,0 418.6,-34 585.4,-101.1 4.1,-1.7 8.5,-2.5 12.8,-2.5 6.7,0 13.4,2 19.2,5.9 9.4,6.4 15.1,17 15.1,28.4 v 2638.7 c 0,14.7 -9.5,27.8 -23.4,32.5 -102,34.2 -375.9,113.6 -717.1,113.6" />
        </g>
        <g
           transform="scale(2.31687)"
           id="g5481">
          <path
             inkscape:connector-curvature="0"
             id="path5483"
             style="fill:#ffffff;fill-opacity:1;fill-rule:nonzero;stroke:none"
             d="m 12909.8,13584.5 c 534.1,0 1059.8,-188.2 1261,-269.1 4.2,-1.6 8.5,-2.4 12.8,-2.4 6.8,0 13.5,2 19.2,5.9 9.5,6.3 15.1,17 15.1,28.4 v 2506.5 c 0,10.1 -4.4,19.8 -12.2,26.3 -158.1,132.8 -341.2,236.9 -544.3,309.3 -206,73.4 -422.5,110.6 -643.7,110.6 -341.2,0 -615.1,-79.4 -717,-113.6 -14,-4.7 -23.4,-17.8 -23.4,-32.5 v -2638.7 c 0,-11.4 5.7,-22 15.1,-28.4 5.8,-3.9 12.5,-5.9 19.2,-5.9 4.3,0 8.7,0.8 12.8,2.5 166.7,67.1 363.7,101.1 585.4,101.1" />
        </g>
        <g
           transform="scale(2.31687)"
           id="g5485">
          <path
             inkscape:connector-curvature="0"
             id="path5487"
             style="fill:#ffffff;fill-opacity:1;fill-rule:nonzero;stroke:none"
             d="m 15467.6,16300 c -221.1,0 -437.7,-37.2 -643.6,-110.6 -203.1,-72.4 -386.2,-176.5 -544.3,-309.3 -7.8,-6.5 -12.3,-16.1 -12.3,-26.3 v -2506.5 c 0,-11.4 5.7,-22.1 15.1,-28.4 5.8,-3.9 12.5,-5.9 19.2,-5.9 4.3,0 8.7,0.8 12.8,2.4 201.3,80.9 727,269.1 1261.1,269.1 221.6,0 418.6,-34 585.4,-101.1 4.1,-1.7 8.5,-2.5 12.8,-2.5 6.7,0 13.4,2 19.2,5.9 9.4,6.4 15.1,17 15.1,28.4 v 2638.7 c 0,14.7 -9.5,27.8 -23.4,32.5 -102,34.2 -375.9,113.6 -717.1,113.6" />
        </g>
        <g
           transform="scale(2.31669)"
           id="g5489" />
        <g
           transform="scale(2.02093)"
           id="g5493" />
        <g
           transform="scale(2.30381)"
           id="g5497" />
        <g
           transform="scale(2.02093)"
           id="g5501" />
        <g
           transform="scale(2.30381)"
           id="g5505" />
        <g
           transform="scale(2.31669)"
           id="g5509" />
        <g
           transform="scale(2.02093)"
           id="g5513" />
        <g
           transform="scale(2.30381)"
           id="g5517" />
        <g
           transform="scale(2.02093)"
           id="g5521" />
        <g
           transform="scale(2.30381)"
           id="g5525" />
        <g
           transform="scale(2.31669)"
           id="g5529" />
        <g
           transform="scale(2.02093)"
           id="g5533" />
        <g
           transform="scale(2.30381)"
           id="g5537" />
        <g
           transform="scale(2.02093)"
           id="g5541" />
        <g
           transform="scale(2.30381)"
           id="g5545" />
        <g
           transform="scale(2.02093)"
           id="g5549" />
        <g
           transform="scale(2.30381)"
           id="g5553" />
        <g
           transform="scale(1.56161)"
           id="g5557" />
        <g
           transform="scale(1.54095)"
           id="g5561" />
        <g
           transform="scale(1.42967)"
           id="g5565" />
        <g
           transform="scale(1.40902)"
           id="g5569" />
        <g
           transform="scale(2.33017)"
           id="g5573" />
        <g
           transform="scale(2.36395)"
           id="g5577" />
        <g
           transform="scale(2.25016)"
           id="g5581">
          <path
             inkscape:connector-curvature="0"
             id="path5583"
             style="fill:#302d2e;fill-opacity:1;fill-rule:nonzero;stroke:none"
             d="m 14276.7,16062.3 c -2.1,0 -4.1,0.5 -6.1,1.4 -125.2,59.5 -460.8,197.6 -873,197.6 -133.7,0 -265,-14.8 -390.2,-44 -0.8,-0.2 -2,-0.4 -3.1,-0.4 -6.4,0 -12.1,4.4 -13.9,10.7 0,0 -2,8.2 -2,8.5 -1.4,5.2 0.5,9.3 1.7,11.4 1.2,1.9 3.9,5.4 9.1,6.6 130,30.5 265.9,45.9 403.8,45.9 421.3,0 758.8,-141.4 884.3,-202.2 5,-2.5 6.9,-6.5 7.7,-8.7 0.6,-2.2 1.4,-6.4 -1.2,-11.1 l -4.5,-7.9 c -2.7,-5 -7.4,-7.8 -12.6,-7.8" />
        </g>
        <g
           transform="scale(2.20785)"
           id="g5585">
          <path
             inkscape:connector-curvature="0"
             id="path5587"
             style="fill:#302d2e;fill-opacity:1;fill-rule:nonzero;stroke:none"
             d="m 14550.3,16057.8 c -2.2,0 -4.2,0.4 -6.2,1.4 -126.7,60.6 -466.8,201.4 -889.2,201.4 -136.5,0 -270.5,-15.1 -398.2,-44.9 -0.9,-0.2 -2,-0.4 -3.1,-0.4 -0.1,0 -0.1,0 -0.1,0 -6.5,0 -12.3,4.5 -14.2,10.9 0,0 -1.9,8.3 -2,8.5 -1.4,5.6 0.4,9.8 1.7,11.9 1.4,2.4 4.2,5.5 9.3,6.7 132.5,31 270.9,46.7 411.4,46.7 429.4,0 773.4,-144.1 901.4,-206.1 5,-2.5 7.1,-6.9 7.8,-9.3 0.8,-2.7 1.3,-6.7 -1,-11 l -4.2,-7 c -0.3,-0.5 -0.5,-0.9 -0.8,-1.3 -2.5,-4.7 -7.3,-7.5 -12.6,-7.5" />
        </g>
        <g
           transform="scale(2.16822)"
           id="g5589">
          <path
             inkscape:connector-curvature="0"
             id="path5591"
             style="fill:#302d2e;fill-opacity:1;fill-rule:nonzero;stroke:none"
             d="m 14816.2,16052.8 c -2.2,0 -4.3,0.5 -6.3,1.5 -130,61.7 -478.2,205 -906,205 -138.8,0 -275,-15.4 -404.9,-45.7 -0.9,-0.2 -2.1,-0.3 -3.2,-0.3 -6.7,0 -12.6,4.5 -14.5,11 0,0 -2.1,8.6 -2.1,8.9 -1.4,5.3 0.5,9.7 1.7,11.8 1.3,2.2 4.3,6 9.9,7.5 134.8,31.5 275.7,47.5 418.6,47.5 437.2,0 787.5,-146.8 917.8,-209.9 5.1,-2.5 7.2,-7 7.9,-9.5 0.9,-2.7 1.4,-6.9 -1.2,-11.5 l -4.6,-8.2 c -2.8,-5.2 -7.7,-8.1 -13.1,-8.1" />
        </g>
        <g
           transform="scale(2.12461)"
           id="g5593">
          <path
             inkscape:connector-curvature="0"
             id="path5595"
             style="fill:#302d2e;fill-opacity:1;fill-rule:nonzero;stroke:none"
             d="m 15120.8,16048.3 c -2.2,0 -4.3,0.5 -6.4,1.5 -132.1,62.9 -486.6,209.2 -924.6,209.2 -141.8,0 -281,-15.7 -413.7,-46.6 -1,-0.2 -2.1,-0.4 -3.3,-0.4 -6.8,0 -12.8,4.6 -14.8,11.3 l -1.9,8.2 c -1.3,5 -0.7,9.3 1.5,13 1.5,2.5 4.5,5.7 9.7,6.9 137.8,32.2 281.9,48.6 428,48.6 447.7,0 804.2,-149.8 936.7,-214.2 5.3,-2.6 7.4,-7.2 8.2,-9.7 0.8,-2.7 1.3,-6.9 -1,-11.4 l -4.4,-7.3 c -0.3,-0.4 -0.5,-0.9 -0.8,-1.4 -2.6,-4.8 -7.6,-7.7 -13.2,-7.7 v 0" />
        </g>
        <g
           transform="scale(2.0843)"
           id="g5597">
          <path
             inkscape:connector-curvature="0"
             id="path5599"
             style="fill:#302d2e;fill-opacity:1;fill-rule:nonzero;stroke:none"
             d="m 15413.3,16043.4 c -2.2,0 -4.4,0.5 -6.6,1.5 -134.6,64.2 -495.9,213.3 -942.4,213.3 -144.5,0 -286.5,-16 -421.8,-47.5 -0.9,-0.2 -2.1,-0.4 -3.3,-0.4 -6.9,0 -13.1,4.7 -15.1,11.5 0,0 -2.1,8.9 -2.1,9.2 -1.5,5.6 0.5,10 1.7,12.1 1.7,2.7 4.7,6.1 10.3,7.4 140.5,32.8 287.2,49.5 436,49.5 454.9,0 819.2,-152.7 954.7,-218.3 5.5,-2.7 7.6,-7 8.3,-9.4 0.8,-2.3 1.6,-6.9 -1.2,-11.9 l -4.9,-8.6 c -2.8,-5.3 -8,-8.4 -13.6,-8.4 v 0" />
        </g>
        <g
           transform="scale(2.04288)"
           id="g5601">
          <path
             inkscape:connector-curvature="0"
             id="path5603"
             style="fill:#302d2e;fill-opacity:1;fill-rule:nonzero;stroke:none"
             d="m 15725.2,16038.2 c -2.3,0 -4.5,0.5 -6.7,1.6 -137.9,65.4 -507.4,217.5 -961.6,217.5 -147.3,0 -291.8,-16.3 -429.7,-48.4 -0.9,-0.3 -2.2,-0.4 -3.4,-0.4 -7.1,0 -13.3,4.8 -15.4,11.7 0,0 -2.1,9.1 -2.2,9.4 -1.5,5.7 0.5,10.3 1.9,12.5 1.3,2.2 4.3,6.1 10,7.4 143.2,33.5 292.9,50.5 444.7,50.5 464.1,0 835.8,-155.8 974.1,-222.8 5.5,-2.7 7.7,-7.5 8.4,-10 0.9,-2.9 1.4,-7.2 -1,-11.9 l -4.6,-7.6 c -0.3,-0.5 -0.5,-0.9 -0.8,-1.4 -2.7,-5 -7.9,-8.1 -13.7,-8.1 v 0" />
        </g>
        <g
           transform="scale(2.00133)"
           id="g5605">
          <path
             inkscape:connector-curvature="0"
             id="path5607"
             style="fill:#302d2e;fill-opacity:1;fill-rule:nonzero;stroke:none"
             d="m 16051.7,16032.8 c -2.3,0 -4.6,0.5 -6.8,1.6 -140.8,66.8 -518,222.1 -981.5,222.1 -150.4,0 -298,-16.7 -438.7,-49.5 -1,-0.3 -2.3,-0.4 -3.5,-0.4 -7.3,0 -13.9,5.1 -15.8,12.4 l -2.1,8.3 c -1.7,6.5 0.5,11.5 1.9,13.9 1.4,2.2 4.4,6 9.8,7.3 146,34.2 298.8,51.5 453.7,51.5 473.8,0 853.2,-159 994.4,-227.4 5.6,-2.8 7.8,-7.6 8.6,-10.3 0.9,-2.9 1.4,-7.5 -1.3,-12.4 -0.1,-0.3 -4.9,-9.2 -4.9,-9.2 -2.6,-4.8 -7.9,-7.9 -13.8,-7.9 v 0" />
        </g>
        <g
           transform="scale(2.25608)"
           id="g5609">
          <path
             inkscape:connector-curvature="0"
             id="path5611"
             style="fill:#302d2e;fill-opacity:1;fill-rule:nonzero;stroke:none"
             d="m 15013.7,16020.1 c -5.1,0 -9.9,2.9 -12.3,7.4 l -4.7,8.3 c -2.6,4.6 -1.8,8.9 -1.2,11 0.7,2.2 2.6,6.3 7.6,8.7 125.3,60.7 461.8,201.7 882.1,201.7 137.5,0 273,-15.4 402.7,-45.7 5.1,-1.2 7.9,-4.7 9.1,-6.7 1.2,-2 3,-6.2 1.7,-11.4 -0.1,-0.2 -2,-8.4 -2,-8.4 -1.9,-6.3 -7.6,-10.6 -13.9,-10.6 v 0 c -1.1,0 -2.3,0.1 -3.4,0.3 -124.6,29.1 -255.5,43.9 -388.9,43.9 -411.1,0 -745.8,-137.8 -870.6,-197 -2,-1 -4.1,-1.5 -6.2,-1.5" />
        </g>
        <g
           transform="scale(2.25609)"
           id="g5613">
          <path
             inkscape:connector-curvature="0"
             id="path5615"
             style="fill:#302d2e;fill-opacity:1;fill-rule:nonzero;stroke:none"
             d="m 15013.7,15714.4 c -5.2,0 -9.9,2.8 -12.4,7.4 -0.2,0.4 -0.5,0.8 -0.7,1.2 l -4.1,6.9 c -2.3,4.3 -1.8,8.2 -1,10.8 0.7,2.3 2.7,6.6 8,9.3 124.8,60.4 461.5,201.5 881.7,201.5 137.5,0 273,-15.4 402.7,-45.8 4.9,-1.1 7.7,-4.2 9.1,-6.5 1.2,-2 3,-6.1 1.6,-11.6 l -2,-8.3 c -1.8,-6.3 -7.5,-10.7 -13.9,-10.7 -1.1,0 -2.2,0.2 -3.4,0.4 -124.7,29.1 -255.8,43.9 -389.3,43.9 -413.4,0 -746.2,-137.8 -870.2,-197 -2,-1 -4,-1.5 -6.1,-1.5" />
        </g>
        <g
           transform="scale(2.25608)"
           id="g5617">
          <path
             inkscape:connector-curvature="0"
             id="path5619"
             style="fill:#302d2e;fill-opacity:1;fill-rule:nonzero;stroke:none"
             d="m 15013.7,15427.7 c -5.1,0 -9.9,2.8 -12.3,7.3 l -4.7,8.4 c -2.5,4.3 -2,8.4 -1.2,11 0.7,2.4 2.7,6.7 8.1,9.4 124.8,60.4 461.4,201.5 881.6,201.5 137.4,0 272.7,-15.4 402.3,-45.7 5.4,-1.4 8.2,-5.1 9.5,-7.2 1.2,-2 3,-6.2 1.7,-11.4 -0.1,-0.3 -2,-8.5 -2,-8.5 -1.9,-6.3 -7.6,-10.6 -13.9,-10.6 -1.2,0 -2.3,0.1 -3.4,0.4 -124.6,29 -255.5,43.8 -388.9,43.8 -411.1,0 -745.8,-137.7 -870.6,-196.9 -2,-1 -4.1,-1.5 -6.2,-1.5 v 0" />
        </g>
        <g
           transform="scale(2.25603)"
           id="g5621">
          <path
             inkscape:connector-curvature="0"
             id="path5623"
             style="fill:#302d2e;fill-opacity:1;fill-rule:nonzero;stroke:none"
             d="m 15013.6,15113.4 c -5.2,0 -9.9,2.8 -12.4,7.3 -0.3,0.5 -0.5,0.9 -0.7,1.3 l -4.2,6.9 c -2.2,4.2 -1.8,8.2 -1,10.7 0.8,2.4 2.8,6.7 8.1,9.3 124.4,60.5 460.2,201.6 881.8,201.6 137.6,0 273.2,-15.4 403.1,-45.8 4.9,-1.1 7.7,-4.2 9.1,-6.5 2.1,-3.5 2.6,-7.6 1.6,-11.7 l -2,-8.3 c -1.8,-6.2 -7.5,-10.6 -13.9,-10.6 -1.1,0 -2.2,0.2 -3.3,0.4 -124.8,29.1 -255.9,43.9 -389.5,43.9 -412.4,0 -746.2,-137.8 -870.6,-197.1 -2,-0.9 -4,-1.4 -6.1,-1.4 v 0" />
        </g>
        <g
           transform="scale(2.25608)"
           id="g5625">
          <path
             inkscape:connector-curvature="0"
             id="path5627"
             style="fill:#302d2e;fill-opacity:1;fill-rule:nonzero;stroke:none"
             d="m 15013.3,14821.8 c -5.2,0 -10,2.8 -12.5,7.4 l -4.6,8.3 c -2.6,4.6 -1.9,8.9 -1.2,11 0.7,2.2 2.6,6.3 7.6,8.6 125.3,60.7 461.9,201.8 882.1,201.8 137.5,0 273,-15.4 402.8,-45.8 5.2,-1.2 8,-4.3 9.5,-6.8 1.2,-1.9 3,-6 1.7,-11.2 -0.1,-0.2 -2,-8.5 -2,-8.5 -1.9,-6.2 -7.6,-10.6 -13.9,-10.6 -1.2,0 -2.3,0.2 -3.4,0.4 -124.7,29.1 -255.9,43.9 -389.4,43.9 -412.5,0 -746.3,-137.8 -870.6,-197 -2,-1 -4.1,-1.5 -6.1,-1.5 v 0" />
        </g>
        <g
           transform="scale(2.25608)"
           id="g5629">
          <path
             inkscape:connector-curvature="0"
             id="path5631"
             style="fill:#302d2e;fill-opacity:1;fill-rule:nonzero;stroke:none"
             d="m 15013.7,14522.6 c -5.1,0 -9.9,2.8 -12.3,7.3 -0.3,0.5 -0.5,0.9 -0.8,1.3 l -4.1,6.9 c -2.2,4.2 -1.8,8.2 -1,10.7 0.7,2.4 2.7,6.7 8.1,9.4 124.8,60.4 461.4,201.5 881.6,201.5 137.5,0 273,-15.4 402.7,-45.8 5.1,-1.2 7.9,-4.7 9.1,-6.6 1.2,-2 3,-6.2 1.7,-11.4 -0.1,-0.2 -2,-8.5 -2,-8.5 -1.9,-6.2 -7.6,-10.6 -13.9,-10.6 -1.2,0 -2.3,0.1 -3.4,0.4 -124.6,29.1 -255.5,43.8 -388.9,43.8 -411.2,0 -745.8,-137.7 -870.6,-196.9 -2,-1 -4.1,-1.5 -6.2,-1.5 v 0" />
        </g>
        <g
           transform="scale(2.25609)"
           id="g5633">
          <path
             inkscape:connector-curvature="0"
             id="path5635"
             style="fill:#302d2e;fill-opacity:1;fill-rule:nonzero;stroke:none"
             d="m 15013.7,14222.3 c -5.2,0 -10,2.8 -12.4,7.4 0,0 -4.1,7.6 -4.2,7.8 -2.5,4.4 -2,8.4 -1.2,11.1 0.7,2.3 2.7,6.6 8.1,9.3 124.8,60.4 461.5,201.5 881.7,201.5 137.4,0 272.9,-15.4 402.7,-45.8 4.6,-1.1 7.2,-4.5 8.4,-6.4 1.2,-2.1 3.2,-6.5 1.7,-12.2 l -2,-8.1 c -1.6,-5.9 -7.3,-10.4 -13.8,-10.4 -1.1,0 -2.3,0.2 -3.4,0.4 -124.6,29.1 -255.5,43.8 -388.9,43.8 -411.1,0 -745.8,-137.7 -870.6,-196.9 -2,-1 -4.1,-1.5 -6.1,-1.5" />
        </g>
        <g
           transform="scale(2.34373)"
           id="g5637" />
        <g
           transform="scale(1.97363)"
           id="g5641" />
        <g
           transform="scale(1.97354)"
           id="g5645" />
        <g
           transform="scale(1.97347)"
           id="g5649" />
        <g
           transform="scale(2.25608)"
           id="g5653" />
        <g
           transform="scale(2.25609)"
           id="g5657" />
        <g
           transform="scale(2.25608)"
           id="g5661" />
        <g
           transform="scale(2.25603)"
           id="g5665" />
        <g
           transform="scale(2.25608)"
           id="g5669" />
        <g
           transform="scale(2.25608)"
           id="g5673" />
        <g
           transform="scale(2.25609)"
           id="g5677" />
        <g
           transform="scale(2.34373)"
           id="g5681" />
        <g
           transform="scale(1.88663)"
           id="g5685" />
        <g
           transform="scale(1.97355)"
           id="g5689" />
        <g
           transform="scale(1.97354)"
           id="g5693" />
        <g
           transform="scale(1.97356)"
           id="g5697" />
        <g
           transform="scale(1.97361)"
           id="g5701" />
        <g
           transform="scale(1.57401)"
           id="g5705" />
        <g
           transform="scale(1.65072)"
           id="g5709" />
        <g
           transform="scale(1.6534)"
           id="g5713" />
        <g
           transform="scale(1.65983)"
           id="g5717" />
        <g
           transform="scale(1.29774)"
           id="g5721" />
        <g
           transform="scale(1.27709)"
           id="g5725" />
        <g
           transform="scale(2.34373)"
           id="g5731" />
        <g
           transform="scale(1.16747)"
           id="g5735" />
        <g
           transform="scale(2.31453)"
           id="g5739" />
        <g
           transform="scale(2.26925)"
           id="g5743" />
        <g
           transform="scale(2.22634)"
           id="g5747" />
        <g
           transform="scale(2.17155)"
           id="g5751" />
        <g
           transform="scale(2.3419)"
           id="g5755" />
        <g
           transform="scale(1.63356)"
           id="g5759" />
        <g
           transform="scale(1.63356)"
           id="g5763" />
        <g
           transform="scale(1.63899)"
           id="g5767" />
        <g
           transform="scale(1.63883)"
           id="g5771" />
        <g
           transform="scale(2.31453)"
           id="g5775" />
        <g
           transform="scale(2.26925)"
           id="g5779" />
        <g
           transform="scale(2.22634)"
           id="g5783" />
        <g
           transform="scale(2.17155)"
           id="g5787" />
        <g
           transform="scale(2.3419)"
           id="g5791" />
        <g
           transform="scale(1.63356)"
           id="g5795" />
        <g
           transform="scale(1.63356)"
           id="g5799" />
        <g
           transform="scale(1.63899)"
           id="g5803" />
        <g
           transform="scale(1.63883)"
           id="g5807" />
        <g
           transform="scale(1.64018)"
           id="g5811" />
        <g
           transform="scale(1.64018)"
           id="g5815" />
        <g
           transform="scale(1.21755)"
           id="g5819" />
        <g
           transform="scale(1.21755)"
           id="g5823" />
        <g
           transform="scale(1.21755)"
           id="g5827" />
        <g
           transform="scale(1.55613)"
           id="g5831" />
        <g
           transform="scale(1.55613)"
           id="g5835" />
        <g
           transform="scale(1.55613)"
           id="g5839" />
        <g
           transform="scale(1.21755)"
           id="g5845" />
        <g
           transform="scale(1.21755)"
           id="g5849" />
        <g
           transform="scale(1.21755)"
           id="g5853" />
        <g
           transform="scale(1.55613)"
           id="g5857" />
        <g
           transform="scale(1.55613)"
           id="g5861" />
        <g
           transform="scale(1.55613)"
           id="g5865" />
        <g
           transform="scale(1.21755)"
           id="g5871" />
        <g
           transform="scale(1.21755)"
           id="g5875" />
        <g
           transform="scale(1.21755)"
           id="g5879" />
        <g
           transform="scale(1.55613)"
           id="g5883" />
        <g
           transform="scale(1.55613)"
           id="g5887" />
        <g
           transform="scale(1.55613)"
           id="g5891" />
        <g
           transform="scale(1.0027)"
           id="g5897" />
        <g
           transform="scale(2.34373)"
           id="g5907">
          <path
             inkscape:connector-curvature="0"
             id="path5909"
             style="fill:#302d2e;fill-opacity:1;fill-rule:nonzero;stroke:none"
             d="m 16022.4,13360.4 c 0,-11.3 -5.6,-21.8 -15,-28.1 -5.7,-3.9 -12.3,-5.9 -19,-5.9 -4.2,0 -8.5,0.9 -12.6,2.5 -164.9,66.3 -359.6,99.9 -578.7,99.9 -527.9,0 -1047.7,-186 -1246.6,-265.9 -4.1,-1.7 -8.4,-2.5 -12.7,-2.5 -6.6,0 -13.3,2 -18.9,5.8 -9.4,6.3 -15,16.9 -15,28.1 v 2477.9 c 0,10 4.5,19.5 12.1,25.9 156.3,131.3 337.4,234.2 538.1,305.7 203.6,72.6 417.7,109.4 636.3,109.4 337.2,0 608,-78.5 708.8,-112.3 13.8,-4.6 23.2,-17.5 23.2,-32.1 z M 14055,13194.3 c 0,-11.2 -5.6,-21.8 -14.9,-28.1 -5.7,-3.8 -12.3,-5.8 -19,-5.8 -4.3,0 -8.6,0.8 -12.7,2.5 -198.9,79.9 -718.6,265.9 -1246.5,265.9 -219.2,0 -413.9,-33.6 -578.7,-99.9 -4.1,-1.6 -8.4,-2.5 -12.7,-2.5 -6.6,0 -13.3,2 -19,5.9 -9.3,6.3 -14.9,16.8 -14.9,28.1 v 2608.4 c 0,14.6 9.3,27.5 23.2,32.1 100.7,33.8 371.5,112.3 708.7,112.3 218.7,0 432.7,-36.8 636.3,-109.4 200.8,-71.5 381.8,-174.4 538.1,-305.7 7.7,-6.4 12.1,-15.9 12.1,-25.9 z m 2220,2476.9 c -35.1,35 -92,79.6 -164.1,93 -16,3 -27.6,17 -27.6,33.3 v 192.8 c 0,26.3 -17.6,50.5 -42.8,58.7 -114.5,37.6 -416.9,125.1 -750.1,125.1 -464.2,0 -864.2,-141.3 -1188.8,-420 -6.4,-5.5 -14.3,-8.2 -22.1,-8.2 -7.9,0 -15.8,2.7 -22.1,8.2 -324.7,278.7 -724.6,420 -1188.9,420 -333.1,0 -635.5,-87.5 -750,-125.1 -25.2,-8.2 -42.8,-32.4 -42.8,-58.7 v -192.8 c 0,-16.3 -11.6,-30.3 -27.7,-33.3 -72.1,-13.4 -129,-58 -164,-93.1 -16.2,-16.1 -25,-37.6 -25,-60.7 v -2680.1 c 0,-23.5 19.5,-38 37.6,-38 4.9,0 9.7,1 14.4,2.9 203.1,81.7 588.6,218.7 888.2,218.7 305.1,0 776.9,-106.1 1014.5,-181.5 9.4,-3 17,-9.9 20.9,-18.9 2.7,-6.4 3.4,-13.5 2.1,-20.2 4.7,-9.4 40.8,-61.7 242.8,-61.7 202,0 238.1,52.3 242.8,61.7 -1.4,6.7 -0.7,13.8 2.1,20.2 3.9,9 11.5,15.9 20.9,18.9 237.5,75.4 709.3,181.5 1014.5,181.5 299.6,0 685.1,-137 888.2,-218.7 4.7,-1.9 9.5,-2.9 14.3,-2.9 9.7,0 19.3,4 26.4,10.9 7.2,7.1 11.3,16.7 11.3,27.1 v 2680.1 c 0,23.1 -8.9,44.6 -25,60.8" />
        </g>
      </g>
    </g>
    <text
       xml:space="preserve"
       style="font-style:normal;font-weight:normal;font-size:10.58333302px;line-height:1.25;font-family:sans-serif;letter-spacing:0px;word-spacing:0px;fill:#302d2e;fill-opacity:1;stroke:none;stroke-width:0.26458332"
       x="85.793533"
       y="174.05602"
       id="text6136"><tspan
         sodipodi:role="line"
         id="tspan6134"
         x="85.793533"
         y="174.05602"
         style="font-style:normal;font-variant:normal;font-weight:normal;font-stretch:normal;font-size:8.46666622px;font-family:Arial;-inkscape-font-specification:Arial;fill:#302d2e;fill-opacity:1;stroke-width:0.26458332">PRIMARY SCHOOL</tspan></text>
    <g
       id="g6146"
       transform="matrix(0.06890423,0,0,0.04554067,93.714576,197.3881)">
      <g
         id="g6144"
         transform="matrix(0.1,0,0,-0.1,0,512)">
        <path
           id="path6140"
           d="m 4311.9515,6305.4615 c -32.7999,-102.044 -202.7063,-437.5709 -375.5663,-751.6813 -396.552,-703.389 -459.0428,-888.5797 -459.0428,-1336.9289 0,-182.5312 17.8767,-375.8406 38.7069,-442.8901 95.4462,-295.3534 292.0899,-542.2744 521.689,-649.6374 110.3692,-50.9519 113.3228,-50.9519 92.4925,-2.6595 -143.169,314.1103 -140.0601,604.0045 11.9697,1049.5542 62.6462,187.8504 131.1994,408.0356 152.0298,488.5228 59.6925,233.6232 74.4602,241.6019 157.9368,91.2657 208.6133,-370.3815 217.6294,-609.3239 47.723,-1079.0897 -65.5997,-185.1907 -128.2459,-394.5977 -137.1066,-469.7657 l -17.8767,-131.5793 119.2299,56.4111 c 163.9993,75.1682 432.3053,298.0129 542.5191,453.6683 363.7522,510.0795 309.9666,1326.1506 -143.1691,2193.1737 -140.0601,265.818 -438.2125,711.3677 -476.9194,711.3677 -9.0161,0.14 -44.7695,-80.3473 -74.6158,-179.7316 z"
           inkscape:connector-curvature="0"
           style="fill:#9c1864;fill-opacity:1;stroke-width:1.47511053" />
        <path
           id="path6142"
           d="m 3721.4829,-2785.4 h -343.2 c -450.7,0 -462.2,-15.3 -118.9,-153.4 245.5,-97.8 293.4,-130.4 345.2,-235.9 34.5,-69.1 40.3,-118.9 40.3,-306.9 V -3706 l -1354,-3.8 -1353.99996,-5.8 -36.4,-46 c -19.2,-24.9 -36.4,-63.3 -36.4,-88.2 0,-23 55.6,-136.2 124.7,-251.2 161.09996,-268.5 331.79996,-435.3 552.29996,-544.6 293.4,-143.8 103.6,-134.2 2874.8,-134.2 1752.8,0 2518,5.7 2589,21.1 120.8,25 343.3,124.7 462.2,205.2 140,97.8 251.2,226.3 379.7,435.3 l 122.8,197.5 268.5,99.7 c 452.6,166.8 611.8,251.2 778.6,420 214.8,216.7 304.9,446.8 280,719.2 -40.3,437.3 -372.1,730.7 -818.9,726.8 -270.4,-3.8 -473.7,-95.9 -606,-276.2 -126.6,-172.6 -186,-471.8 -107.4,-540.8 88.2,-80.5 195.6,-11.5 195.6,122.7 0,90.1 46,218.6 105.5,297.2 163,212.9 592.6,226.3 820.8,26.9 124.6,-111.2 176.4,-237.8 176.4,-441.1 0,-210.9 -55.6,-333.7 -222.4,-489 -141.9,-128.5 -280,-201.4 -665.5,-343.3 l -293.4,-107.4 h -1350.3 -1352 v 216.7 c 1.9,349 51.8,418.1 408.5,560 128.5,51.8 222.5,99.7 218.6,113.2 -3.9,13.5 -117,23 -354.8,26.8 l -349,3.8 c -1380.9,0.1 0,0 -1380.9,0.1 z"
           inkscape:connector-curvature="0"
           sodipodi:nodetypes="csccsccccsccsccccccccccsccscccccccsccc"
           style="fill:#e2c044;fill-opacity:1" />
      </g>
    </g>
    <g
       id="g6190"
       transform="translate(-0.17953867,0.04724702)">
      <path
         sodipodi:nodetypes="ccccsscscccccccccsccccc"
         inkscape:connector-curvature="0"
         d="m 128.63061,209.37968 c -2.02164,1.43811 -3.06554,2.06854 -4.30789,2.65122 -0.79308,0.36883 -1.49315,0.78477 -1.58548,0.92734 -0.33005,0.55851 -0.37002,1.08169 -0.14539,2.00904 0.27768,1.16473 0.14539,1.52179 -0.5285,1.52179 -0.48922,0 -0.88542,-0.29691 -0.88542,-0.66575 0,-0.11896 0.11921,-0.5114 0.27769,-0.86783 0.37001,-0.90378 0.1192,-1.55713 -0.59464,-1.55713 -0.43617,0 -1.65164,0.58268 -1.8239,0.86783 -0.0923,0.14257 -0.19844,0.98685 -0.25081,1.86645 -0.0531,0.87961 -0.22463,2.08031 -0.37002,2.67479 -0.31696,1.22426 -0.33005,1.65259 -0.13229,2.18755 0.17157,0.42771 0.62082,0.58268 1.12314,0.3806 l 0.31696,-0.13081 v 10.93592 l 9.42049,-0.0513 0.0945,-5.83315 h 0.56846 c 1.09695,0 1.22856,-0.40415 0.75312,-2.5322 -0.50231,-2.34191 -0.56846,-3.23329 -0.44925,-6.62155 0.17226,-5.12393 0.15848,-7.31086 -0.0792,-7.72741 -0.27837,-0.49902 -0.72763,-0.51079 -1.40152,-0.0354 z"
         id="path6142-6"
         style="fill:#302d2e;fill-opacity:1;stroke-width:0.00653546" />
      <path
         sodipodi:nodetypes="ccccsscscccccccccsccccc"
         inkscape:connector-curvature="0"
         d="m 128.36427,210.037 c -1.87907,1.35131 -2.84935,1.94132 -4.00409,2.48248 -0.73714,0.34243 -1.38782,0.73154 -1.47365,0.86714 -0.30677,0.53163 -0.14347,0.86667 0.0652,1.76106 0.25813,1.12326 -0.0652,1.63138 -0.69168,1.62124 -0.4547,-0.007 -1.09021,-0.0647 -1.09021,-0.41913 0,-0.11434 -0.29012,-0.69001 -0.14282,-1.03007 0.34392,-0.86279 0.77896,-1.52774 0.11547,-1.53848 -0.4054,-0.007 -1.53515,0.535 -1.69525,0.80639 -0.0857,0.13558 -0.31809,0.84495 -0.36675,1.68931 -0.0495,0.84433 -0.30903,2.09561 -0.44417,2.66461 -0.2946,1.17151 -0.20654,1.31561 -0.0228,1.83257 0.15943,0.41351 0.34316,0.40215 0.81006,0.21553 l 0.52849,-0.15434 0.13363,10.97505 8.75609,0.0925 0.18803,-5.97064 0.76224,0.008 c 1.01966,0.0107 0.80782,-0.002 0.3659,-2.05413 -0.46685,-2.25769 -0.52839,-3.11513 -0.41755,-6.3688 0.16008,-4.92055 0.21406,-7.32266 -0.007,-7.72644 -0.25872,-0.48368 -0.74314,-0.20106 -1.3695,0.24548 z"
         id="path6142-6-9"
         style="fill:#ffffff;stroke-width:0.00617607" />
    </g>
    <text
       xml:space="preserve"
       style="font-style:normal;font-weight:normal;font-size:13.44069099px;line-height:1.25;font-family:sans-serif;letter-spacing:0px;word-spacing:0px;fill:#302d2e;fill-opacity:1;stroke:none;stroke-width:0.33601728"
       id="text6194"
       transform="matrix(0.85841123,-0.01345124,0.0116143,0.92973061,18.815922,17.332839)"><textPath
         xlink:href="#path6199"
         id="textPath6203"
         style="font-style:normal;font-variant:normal;font-weight:bold;font-stretch:normal;font-size:17.63888931px;font-family:Arial;-inkscape-font-specification:'Arial Bold';fill:#302d2e;fill-opacity:1;stroke-width:0.33601728">NTHUTE KE ITHUTE</textPath></text>
    <text
       xml:space="preserve"
       style="font-style:normal;font-weight:normal;font-size:12.97941303px;line-height:1.25;font-family:sans-serif;letter-spacing:0px;word-spacing:0px;fill:#302d2e;fill-opacity:1;stroke:none;stroke-width:0.3244853"
       id="text976"
       transform="rotate(2.9273272,139.68171,190.23924)"><textPath
         xlink:href="#path5443"
         id="textPath978"><tspan
   style="font-style:normal;font-variant:normal;font-weight:bold;font-stretch:normal;font-family:Arial;-inkscape-font-specification:'Arial Bold';fill:#302d2e;fill-opacity:1;stroke-width:0.3244853"
   id="tspan974">BALEBOGENG</tspan></textPath></text>
  </g>
  <style
     id="style4036"
     type="text/css">
	.st0{fill:#643514;}
	.st1{fill:#EEA900;}
	.st2{fill:#1A7733;}
	.st3{fill:#E3630E;}
	.st4{fill:#938922;}
	.st5{fill:#AA1A17;}
	.st6{fill:#E98800;}
	.st7{fill:#D01419;}
	.st8{fill:#D36415;}
	.st9{fill:#FFFFFF;}
	.st10{fill:#F1883B;}
	.st11{fill:#F7A518;}
	.st12{fill:#4C2814;}
	.st13{fill:#DB760F;}
	.st14{fill:#7E4615;}
	.st15{fill:#EC7105;}
	.st16{fill:#6E3B11;}
	.st17{fill:#46702C;}
	.st18{fill:#844D16;}
	.st19{fill:#CB8013;}
	.st20{fill:#00642F;}
	.st21{fill:#B72617;}
	.st22{fill:#D91815;}
	.st23{fill:#F59B00;}
	.st24{fill:#EE8600;}
	.st25{fill:#6E3710;}
	.st26{fill:#EE7042;}
	.st27{fill:#D82F15;}
	.st28{fill:#E84C0F;}
	.st29{fill:#D65514;}
	.st30{fill:#ED6E05;}
	.st31{fill:#CE6D28;}
	.st32{fill:#F7C5A5;}
	.st33{fill:#A8CB64;}
	.st34{fill:#971827;}
	.st35{fill:#DD5013;}
	.st36{fill:#EC893A;}
	.st37{fill:#E87507;}
	.st38{fill:#FFD682;}
	.st39{fill:#D46814;}
	.st40{fill:#F6E5DA;}
	.st41{fill:#FEFEFD;}
	.st42{fill:#F59C52;}
	.st43{fill:#E5640D;}
	.st44{fill:#FCF4EF;}
	.st45{fill:#FAE1D0;}
	.st46{fill:#E59256;}
	.st47{fill:#F9BD95;}
</style>
</svg>
