<?xml version="1.0" encoding="UTF-8" standalone="no"?>
<!-- Created with Inkscape (http://www.inkscape.org/) by Marsupilami -->

<svg
   xmlns:dc="http://purl.org/dc/elements/1.1/"
   xmlns:cc="http://creativecommons.org/ns#"
   xmlns:rdf="http://www.w3.org/1999/02/22-rdf-syntax-ns#"
   xmlns:svg="http://www.w3.org/2000/svg"
   xmlns="http://www.w3.org/2000/svg"
   xmlns:sodipodi="http://sodipodi.sourceforge.net/DTD/sodipodi-0.dtd"
   xmlns:inkscape="http://www.inkscape.org/namespaces/inkscape"
   version="1.0"
   width="180.2043"
   height="192.06412"
   viewBox="0 0 35.046788 37.449864"
   id="svg2588"
   sodipodi:docname="old-mutual.svg"
   inkscape:version="0.92.2 5c3e80d, 2017-08-06">
  <metadata
     id="metadata9">
    <rdf:RDF>
      <cc:Work
         rdf:about="">
        <dc:format>image/svg+xml</dc:format>
        <dc:type
           rdf:resource="http://purl.org/dc/dcmitype/StillImage" />
        <dc:title />
      </cc:Work>
    </rdf:RDF>
  </metadata>
  <sodipodi:namedview
     pagecolor="#ffffff"
     bordercolor="#666666"
     borderopacity="1"
     objecttolerance="10"
     gridtolerance="10"
     guidetolerance="10"
     inkscape:pageopacity="0"
     inkscape:pageshadow="2"
     inkscape:window-width="1920"
     inkscape:window-height="1054"
     id="namedview7"
     showgrid="false"
     fit-margin-top="5"
     fit-margin-left="5"
     fit-margin-right="5"
     fit-margin-bottom="5"
     inkscape:pagecheckerboard="true"
     inkscape:zoom="2.4453125"
     inkscape:cx="75.336422"
     inkscape:cy="121.96992"
     inkscape:window-x="0"
     inkscape:window-y="0"
     inkscape:window-maximized="1"
     inkscape:current-layer="svg2588" />
  <defs
     id="defs2590" />
  <g
     transform="translate(303.78033,34.927927)"
     id="layer1">
    <path
       d="m -287.49262,-32.198743 c -2.01005,0.698572 -4.05304,1.598149 -6.04112,2.74596 -2.40546,1.389456 -4.57806,2.986506 -6.42554,4.723051 -0.57995,2.466971 -0.87871,5.130551 -0.87871,7.908365 0,2.295622 0.23176,4.526441 0.63157,6.617763 0.681,-0.426173 1.40044,-1.096188 2.05947,-1.949631 -0.12082,-1.104974 -0.0209,-2.405461 0.35698,-3.816885 0.34928,-1.30488 0.85893,-2.475757 1.45535,-3.350071 1.60999,-0.463116 5.13596,0.854601 8.40264,2.526283 -1.03803,0.584711 -2.52553,1.408639 -3.26769,1.729955 -0.48219,-0.873215 -0.93143,-1.734349 -1.31806,-2.553743 -0.53052,-0.09007 -1.04566,-0.184528 -1.53774,-0.247136 0.12741,0.996234 0.49867,2.209948 1.09839,3.45991 -0.73263,-0.409698 -1.6377,-0.422878 -2.41645,0.02746 -1.17747,0.678802 -1.58497,2.172605 -0.90617,3.350071 0.6799,1.1763704 2.17261,1.5860664 3.35007,0.906167 0.77876,-0.449239 1.2236,-1.275224 1.23569,-2.114389 0.78205,1.144516 1.64428,2.082536 2.4439,2.6910414 0.19222,-0.4569284 0.36357,-0.9226424 0.54919,-1.4278994 -0.51514,-0.744705 -1.02259,-1.563001 -1.53773,-2.416445 0.48438,-0.36027 1.41032,-0.952298 2.27914,-1.482819 0.0395,-0.619149 0.0688,-1.267979 0.0824,-1.894712 3.9e-4,-0.01814 -3.7e-4,-0.03679 0,-0.05492 0.008,-0.335056 0,-0.656602 0,-0.988546 0,-0.286678 0.007,-0.644751 0,-1.016005 -2.76573,-1.873843 -5.2338,-3.981642 -5.60176,-5.46446 0.45913,-0.954496 1.21372,-1.981485 2.16931,-2.938177 1.03248,-1.032481 2.13965,-1.774989 3.15786,-2.224228 0.40859,-0.996234 0.63157,-1.943041 0.65903,-2.74596 z m 2.49882,0 c 0.0286,0.802919 0.25043,1.749726 0.65903,2.74596 1.0171,0.449239 2.09791,1.191747 3.13039,2.224228 0.9567,0.956692 1.71019,1.983681 2.16931,2.938177 -0.37015,1.489408 -2.84811,3.612585 -5.62922,5.49192 -0.007,0.363565 10e-6,0.70736 0,0.988545 0,0.329515 -0.007,0.656871 0,0.988546 5.7e-4,0.02758 -6.1e-4,0.05479 0,0.08238 0.0138,0.617327 0.0445,1.231034 0.0824,1.839793 0.87981,0.536011 1.84199,1.145614 2.33407,1.510278 -0.51514,0.854543 -1.05006,1.67284 -1.5652,2.416445 0.18563,0.505256 0.38444,0.969872 0.57665,1.4278994 0.79963,-0.6096034 1.6344,-1.5465244 2.41645,-2.6910414 0.0121,0.839165 0.45693,1.664052 1.23568,2.114389 1.17747,0.6799004 2.69653,0.2702034 3.37753,-0.906167 0.6777,-1.178566 0.2713,-2.671269 -0.90617,-3.350071 -0.77985,-0.450337 -1.71128,-0.436059 -2.4439,-0.02746 0.59972,-1.248863 0.97097,-2.463676 1.09838,-3.45991 -0.49207,0.06261 -0.97975,0.155971 -1.51027,0.247136 -0.38664,0.818297 -0.83478,1.680528 -1.31806,2.553743 -0.74268,-0.321504 -2.25695,-1.115408 -3.29516,-1.702495 3.2707,-1.675331 6.81706,-3.018037 8.4301,-2.553743 0.59752,0.874314 1.07861,2.044093 1.4279,3.350071 0.37784,1.410325 0.50526,2.71191 0.38443,3.816885 0.65903,0.852346 1.35102,1.523459 2.03201,1.949631 0.39982,-2.091323 0.63158,-4.322141 0.63157,-6.617763 0,-2.778912 -0.29876,-5.441394 -0.8787,-7.908365 -1.84748,-1.735447 -3.99153,-3.333595 -6.39809,-4.723051 -1.98807,-1.147811 -4.02997,-2.047388 -6.04111,-2.74596 z m -1.26314,3.789425 c -1.3587,0.0011 -2.47137,1.084105 -2.47137,2.443904 0,0.899577 0.48659,1.684921 1.20823,2.114389 -1.38287,0.105445 -2.61635,0.38114 -3.54229,0.768869 0.29986,0.395418 0.61729,0.820493 0.96108,1.235682 0.90288,-0.07579 1.85737,-0.146085 2.8558,-0.164757 0.10545,0.918249 0.16476,3.042523 0.16476,4.201318 0,4.296879 -0.58214,9.5592364 -2.05947,10.9838406 -1.05555,0.079084 -2.31869,-0.090067 -3.62467,-0.4393536 -1.41142,-0.3789434 -2.59109,-0.9358232 -3.48737,-1.5926566 -1.06872,0.144986 -2.01004,0.419582 -2.7185,0.7963282 1.61023,1.3927509 3.42147,2.7228939 5.40954,3.8718035 2.40546,1.3883574 4.87793,2.4526915 7.30426,3.1853136 2.42743,-0.7326212 4.87023,-1.7958578 7.27679,-3.1853136 1.98808,-1.1478112 3.79931,-2.480151 5.40954,-3.8718035 -0.70846,-0.3767462 -1.64977,-0.6513422 -2.7185,-0.7963282 -0.89628,0.6579309 -2.07704,1.2148125 -3.48737,1.5926566 -1.30598,0.3503836 -2.56802,0.5195356 -3.62466,0.4393536 -1.47623,-1.4235062 -2.05947,-6.6869626 -2.05947,-10.9838406 -1e-5,-1.158794 0.0582,-3.281971 0.16475,-4.201318 0.99734,0.01977 1.95293,0.09007 2.8558,0.164757 0.3438,-0.414091 0.66013,-0.841362 0.96109,-1.235682 -0.92704,-0.38773 -2.16052,-0.663424 -3.54229,-0.768869 0.72054,-0.429468 1.20822,-1.213714 1.20822,-2.114389 0,-1.359799 -1.0852,-2.442806 -2.4439,-2.443904 z m 0,1.318061 c 0.63267,-1e-6 1.12584,0.497567 1.12584,1.125843 0,0.628276 -0.49757,1.153303 -1.12584,1.153303 -0.62828,1e-6 -1.15331,-0.526126 -1.15331,-1.153303 0,-0.629374 0.52064,-1.125843 1.15331,-1.125843 z m -8.04567,13.70234 c 0.43965,-0.05452 0.89024,0.168877 1.12585,0.576651 0.31414,0.5437 0.1329,1.224699 -0.4119,1.537738 -0.5437,0.314138 -1.2214,0.1362 -1.53773,-0.411894 -0.31634,-0.549192 -0.13291,-1.251059 0.41189,-1.565197 0.13593,-0.07854 0.26535,-0.119123 0.41189,-0.137298 z m 16.09133,0 c 0.1467,0.01831 0.30315,0.05849 0.43935,0.137298 0.5437,0.314138 0.72823,1.017104 0.4119,1.565197 -0.31744,0.548094 -1.0215,0.724933 -1.5652,0.411894 -0.5448,-0.315236 -0.72603,-0.994038 -0.41189,-1.537738 0.2356,-0.408598 0.68573,-0.631587 1.12584,-0.576651 z"
       style="fill:#868686;fill-opacity:1;fill-rule:nonzero;stroke:none;stroke-width:0.87870717"
       id="path2520"
       inkscape:connector-curvature="0" />
  </g>
</svg>
