<?xml version="1.0" encoding="UTF-8" standalone="no"?>
<!-- Generator: Adobe Illustrator 14.0.0, SVG Export Plug-In . SVG Version: 6.00 Build 43363)  -->

<svg
   xmlns:dc="http://purl.org/dc/elements/1.1/"
   xmlns:cc="http://creativecommons.org/ns#"
   xmlns:rdf="http://www.w3.org/1999/02/22-rdf-syntax-ns#"
   xmlns:svg="http://www.w3.org/2000/svg"
   xmlns="http://www.w3.org/2000/svg"
   xmlns:sodipodi="http://sodipodi.sourceforge.net/DTD/sodipodi-0.dtd"
   xmlns:inkscape="http://www.inkscape.org/namespaces/inkscape"
   version="1.1"
   id="Layer_1"
   x="0px"
   y="0px"
   width="185.75"
   height="185.75"
   viewBox="0 0 185.75 185.75"
   enable-background="new 0 0 612 792"
   xml:space="preserve"
   sodipodi:docname="university-of-pretoria-alt.svg"
   inkscape:version="0.92.2 5c3e80d, 2017-08-06"><metadata
     id="metadata123"><rdf:RDF><cc:Work
         rdf:about=""><dc:format>image/svg+xml</dc:format><dc:type
           rdf:resource="http://purl.org/dc/dcmitype/StillImage" /><dc:title /></cc:Work></rdf:RDF></metadata><defs
     id="defs121" /><sodipodi:namedview
     pagecolor="#ffffff"
     bordercolor="#666666"
     borderopacity="1"
     objecttolerance="10"
     gridtolerance="10"
     guidetolerance="10"
     inkscape:pageopacity="0"
     inkscape:pageshadow="2"
     inkscape:window-width="1920"
     inkscape:window-height="1054"
     id="namedview119"
     showgrid="false"
     fit-margin-top="5"
     fit-margin-left="40"
     fit-margin-right="40"
     fit-margin-bottom="5"
     inkscape:pagecheckerboard="true"
     inkscape:zoom="2.8284273"
     inkscape:cx="-44.173998"
     inkscape:cy="76.33021"
     inkscape:window-x="0"
     inkscape:window-y="0"
     inkscape:window-maximized="1"
     inkscape:current-layer="Layer_1"
     inkscape:snap-global="true" /><g
     id="g116"
     transform="translate(-210.10156,-303.50391)"
     style="fill:#c48b3b;fill-opacity:1"><path
       style="clip-rule:evenodd;fill:#c48b3b;fill-opacity:1;fill-rule:evenodd;stroke:none;stroke-width:0.99655569;stroke-opacity:1"
       d="m 270.67112,375.56608 v 28.95507 c 0,20.10877 9.8537,43.83646 35.0957,56.57227 20.383,-9.92228 35.36532,-30.96748 36.44532,-53.35547 v -32.17187 z m 1.70703,1.49414 h 68.12696 v 30.78711 c -1.02845,21.42442 -15.29678,41.56529 -34.70704,51.06055 -24.03736,-12.18766 -33.41992,-34.89342 -33.41992,-54.13673 z"
       id="path4"
       inkscape:connector-curvature="0" /><path
       style="clip-rule:evenodd;fill:#c48b3b;fill-opacity:1;fill-rule:evenodd;stroke:none;stroke-opacity:1"
       d="m 63.509766,147.67383 -6.615235,5.26367 c -0.945,-1.349 -1.888984,-2.83412 -2.833984,-4.45312 l -12.958985,8.5039 0.269532,0.53906 c 7.155,11.609 17.414031,20.24849 29.832031,25.64649 l 3.105469,-6.75 c 7.02,3.105 14.7135,4.85937 22.8125,4.85937 7.558996,0 14.712406,-1.48654 21.191406,-4.18554 l 3.24023,7.15625 c 12.553,-5.263 22.81008,-14.03949 29.83008,-25.64649 l 0.26953,-0.40625 -12.95703,-8.5039 c -0.81,1.486 -1.89094,2.97107 -2.83593,4.45507 l -6.20899,-4.99414 c -7.695,10.529 -19.30325,16.73828 -32.531249,16.73828 -13.904,0 -25.915375,-6.88465 -33.609375,-18.22265 z m -0.269532,1.61719 c 7.424,10.664 19.84186,17.68359 33.88086,17.68359 13.361996,0 25.241776,-6.34422 32.800786,-16.19922 l 10.25976,8.23438 c -9.99,12.824 -25.51355,21.19335 -43.060546,21.19335 -18.223,0 -34.286625,-8.90996 -44.140625,-22.54296 z m -9.585937,0.81054 2.431641,3.64453 -4.994141,3.91407 0.404297,0.53906 c 2.025,2.701 4.455531,5.40031 7.019531,7.69531 7.289,7.424 8.638438,9.85397 12.148437,15.79297 -11.608999,-4.995 -21.462171,-13.63287 -28.076171,-24.29688 z m 85.445313,1.08008 11.07031,7.28906 c -6.614,10.799 -16.46912,19.30264 -28.07812,24.43164 3.645,-6.074 4.99543,-8.50397 12.14843,-15.79296 2.565,-2.43001 4.9953,-4.99408 7.1543,-7.83008 l 0.26953,-0.40235 -4.99218,-4.05078 c 0.944,-1.215 1.75273,-2.29453 2.42773,-3.64453 z"
       transform="translate(209,300)"
       id="path6"
       inkscape:connector-curvature="0" /><path
       d="m 274.534,457.525 0.27,0.404 c 0.81,0.676 -0.135,1.756 -0.945,2.701 -0.81,0.943 -1.89,1.754 -2.7,1.078 l -0.27,-0.27 z m -5.129,4.319 0.945,0.945 c 0.945,0.811 2.294,0.406 4.184,-1.619 1.89,-2.025 2.16,-3.375 1.215,-4.184 l -0.945,-0.945 z"
       id="path14"
       inkscape:connector-curvature="0"
       style="clip-rule:evenodd;fill:#c48b3b;fill-opacity:1;fill-rule:evenodd" /><path
       d="m 266.976,459.145 1.484,-0.809 0.945,1.078 -1.08,1.352 0.675,0.674 4.859,-6.344 -0.675,-0.811 -6.749,4.32 z m 2.564,-1.62 2.835,-1.754 -2.16,2.564 z"
       id="path16"
       inkscape:connector-curvature="0"
       style="clip-rule:evenodd;fill:#c48b3b;fill-opacity:1;fill-rule:evenodd" /><path
       d="m 278.314,461.439 0.405,0.27 c 0.81,0.541 0.135,1.756 -0.675,2.836 -0.674,0.945 -1.619,2.023 -2.429,1.484 l -0.405,-0.27 z m -4.455,4.86 1.08,0.811 c 0.945,0.674 2.294,0.135 3.915,-2.025 1.62,-2.295 1.62,-3.645 0.675,-4.453 l -1.08,-0.676 z"
       id="path18"
       inkscape:connector-curvature="0"
       style="clip-rule:evenodd;fill:#c48b3b;fill-opacity:1;fill-rule:evenodd" /><polygon
       points="281.958,466.029 280.474,465.219 281.418,463.6 282.903,464.545 283.713,463.465 281.418,461.98 277.234,468.729 279.529,470.213 280.204,468.998 278.719,468.055 279.799,466.299 281.284,467.109 "
       id="polygon20"
       style="clip-rule:evenodd;fill:#c48b3b;fill-opacity:1;fill-rule:evenodd" /><path
       d="m 285.468,466.84 c 0.675,-1.35 0.54,-2.295 -0.135,-2.699 -0.675,-0.406 -1.755,0 -2.7,1.484 -0.54,1.35 -0.135,2.023 0.135,2.564 0.27,0.27 0.81,0.674 0.27,1.484 -0.27,0.674 -0.81,0.674 -1.08,0.539 -0.405,-0.135 -0.405,-0.809 0,-1.619 l -0.675,-0.404 c -0.945,1.754 -0.81,2.699 0,3.104 0.81,0.406 1.89,0.135 2.834,-1.484 0.675,-1.484 0,-2.16 -0.405,-2.699 -0.135,-0.27 -0.405,-0.541 0,-1.35 0.271,-0.541 0.675,-0.811 0.945,-0.541 0.405,0.135 0.405,0.541 0,1.35 z"
       id="path22"
       inkscape:connector-curvature="0"
       style="clip-rule:evenodd;fill:#c48b3b;fill-opacity:1;fill-rule:evenodd" /><polygon
       points="284.523,472.643 285.333,473.049 288.033,466.975 289.112,467.514 289.518,466.299 286.683,464.949 286.143,466.164 287.223,466.703 "
       id="polygon24"
       style="clip-rule:evenodd;fill:#c48b3b;fill-opacity:1;fill-rule:evenodd" /><polygon
       points="287.358,473.857 288.168,474.129 290.868,466.703 290.057,466.434 "
       id="polygon26"
       style="clip-rule:evenodd;fill:#c48b3b;fill-opacity:1;fill-rule:evenodd" /><polygon
       points="289.248,474.533 290.057,474.803 291.813,468.459 291.947,468.459 291.542,475.207 292.622,475.613 294.917,468.055 294.107,467.783 292.352,473.723 292.757,467.379 291.542,466.975 "
       id="polygon28"
       style="clip-rule:evenodd;fill:#c48b3b;fill-opacity:1;fill-rule:evenodd" /><path
       d="m 293.972,475.883 0.675,-1.484 1.62,0.27 -0.135,1.754 0.81,0.137 0.405,-7.965 -0.945,-0.27 -3.104,7.424 z m 1.215,-2.699 1.35,-3.24 v 0 l -0.27,3.375 z"
       id="path30"
       inkscape:connector-curvature="0"
       style="clip-rule:evenodd;fill:#c48b3b;fill-opacity:1;fill-rule:evenodd" /><polygon
       points="298.021,476.693 298.832,476.828 299.911,470.348 301.126,470.619 301.396,469.27 298.156,468.729 298.021,470.078 299.101,470.213 "
       id="polygon32"
       style="clip-rule:evenodd;fill:#c48b3b;fill-opacity:1;fill-rule:evenodd" /><path
       d="m 304.366,469.539 -0.405,4.318 c 0,1.35 -0.135,2.564 -0.944,2.43 -0.945,0 -0.81,-1.215 -0.675,-2.564 l 0.27,-4.318 h -0.81 l -0.405,4.859 c -0.135,2.158 0.54,3.238 1.485,3.238 0.945,0.137 1.755,-0.809 1.89,-2.969 l 0.405,-4.859 z"
       id="path34"
       inkscape:connector-curvature="0"
       style="clip-rule:evenodd;fill:#c48b3b;fill-opacity:1;fill-rule:evenodd" /><polygon
       points="309.63,477.639 310.439,477.639 310.439,469.674 309.09,469.674 308.146,475.479 307.335,469.674 305.851,469.674 305.985,477.639 306.795,477.639 306.66,470.889 307.875,477.639 308.55,477.639 309.63,470.754 309.63,470.889 "
       id="polygon36"
       style="clip-rule:evenodd;fill:#c48b3b;fill-opacity:1;fill-rule:evenodd" /><path
       d="m 314.624,477.098 -0.54,-2.969 0.676,-0.135 c 0.81,-0.137 1.215,-1.215 0.944,-2.566 -0.27,-2.023 -1.08,-2.293 -1.89,-2.158 l -1.215,0.135 1.08,7.828 z m -1.079,-6.479 c 0.539,0 1.079,-0.406 1.215,0.943 0.27,1.352 -0.405,1.08 -0.811,1.217 z"
       id="path38"
       inkscape:connector-curvature="0"
       style="clip-rule:evenodd;fill:#c48b3b;fill-opacity:1;fill-rule:evenodd" /><polygon
       points="318.809,471.428 317.188,471.834 316.784,470.078 318.539,469.674 318.269,468.324 315.704,468.998 317.459,476.559 320.159,476.018 319.889,474.668 317.999,475.207 317.594,473.049 319.214,472.643 "
       id="polygon40"
       style="clip-rule:evenodd;fill:#c48b3b;fill-opacity:1;fill-rule:evenodd" /><path
       d="m 319.889,469.135 0.675,-0.137 c 0.405,-0.135 0.675,0 0.945,0.676 0.135,0.674 0.135,1.08 -0.271,1.215 l -0.675,0.27 z m 1.215,3.238 0.81,-0.27 c 0.271,-0.135 0.54,0.404 0.675,0.811 0.271,0.674 0.54,1.35 0.811,2.023 l 0.944,-0.27 c -0.404,-0.404 -0.675,-1.35 -0.944,-1.754 -0.405,-0.945 -0.675,-1.756 -1.35,-1.621 v 0 c 0.404,-0.404 0.539,-1.215 0.135,-2.158 -0.54,-1.486 -1.35,-1.621 -1.89,-1.486 l -1.62,0.541 2.564,7.424 0.811,-0.27 z"
       id="path42"
       inkscape:connector-curvature="0"
       style="clip-rule:evenodd;fill:#c48b3b;fill-opacity:1;fill-rule:evenodd" /><path
       d="m 325.559,467.918 c -0.675,-1.484 -1.62,-1.889 -2.295,-1.619 -0.676,0.27 -1.215,1.35 -0.405,2.971 0.54,1.35 1.484,1.484 2.025,1.484 0.404,0 0.944,-0.135 1.349,0.674 0.405,0.811 0,1.215 -0.27,1.352 -0.404,0.135 -0.81,-0.271 -1.215,-1.08 l -0.81,0.27 c 0.81,1.889 1.755,2.295 2.564,1.889 0.675,-0.404 1.215,-1.35 0.405,-3.104 -0.676,-1.484 -1.62,-1.35 -2.295,-1.35 -0.405,-0.135 -0.675,0 -1.08,-0.811 -0.27,-0.539 -0.135,-1.08 0.135,-1.215 0.405,-0.135 0.675,0.135 1.08,0.811 z"
       id="path44"
       inkscape:connector-curvature="0"
       style="clip-rule:evenodd;fill:#c48b3b;fill-opacity:1;fill-rule:evenodd" /><polygon
       points="328.663,467.244 327.178,468.055 326.368,466.434 327.987,465.625 327.313,464.41 325.019,465.625 328.798,472.643 331.092,471.293 330.553,470.213 328.798,471.023 327.853,469.135 329.338,468.459 "
       id="polygon46"
       style="clip-rule:evenodd;fill:#c48b3b;fill-opacity:1;fill-rule:evenodd" /><path
       d="m 332.713,468.998 c -0.676,0.406 -1.621,-0.674 -2.296,-1.889 -0.81,-1.08 -1.484,-2.43 -0.81,-2.969 0.675,-0.406 1.62,0.809 2.43,1.889 0.676,1.215 1.485,2.565 0.676,2.969 z m 1.754,-1.215 -0.27,0.135 c -0.136,0.137 -0.271,0.271 -0.405,0.271 v 0 c 0,-0.541 -0.54,-1.891 -1.079,-2.699 -1.216,-1.891 -2.7,-2.971 -3.78,-2.295 -1.08,0.674 -0.675,2.564 0.675,4.453 1.35,1.891 2.7,3.105 3.915,2.43 0,-0.135 0,-0.135 0.135,-0.27 v -0.135 l 1.484,-0.945 z"
       id="path48"
       inkscape:connector-curvature="0"
       style="clip-rule:evenodd;fill:#c48b3b;fill-opacity:1;fill-rule:evenodd" /><path
       d="m 332.848,460.494 2.564,3.375 c 0.81,1.08 1.484,2.025 0.944,2.564 -0.675,0.541 -1.484,-0.404 -2.295,-1.484 l -2.564,-3.375 -0.675,0.541 2.97,3.914 c 1.215,1.619 2.43,2.025 3.239,1.35 0.811,-0.539 0.811,-1.754 -0.54,-3.51 l -2.969,-3.914 z"
       id="path50"
       inkscape:connector-curvature="0"
       style="clip-rule:evenodd;fill:#c48b3b;fill-opacity:1;fill-rule:evenodd" /><path
       d="m 340.406,464.68 c 0.945,-0.945 0.271,-2.699 -1.35,-4.32 -1.485,-1.754 -3.105,-2.699 -4.05,-1.889 -1.08,0.809 -0.271,2.564 1.215,4.318 1.621,1.756 3.24,2.701 4.185,1.891 z m -4.59,-5.266 c 0.54,-0.539 1.755,0.406 2.565,1.486 0.944,0.943 1.89,2.295 1.214,2.834 -0.675,0.541 -1.754,-0.539 -2.699,-1.484 -0.809,-1.08 -1.754,-2.295 -1.08,-2.836 z"
       id="path52"
       inkscape:connector-curvature="0"
       style="clip-rule:evenodd;fill:#c48b3b;fill-opacity:1;fill-rule:evenodd" /><path
       d="m 338.111,457.525 0.54,-0.539 c 0.27,-0.271 0.54,-0.137 1.08,0.27 0.54,0.539 0.675,0.943 0.404,1.215 l -0.54,0.539 z m 2.43,2.295 0.675,-0.541 c 0.136,-0.27 0.675,0.135 0.945,0.406 0.54,0.539 1.079,0.945 1.619,1.484 l 0.675,-0.676 c -0.404,-0.27 -1.079,-0.809 -1.484,-1.215 -0.81,-0.674 -1.484,-1.215 -2.024,-0.943 v 0 c 0.27,-0.406 0,-1.215 -0.811,-1.891 -1.079,-1.08 -1.89,-0.945 -2.429,-0.404 l -1.08,1.08 5.534,5.533 0.675,-0.539 z"
       id="path54"
       inkscape:connector-curvature="0"
       style="clip-rule:evenodd;fill:#c48b3b;fill-opacity:1;fill-rule:evenodd" /><path
       style="clip-rule:evenodd;fill:#c48b3b;fill-opacity:1;fill-rule:evenodd"
       d="m 76.873047,56.828125 c 2.025,3.509 5.131703,5.12875 9.720703,6.34375 2.024,0.675 8.097656,2.430469 8.097656,3.105469 h -21.05664 c -5.804,0 -5.94025,7.96289 -0.40625,7.96289 0.135,0 -2.35e-4,0.541016 0.134765,0.541016 v 0.945312 h 48.999999 l -0.13476,-0.945312 0.13476,-0.541016 c 3.779,0 4.31916,-7.96289 -1.21484,-7.96289 h -20.38282 c -0.13499,-0.945 1.61993,-1.079844 2.29493,-1.214844 5.265,-0.81 10.12311,-0.945859 14.03711,-5.130859 1.08,-1.079 1.75468,-2.023516 2.42968,-3.103516 h -5.5332 c -0.54,0.405 -1.21562,0.810313 -1.89062,0.945313 -1.485,0.269999 -3.23954,0.134999 -3.64454,0 v -0.945313 h -1.3496 v 0.675781 c -0.40501,0.135 -1.48493,-0.270781 -2.29493,-0.675781 H 91.720703 c -1.62,0.81 -3.642734,1.215078 -5.802734,1.080078 -0.944,-0.135 -2.025469,-0.405078 -3.105469,-1.080078 z m -3.103516,10.527344 h 5.128907 l 2.96875,6.208984 H 79.4375 l -0.945312,-2.025391 c -0.135,-0.269999 -0.538594,-0.404531 -0.808594,-0.269531 -0.27,0.135 -0.406485,0.405781 -0.271485,0.675781 l 0.810547,1.619141 h -2.292968 l -0.945313,-2.025391 c -0.135,-0.269999 -0.540547,-0.404531 -0.810547,-0.269531 -0.27,0.135 -0.404531,0.405781 -0.269531,0.675781 l 0.810547,1.619141 h -0.541016 c -4.185,0.001 -4.454297,-6.208984 -0.404297,-6.208984 z m 12.148438,0 h 9.986328 L 98.875,73.564453 h -2.564453 l -1.080078,-2.025391 c -0.135,-0.269999 -0.403828,-0.404531 -0.673828,-0.269531 -0.27,0.135 -0.406485,0.405781 -0.271485,0.675781 l 0.810547,1.619141 h -2.294922 l -1.080078,-2.025391 c -0.135,-0.269999 -0.403828,-0.404531 -0.673828,-0.269531 -0.27,0.135 -0.406484,0.405781 -0.271484,0.675781 l 0.810547,1.619141 h -2.699219 z m 17.412111,0 h 9.98828 l 2.96875,6.208984 h -2.69922 l -0.94336,-2.025391 c -0.135,-0.269999 -0.40578,-0.404531 -0.67578,-0.269531 -0.271,0.135 -0.40548,0.405781 -0.27148,0.675781 l 0.67578,1.619141 h -2.15821 l -1.08007,-2.025391 c -0.135,-0.269999 -0.40579,-0.404531 -0.67579,-0.269531 -0.271,0.135 -0.40548,0.405781 -0.27148,0.675781 l 0.81055,1.619141 h -2.69922 z"
       transform="translate(209,300)"
       id="path58"
       inkscape:connector-curvature="0" /><path
       style="clip-rule:evenodd;fill:#c48b3b;fill-opacity:1;fill-rule:evenodd;stroke:none"
       d="m 98.470703,8.5039062 c -3.24,0 -5.939453,2.7004528 -5.939453,5.9394528 0,0.54 0.0017,1.079141 0.136719,1.619141 l 0.134765,0.269531 c 0.135,0.54 0.403594,1.081094 0.808594,1.621094 -0.405,0.54 -1.484687,0.540453 -2.429687,2.564453 h -9.853516 v 3.375 c 1.35,-0.54 2.968125,-0.946015 4.453125,-0.541016 0.405,0.405001 0.405078,0.945547 1.080078,0.810547 0.81,0.54 2.295703,3.13e-4 2.970703,0.945313 0.27,1.08 0.404375,2.29375 1.484375,2.96875 0,0.135 2.35e-4,0.271015 -0.134765,0.541016 -1.62,0.134999 -5.128985,1.485781 -6.208985,0.675781 -0.541,0.81 -2.159297,1.753906 -3.779297,1.753906 v 4.050781 c -0.54,0.944 -0.945625,1.752969 -1.890625,2.292969 -2.159,1.35 -4.048906,3.914688 -5.128906,5.804687 -0.54,0.945001 -2.564141,4.588907 -1.61914,8.503907 0.674999,-0.945 1.484453,-2.565 2.564453,-3.375 0,0 -0.134454,4.32 0.810547,6.75 0.269,0.674 0.538359,1.213906 0.943359,1.753906 H 82.8125 c -1.62,-0.944 -3.103828,-2.699375 -4.048828,-4.859375 -0.675,-1.349 -1.081485,-3.104297 -0.271484,-3.779297 0.405,-0.54 1.21664,0.405781 2.43164,0.675781 v 2.025391 h 13.632813 c 0.675,0.405 0.269531,1.350156 0.269531,2.160156 -0.404,1.619 -1.483516,2.967344 -3.103516,3.777344 h 13.091794 l -0.13476,-0.134766 c -1.485,-0.81 -2.83524,-2.835078 -3.24024,-4.455078 -0.135,-0.405 -0.404,-0.675078 0,-1.080078 h 4.18555 c 0.405,1.755 1.48437,3.779922 1.48438,5.669922 h 1.35156 c -0.271,-1.62 -1.48563,-4.455922 -1.89063,-5.669922 h 8.77344 c 0,0 -0.13623,-1.483672 0.13477,-1.888672 0.674,-0.54 2.15945,-1.216015 2.56445,-0.541015 0.404,2.43 -1.48578,6.209609 -4.05078,8.099609 h 5.53515 c 0.811,-1.485 1.35163,-3.238672 1.89063,-5.263672 0.136,-0.81 -10e-4,-2.025391 0.26953,-2.025391 0.675,0.945001 1.88992,3.105547 2.29492,4.185547 1.753,-6.074 -2.69959,-14.174218 -7.55859,-16.199218 -0.944,-0.135 -0.94531,-1.34961 -0.94531,-1.34961 v -4.318359 c 0,0 -2.56554,-1.484922 -3.64454,-2.294922 -2.566,1.35 -6.20953,-2.564063 -10.39453,-0.539062 -0.404,0 -0.54101,-0.405782 -0.54101,-0.675782 1.216,-1.755 4.59054,-3.239531 7.56054,-3.644531 0.945,-0.27 2.15993,0.269219 2.29493,-0.675781 1.484,-1.215 3.50937,-0.135235 4.85937,0.134765 v -3.644531 h -14.03906 c 0,0 -0.53906,-0.269062 -0.53906,-0.539062 2.025,-1.08 3.50976,-3.105157 3.50976,-5.535157 0,-3.239 -2.70022,-5.9394528 -6.074217,-5.9394528 z m 0,3.7792968 c 1.215,0 2.294917,0.946156 2.294917,2.160156 0,1.215 -1.079917,2.294922 -2.294917,2.294922 -1.216,0 -2.160156,-1.079922 -2.160156,-2.294922 0,-1.214 0.944156,-2.160156 2.160156,-2.160156 z m -4.587891,6.478516 c 0.405001,0 0.67336,0.272015 0.94336,0.541015 0.403,0.271 0.945312,0.676079 0.945312,1.080078 h -3.509765 c 0,-0.675 1.216093,-1.621093 1.621093,-1.621093 z m -2.566406,6.617187 c 1.62,0.404 3.240078,1.348266 4.455078,2.697266 0,0.27 4.69e-4,0.404062 -0.269531,0.539062 -1.35,-0.54 -3.510016,0.407579 -3.916015,-1.482422 0,-0.675 -0.944532,-1.079906 -0.269532,-1.753906 z M 103.625,29.001953 c 3.25761,-0.07541 5.49133,2.018828 7.5332,1.369141 l 0.53907,0.269531 v 15.658203 c -0.404,0.54 -0.80961,0.945313 -1.34961,0.945313 -3.104,-0.135 -5.12914,-2.295625 -8.36914,-1.890625 -1.08,0.27 -2.293051,0.405781 -3.373051,0.675781 L 98.470703,45.759766 V 30.910156 C 100.4532,29.517969 102.14427,29.03623 103.625,29.001953 Z m -10.570312,0.03516 c 1.872874,-0.05063 3.661453,0.388047 4.876953,1.873047 v 14.84961 c -0.54,0.54 -1.21586,-0.136719 -1.75586,-0.136719 -2.16,-0.81 -4.455234,-0.26875 -6.615234,0.40625 -1.214,0.54 -2.698828,0.673828 -4.048828,0.673828 -0.271,-0.135 -0.404063,-0.269062 -0.539063,-0.539063 V 30.236328 c 0.81,-0.54 1.753219,0.135234 2.699219,-0.134766 1.552,-0.472499 3.509938,-1.013828 5.382813,-1.064453 z m 19.373042,1.679688 c 0.41731,-0.04799 0.65525,0.498125 0.89063,0.734375 v 17.007812 c -0.405,-0.405 -0.54008,-1.483437 -1.08008,-2.023437 v -15.66016 c 0.0675,-0.03375 0.12984,-0.05174 0.18945,-0.05859 z M 83.8125,30.878906 c 0.161367,0.01028 0.3325,0.100235 0.484375,0.302735 v 15.117187 c -0.54,0.135 -0.675078,1.079375 -1.080078,1.484375 V 46.433594 31.316406 c 0.08437,-0.253125 0.326758,-0.454638 0.595703,-0.4375 z m -1.6875,0.470703 c 0.158203,-0.01582 0.316719,0.03578 0.417969,0.238282 v 17.68164 h 12.6875 c 0.27,0 0.269531,0.403828 0.269531,0.673828 -0.27,0.135 -0.269063,0.27125 -0.539062,0.40625 H 81.732422 L 81.597656,31.587891 c 0,0 0.263672,-0.211914 0.527344,-0.238282 z m 32.01953,0.328125 c 0.34817,0.02584 0.6582,0.853516 0.6582,0.853516 v 17.953125 h -13.49804 c -0.27,-0.135 -0.53907,-0.540313 -0.53907,-0.945313 l 0.26954,-0.134765 h 12.95898 V 31.720703 c 0.0505,-0.03375 0.10065,-0.04666 0.15039,-0.04297 z m -33.222655,5.441407 0.134766,1.216797 -0.134766,8.638671 c 0,0 -2.16,-4.321468 0,-9.855468 z m 34.421875,0.541015 c 2.295,5.534 0,9.853516 0,9.853516 v -8.503906 z m -21.330078,8.134766 c 1.931064,0.09624 3.090469,0.739453 3.511719,0.908203 -0.135,0.945 -0.946328,1.620391 -1.486329,2.025391 h -12.6875 c 0.540001,-0.405 0.675079,-1.348907 1.080079,-1.753907 1.755,0.405 3.240625,0.133985 5.265625,-0.541015 1.720875,-0.556875 3.157767,-0.696416 4.316406,-0.638672 z m 8.457028,0.03125 c 1.29925,-0.03375 2.61558,0.202187 3.83008,0.742187 2.024,0.945 4.31797,1.756016 5.66797,0.541016 0.405,0.27 0.40484,1.215391 1.21484,2.025391 h -12.82421 c -0.944005,-0.27 -1.484146,-1.486641 -1.619146,-2.431641 1.1475,-0.54 2.431216,-0.843203 3.730466,-0.876953 z m -4.388669,1.992187 c 0.320625,-0.03375 0.658953,0.235157 1.064453,0.910157 0.54,1.214 -0.271078,1.486328 -1.080078,1.486328 -0.54,0 -1.485312,-0.541328 -0.945312,-1.486328 0.337,-0.54 0.640312,-0.876407 0.960937,-0.910157 z m -1.78125,2.095703 c 0.08648,0.01266 0.178047,0.06281 0.279297,0.164063 0.405,0.405 0.945563,0.675781 1.351563,0.675781 1.079,0.405 1.888501,-1.62172 2.562499,-0.136718 0.27,0.81 -0.675077,0.946562 -1.080078,1.351562 -0.944,0.405 -1.753498,0.405 -2.5625,0 -0.54,-0.405 -1.484843,-0.541328 -1.214843,-1.486328 0.2025,-0.30375 0.404609,-0.606327 0.664062,-0.56836 z"
       transform="translate(209,300)"
       id="path60"
       inkscape:connector-curvature="0" /><path
       d="m 313.949,385.309 c 0,-3.239 2.565,-5.804 5.805,-5.804 3.24,0 5.805,2.565 5.805,5.804 0,3.105 -2.565,5.805 -5.805,5.805 -3.24,0 -5.805,-2.7 -5.805,-5.805 z m 2.43,0 c 0,-1.89 1.485,-3.51 3.375,-3.51 1.89,0 3.51,1.62 3.51,3.51 0,1.89 -1.62,3.375 -3.51,3.375 -1.89,0 -3.375,-1.485 -3.375,-3.375 z"
       id="path94"
       inkscape:connector-curvature="0"
       style="clip-rule:evenodd;fill:#c48b3b;fill-opacity:1;fill-rule:evenodd" /><path
       d="m 328.258,385.309 c 0,-3.239 2.564,-5.804 5.804,-5.804 3.24,0 5.805,2.565 5.805,5.804 0,3.105 -2.564,5.805 -5.805,5.805 -3.24,0 -5.804,-2.7 -5.804,-5.805 z m 2.43,0 c 0,-1.89 1.484,-3.51 3.374,-3.51 1.89,0 3.51,1.62 3.51,3.51 0,1.89 -1.62,3.375 -3.51,3.375 -1.89,0 -3.374,-1.485 -3.374,-3.375 z"
       id="path96"
       inkscape:connector-curvature="0"
       style="clip-rule:evenodd;fill:#c48b3b;fill-opacity:1;fill-rule:evenodd" /><path
       d="m 292.082,433.902 h 0.675 v 1.486 h -0.675 z m 1.35,0 1.89,1.891 v 2.699 l -2.16,-2.834 v -1.756 z m 10.934,0 h 0.945 v 0.541 h -0.945 z m 14.308,0 c -0.135,0.135 -0.135,0.271 -0.27,0.406 h -12.689 v -0.406 z m -9.044,7.289 c 0,2.025 1.755,3.645 3.779,3.645 2.025,0 3.645,-1.619 3.645,-3.645 0,-2.158 -1.619,-3.779 -3.645,-3.779 -2.024,0 -3.779,1.621 -3.779,3.779 z m -0.81,0 c 0,-2.564 2.024,-4.588 4.589,-4.588 2.43,0 4.59,2.023 4.59,4.588 0,2.43 -2.16,4.455 -4.59,4.455 -2.564,0 -4.589,-2.025 -4.589,-4.455 z m -14.308,0.541 c 0,-1.754 1.35,-3.105 3.104,-3.105 1.755,0 3.105,1.352 3.105,3.105 0,1.753 -1.35,3.104 -3.105,3.104 -1.754,0 -3.104,-1.35 -3.104,-3.104 z m 13.093,-1.484 c 0.27,0.404 0.54,0.674 0.944,0.943 0,0.271 0,0.676 0.136,0.945 -0.811,-0.404 -1.485,-1.08 -1.891,-1.889 h 0.811 z m -14.308,0 c 0.135,0.539 0.54,0.943 0.945,1.215 0,0.135 0,0.135 0,0.27 v 0.135 c -0.675,-0.27 -1.215,-0.945 -1.35,-1.619 h 0.405 z m 15.658,-1.215 h -13.229 v -4.32 h 23.082 v 0.811 h -0.675 v 3.51 h -0.405 c -0.135,-0.541 -0.54,-0.945 -0.944,-1.352 v -2.158 h -20.383 v 2.699 h 12.958 c -0.134,0.269 -0.269,0.539 -0.404,0.81 z m -11.608,-3.105 c 0.135,0 0.405,0.404 0.405,0.945 v 0.27 c 0,0.404 -0.27,0.811 -0.405,0.811 -0.27,0 -0.54,-0.406 -0.54,-0.811 v -0.27 c 0,-0.541 0.27,-0.945 0.54,-0.945 z m 1.349,0 c 0.27,0 0.405,0.404 0.405,0.945 v 0.27 c 0,0.404 -0.135,0.811 -0.405,0.811 -0.27,0 -0.405,-0.406 -0.405,-0.811 v -0.27 c 10e-4,-0.541 0.135,-0.945 0.405,-0.945 z m 1.485,0 c 0.27,0 0.405,0.404 0.405,0.945 v 0.27 c 0,0.404 -0.135,0.811 -0.405,0.811 -0.27,0 -0.54,-0.406 -0.54,-0.811 v -0.27 c 0,-0.541 0.27,-0.945 0.54,-0.945 z m 1.35,0 c 0.27,0 0.54,0.404 0.54,0.945 v 0.27 c 0,0.404 -0.27,0.811 -0.54,0.811 -0.135,0 -0.405,-0.406 -0.405,-0.811 v -0.27 c 0,-0.541 0.27,-0.945 0.405,-0.945 z m 1.485,0 c 0.27,0 0.405,0.404 0.405,0.945 v 0.27 c 0,0.404 -0.135,0.811 -0.405,0.811 -0.271,0 -0.405,-0.406 -0.405,-0.811 v -0.27 c 0,-0.541 0.135,-0.945 0.405,-0.945 z m 1.484,0 c 0.135,0 0.405,0.404 0.405,0.945 v 0.27 c 0,0.404 -0.27,0.811 -0.405,0.811 -0.27,0 -0.54,-0.406 -0.54,-0.811 v -0.27 c 0,-0.541 0.27,-0.945 0.54,-0.945 z m 1.351,0 c 0.27,0 0.404,0.404 0.404,0.945 v 0.27 c 0,0.404 -0.134,0.811 -0.404,0.811 -0.27,0 -0.405,-0.406 -0.405,-0.811 v -0.27 c -0.001,-0.541 0.135,-0.945 0.405,-0.945 z m 1.484,0 c 0.271,0 0.405,0.404 0.405,0.945 v 0.27 c 0,0.404 -0.135,0.811 -0.405,0.811 -0.27,0 -0.404,-0.406 -0.404,-0.811 v -0.27 c 0,-0.541 0.134,-0.945 0.404,-0.945 z m 1.351,0 c 0.27,0 0.539,0.404 0.539,0.945 v 0.27 c 0,0.404 -0.27,0.811 -0.539,0.811 -0.136,0 -0.405,-0.406 -0.405,-0.811 v -0.27 c -0.001,-0.541 0.269,-0.945 0.405,-0.945 z m 1.484,0 c 0.27,0 0.405,0.404 0.405,0.945 v 0.135 c -0.271,0.135 -0.54,0.404 -0.811,0.674 0,-0.135 0,-0.404 0,-0.539 v -0.27 c 10e-4,-0.541 0.135,-0.945 0.406,-0.945 z m -10.124,3.51 h 8.774 c -0.135,0.27 -0.271,0.541 -0.271,0.811 h -7.964 c -0.134,-0.27 -0.269,-0.542 -0.539,-0.811 z m -6.749,0 h 1.89 c -0.135,0.27 -0.54,0.541 -0.54,0.811 h -1.35 l -2.294,-3.375 v -0.676 z m -0.81,-3.78 2.7,3.375 h -1.755 l -2.159,-2.971 c 0,0 -0.27,-0.404 0.27,-0.404 z m -6.344,4.184 4.994,-1.619 c 0.405,-0.27 0.945,0.539 0.54,0.676 l -5.264,1.754 c -0.405,0.135 -0.811,0.135 -0.945,-0.135 0,-0.27 0.27,-0.539 0.675,-0.676 z m 8.909,1.89 c 0,1.35 1.215,2.564 2.564,2.564 1.35,0 2.565,-1.215 2.565,-2.564 0,-1.349 -1.215,-2.564 -2.565,-2.564 -1.349,0 -2.564,1.215 -2.564,2.564 z m 2.159,0 c 0,0.27 0.135,0.404 0.405,0.404 0.27,0 0.405,-0.135 0.405,-0.404 0,-0.269 -0.135,-0.406 -0.405,-0.406 -0.269,0 -0.405,0.137 -0.405,0.406 z m 0.54,-2.294 c 0.135,0 0.27,0.404 0.27,0.811 -0.135,0.539 -0.27,0.943 -0.405,0.943 -0.135,0 -0.27,-0.404 -0.27,-0.943 0.135,-0.407 0.27,-0.811 0.405,-0.811 z m 1.621,0.81 c 0,0.135 -0.135,0.404 -0.54,0.809 -0.271,0.27 -0.675,0.406 -0.81,0.27 -0.135,-0.135 0.135,-0.404 0.405,-0.809 0.405,-0.27 0.809,-0.405 0.945,-0.27 z m 0.539,1.619 c 0,0.135 -0.405,0.27 -0.81,0.27 -0.54,0 -0.945,-0.135 -0.945,-0.404 0,-0.135 0.405,-0.27 0.945,-0.135 0.405,0 0.81,0.134 0.81,0.269 z m -0.81,1.619 c -0.135,0.135 -0.405,-0.135 -0.81,-0.404 -0.27,-0.404 -0.405,-0.811 -0.27,-0.945 0,0 0.405,0.135 0.675,0.541 0.405,0.404 0.54,0.674 0.405,0.808 z m -1.89,0.541 c -0.135,0 -0.135,-0.406 -0.135,-0.945 0.135,-0.404 0.27,-0.811 0.405,-0.811 0.27,0.135 0.27,0.541 0.135,0.945 0,0.542 -0.269,0.811 -0.405,0.811 z m -1.484,-0.81 c 0,-0.135 0.135,-0.404 0.54,-0.811 0.405,-0.27 0.675,-0.404 0.81,-0.27 0.135,0.135 -0.135,0.406 -0.405,0.676 -0.405,0.405 -0.81,0.54 -0.945,0.405 z m -0.405,-1.754 c 0,-0.137 0.405,-0.271 0.81,-0.137 0.54,0 0.81,0.137 0.81,0.406 0,0.135 -0.405,0.135 -0.81,0.135 -0.54,0 -0.945,-0.269 -0.81,-0.404 z m 0.675,-1.484 c 0.135,-0.137 0.54,0.135 0.81,0.404 0.405,0.404 0.54,0.809 0.405,0.943 -0.135,0 -0.54,-0.135 -0.81,-0.539 -0.27,-0.269 -0.405,-0.674 -0.405,-0.808 z m 17.008,1.078 c 0,0.406 0.135,0.541 0.54,0.541 0.27,0 0.539,-0.135 0.539,-0.541 0,-0.27 -0.27,-0.539 -0.539,-0.539 -0.405,0 -0.54,0.269 -0.54,0.539 z m 0.54,-3.375 c 0.27,0 0.404,0.676 0.404,1.352 0,0.674 -0.27,1.215 -0.404,1.215 -0.271,0 -0.405,-0.541 -0.405,-1.215 0,-0.811 0.269,-1.352 0.405,-1.352 z m 2.43,1.216 c 0.135,0.135 -0.136,0.674 -0.676,1.08 -0.539,0.539 -1.079,0.809 -1.215,0.539 -0.135,-0.135 0.136,-0.676 0.676,-1.08 0.539,-0.539 1.079,-0.675 1.215,-0.539 z m 0.809,2.428 c 0,0.271 -0.54,0.406 -1.215,0.406 -0.675,-0.135 -1.215,-0.27 -1.215,-0.541 0,-0.27 0.54,-0.404 1.215,-0.404 0.675,0.135 1.35,0.27 1.215,0.539 z m -1.215,2.295 c -0.135,0.137 -0.675,-0.135 -1.08,-0.674 -0.405,-0.541 -0.675,-1.08 -0.54,-1.215 0.135,-0.135 0.675,0.135 1.215,0.674 0.405,0.541 0.675,1.08 0.405,1.215 z m -2.699,0.811 c -0.136,0 -0.271,-0.674 -0.136,-1.35 0.136,-0.676 0.405,-1.215 0.54,-1.08 0.271,0 0.405,0.541 0.271,1.215 -0.136,0.81 -0.405,1.215 -0.675,1.215 z m -2.16,-1.215 c -0.135,-0.135 0.27,-0.674 0.81,-1.08 0.54,-0.404 1.08,-0.674 1.215,-0.539 0.136,0.27 -0.135,0.674 -0.675,1.215 -0.54,0.404 -1.081,0.673 -1.35,0.404 z m -0.675,-2.43 c 0,-0.27 0.675,-0.404 1.35,-0.27 0.675,0 1.215,0.27 1.215,0.539 0,0.269 -0.675,0.27 -1.35,0.27 -0.675,-0.135 -1.215,-0.269 -1.215,-0.539 z m 1.215,-2.295 c 0.135,-0.135 0.675,0.27 1.08,0.811 0.404,0.404 0.675,1.08 0.54,1.215 -0.136,0.135 -0.676,-0.27 -1.216,-0.676 -0.404,-0.539 -0.675,-1.08 -0.404,-1.35 z"
       id="path98"
       inkscape:connector-curvature="0"
       style="clip-rule:evenodd;fill:#c48b3b;fill-opacity:1;fill-rule:evenodd" /><path
       d="m 292.082,433.902 v -1.619 h 9.584 v -3.24 c 0,0 -0.135,-1.619 1.755,-1.619 1.755,0.135 1.89,1.619 1.89,1.754 v 4.725 h -0.945 v -4.184 c 0,-0.541 0,-1.484 -1.215,-1.484 -0.54,0 -0.81,0.404 -0.81,0.809 v 3.24 h 1.755 v 0.811 h -11.339 v 0.809 h -0.675 z m 1.08,0 v -0.135 l 0.27,0.135 z m 12.553,0 v -1.215 h 13.228 c -0.135,0.406 -0.135,0.811 -0.27,1.215 z m 12.014,-5.263 h -12.148 c -0.135,-0.539 -0.405,-1.08 -0.945,-1.215 h 11.879 c 0.404,0.269 0.944,0.676 1.214,1.215 z m 0.81,1.349 h -12.824 v -0.404 c 0,0 0,-0.27 0,-0.406 0,-0.135 0,-0.27 0,-0.404 h 12.149 c 0.27,0.404 0.54,0.81 0.675,1.214 z m 0.27,1.08 h -13.093 v -0.811 h 12.958 c 0,0.272 0.135,0.542 0.135,0.811 z m 0.134,1.215 h -13.228 v -0.945 h 13.228 c 0,0.271 0,0.541 0,0.676 0,0.135 0,0.269 0,0.269 z"
       id="path100"
       inkscape:connector-curvature="0"
       style="clip-rule:evenodd;fill:#c48b3b;fill-opacity:1;fill-rule:evenodd" /><path
       d="m 320.698,402.182 c 0,-3.238 2.7,-5.804 5.805,-5.804 3.239,0 5.805,2.565 5.805,5.804 0,3.24 -2.565,5.805 -5.805,5.805 -3.105,-0.001 -5.805,-2.565 -5.805,-5.805 z m 2.43,0 c 0,-1.889 1.485,-3.51 3.375,-3.51 1.89,0 3.51,1.621 3.51,3.51 0,1.891 -1.62,3.375 -3.51,3.375 -1.89,0 -3.375,-1.485 -3.375,-3.375 z"
       id="path102"
       inkscape:connector-curvature="0"
       style="clip-rule:evenodd;fill:#c48b3b;fill-opacity:1;fill-rule:evenodd" /><path
       d="m 276.02,402.316 c -0.945,1.08 -1.89,1.891 -1.89,2.025 -0.54,0.539 -0.81,-0.404 -0.81,-1.08 0.135,-0.404 0.135,-0.674 0.27,-0.945 z m 7.153,0 c 0,0.137 0,0.137 0,0.271 0.135,0.539 0.27,0.943 0,1.215 -0.405,0.27 -0.54,0.27 -1.215,0.27 -0.675,0 -1.755,0 -2.565,0 -0.81,0 -1.35,0 -1.62,0 -0.404,0 -0.81,0 -0.944,-0.135 0,-0.271 -0.27,-0.811 0,-1.215 0,-0.135 0.135,-0.27 0.135,-0.406 z m 0.81,0 c 0.945,1.08 1.889,1.891 1.889,2.025 0.541,0.539 0.811,-0.404 0.811,-1.08 -0.135,-0.404 -0.135,-0.674 -0.27,-0.945 z m 5.669,0 c -0.945,1.08 -1.755,1.891 -1.89,2.025 -0.54,0.539 -0.81,-0.404 -0.675,-1.08 0,-0.404 0,-0.674 0.135,-0.945 z m 7.155,0 c 0.135,0.137 0.135,0.137 0.135,0.271 0,0.539 0.135,0.943 -0.135,1.215 -0.27,0.27 -0.54,0.27 -1.215,0.27 -0.675,0 -1.62,0 -2.43,0 -0.81,0 -1.349,0 -1.754,0 -0.27,0 -0.81,0 -0.81,-0.135 -0.135,-0.271 -0.27,-0.811 -0.135,-1.215 0.135,-0.135 0.135,-0.27 0.27,-0.406 z m 0.944,0 c 0.81,1.08 1.755,1.891 1.89,2.025 0.54,0.539 0.675,-0.404 0.675,-1.08 0,-0.404 -0.135,-0.674 -0.135,-0.945 z m -6.209,6.481 c 0.405,-0.406 0.54,-0.945 0.135,-1.215 -0.54,-0.676 -0.675,-0.811 -1.215,-1.35 -0.135,-0.135 -0.675,-0.676 -0.135,-1.08 0.675,-0.406 0,-0.945 -0.271,-0.676 -0.54,0.27 -0.675,0.676 -0.81,0.811 -0.405,0.27 0.135,0.674 0.27,0.945 0.405,0.674 1.485,1.619 1.35,1.889 -0.135,0.135 -0.405,0.27 -0.405,0.539 -0.133,0.541 0.541,0.676 1.081,0.137 z m -2.294,-0.406 c 0.54,-0.404 0.945,-0.809 0.54,-1.215 -0.54,-0.539 -0.675,-0.809 -1.215,-1.215 -0.404,-0.539 0.675,-1.215 1.08,-1.754 0.54,-0.676 0,-1.08 -0.54,-0.541 -0.54,0.406 -1.215,1.215 -1.35,1.486 -0.54,0.539 -0.135,1.08 0.135,1.35 0.54,0.404 0.945,0.809 0.675,1.08 -0.135,0.135 -0.27,0.27 -0.27,0.404 0,0.539 0.675,0.674 0.945,0.405 z m 6.479,0.406 c -0.405,-0.406 -0.405,-0.945 0,-1.215 0.54,-0.676 0.675,-0.811 1.08,-1.35 0.135,-0.135 0.81,-0.676 0.135,-1.08 -0.675,-0.406 0.135,-0.945 0.405,-0.676 0.405,0.27 0.675,0.676 0.81,0.811 0.27,0.27 -0.135,0.674 -0.405,0.945 -0.405,0.674 -1.485,1.619 -1.215,1.889 0.135,0.135 0.405,0.27 0.405,0.539 0.135,0.541 -0.675,0.676 -1.215,0.137 z m 2.429,-0.406 c -0.54,-0.404 -0.945,-0.809 -0.54,-1.215 0.54,-0.539 0.675,-0.809 1.215,-1.215 0.405,-0.539 -0.675,-1.215 -1.215,-1.754 -0.54,-0.676 0.135,-1.08 0.675,-0.541 0.54,0.406 1.215,1.215 1.35,1.486 0.405,0.539 0.135,1.08 -0.135,1.35 -0.54,0.404 -0.945,0.809 -0.675,1.08 0.135,0.135 0.135,0.27 0.27,0.404 0,0.539 -0.675,0.674 -0.945,0.405 z m -5.399,-3.914 h 1.62 c 0.54,0 0.675,0 1.08,0 0.405,0 0.675,0.135 0.81,0.27 0.135,0 0.27,0.541 0.27,0.811 -0.135,0.135 -0.27,0.541 -0.54,0.541 -0.27,0.135 -0.945,0 -1.484,0 -0.405,0 -1.62,0 -1.89,0 -0.27,0 -0.81,0.135 -1.08,0.135 -0.27,-0.135 -0.674,-0.541 -0.674,-0.811 0,-0.27 0.135,-0.811 0.674,-0.811 0.404,-0.135 1.214,-0.135 1.214,-0.135 z m -0.27,2.294 c 0,0 0.54,0 1.35,0 0.675,0 0.81,-0.135 1.215,0 0.27,0 0.405,0.135 0.405,0.27 0.135,0.27 -0.135,0.541 -0.405,0.811 -0.27,0.135 -0.81,0.674 -1.08,0.809 -0.135,0 -0.675,0.137 -0.811,0 -0.135,-0.27 -0.674,-0.943 -0.945,-1.078 -0.539,-0.677 0.271,-0.812 0.271,-0.812 z m -14.578,2.026 c 0.405,-0.406 0.405,-0.945 0.135,-1.215 -0.54,-0.676 -0.674,-0.811 -1.214,-1.35 -0.135,-0.135 -0.675,-0.676 -0.135,-1.08 0.675,-0.406 0,-0.945 -0.405,-0.676 -0.405,0.27 -0.675,0.676 -0.675,0.811 -0.405,0.27 0,0.674 0.27,0.945 0.405,0.674 1.485,1.619 1.215,1.889 -0.135,0.135 -0.27,0.27 -0.27,0.539 -0.136,0.541 0.539,0.676 1.079,0.137 z m -2.295,-0.406 c 0.405,-0.404 0.81,-0.809 0.54,-1.215 -0.54,-0.539 -0.81,-0.809 -1.215,-1.215 -0.405,-0.539 0.54,-1.215 1.08,-1.754 0.54,-0.676 -0.135,-1.08 -0.675,-0.541 -0.54,0.406 -1.08,1.215 -1.35,1.486 -0.405,0.539 0,1.08 0.27,1.35 0.405,0.404 0.944,0.809 0.675,1.08 -0.135,0.135 -0.27,0.27 -0.27,0.404 -0.135,0.539 0.675,0.674 0.945,0.405 z m 6.479,0.406 c -0.405,-0.406 -0.405,-0.945 -0.135,-1.215 0.54,-0.676 0.81,-0.811 1.215,-1.35 0.135,-0.135 0.675,-0.676 0.135,-1.08 -0.675,-0.406 0,-0.945 0.405,-0.676 0.405,0.27 0.675,0.676 0.675,0.811 0.405,0.27 0,0.674 -0.27,0.945 -0.405,0.674 -1.485,1.619 -1.215,1.889 0.135,0.135 0.27,0.27 0.405,0.539 0,0.541 -0.675,0.676 -1.215,0.137 z m 2.295,-0.406 c -0.405,-0.404 -0.81,-0.809 -0.405,-1.215 0.54,-0.539 0.675,-0.809 1.08,-1.215 0.54,-0.539 -0.54,-1.215 -1.08,-1.754 -0.54,-0.676 0.135,-1.08 0.675,-0.541 0.54,0.406 1.08,1.215 1.35,1.486 0.405,0.539 0,1.08 -0.27,1.35 -0.405,0.404 -0.945,0.809 -0.675,1.08 0.135,0.135 0.27,0.27 0.27,0.404 0.135,0.539 -0.675,0.674 -0.945,0.405 z m -5.264,-3.914 h 1.62 c 0.405,0 0.675,0 1.08,0 0.405,0 0.675,0.135 0.81,0.27 0.135,0 0.27,0.541 0.135,0.811 0,0.135 -0.27,0.541 -0.405,0.541 -0.271,0.135 -0.945,0 -1.485,0 -0.405,0 -1.62,0 -1.89,0 -0.405,0 -0.81,0.135 -1.08,0.135 -0.27,-0.135 -0.81,-0.541 -0.675,-0.811 0,-0.27 0.135,-0.811 0.54,-0.811 0.54,-0.135 1.35,-0.135 1.35,-0.135 z m -0.27,2.294 c 0,0 0.54,0 1.214,0 0.81,0 0.945,-0.135 1.215,0 0.405,0 0.54,0.135 0.54,0.27 0,0.27 -0.271,0.541 -0.54,0.811 -0.27,0.135 -0.675,0.674 -0.945,0.809 -0.135,0 -0.81,0.137 -0.945,0 -0.135,-0.27 -0.54,-0.943 -0.81,-1.078 -0.674,-0.677 0.271,-0.812 0.271,-0.812 z"
       id="path104"
       inkscape:connector-curvature="0"
       style="clip-rule:evenodd;fill:#c48b3b;fill-opacity:1;fill-rule:evenodd" /><path
       d="m 273.995,395.298 c -0.135,0.27 -0.135,0.54 -0.135,1.08 0,3.104 -0.135,3.104 -0.27,3.509 0,0.406 0.405,1.08 1.35,-0.404 0.54,-0.676 1.485,-0.945 2.024,-0.676 0.54,0.137 0.945,-0.27 0.81,-0.809 -0.135,-0.945 -1.484,-1.215 -2.024,-2.7 0,0 0,0 0,-0.135 z m 3.239,0 c 0.135,0 0.135,0.27 0.405,0.405 0.27,0.27 0.541,0.675 0.541,0.945 0,0.27 -0.406,0.404 -0.541,0.27 -0.54,-0.945 -1.214,-1.215 -1.35,-1.62 z m 3.78,0 v 0 c 0.135,0.135 0.135,0.27 0.135,0.405 0,0.135 0,0.135 0,0.135 l 0.135,0.135 c 0.135,0 0.27,-0.135 0.27,-0.135 0.271,0 0.405,0.135 0.405,0.405 0,0.27 -0.135,0.406 -0.405,0.406 -0.135,0 -0.27,-0.271 -0.405,-0.406 -0.135,0 -0.135,0 -0.135,0 -0.135,0.135 -0.27,0.135 -0.27,0.27 -0.405,0.271 -0.135,0.54 0.135,0.54 0.81,0.27 1.35,0.945 1.35,1.754 0,0.945 -0.405,1.756 -2.16,1.756 -1.889,0 -2.025,-0.811 -2.025,-1.756 0,-0.809 0.675,-1.484 1.621,-1.754 0.135,0 0.27,-0.27 0,-0.404 0,0 -0.135,-0.136 -0.135,-0.271 -0.135,0 -0.135,0 -0.27,-0.135 0,0 0,0 -0.135,0 -0.135,0.135 -0.27,0.406 -0.405,0.406 -0.27,0 -0.27,-0.136 -0.27,-0.406 0,-0.27 0,-0.405 0.27,-0.405 0,0 0.135,0.135 0.27,0.135 0,0 0.135,0 0.135,-0.135 0,0 0,0 0,-0.135 0,-0.135 0.135,-0.27 0.135,-0.405 z m 1.889,0 c 0,0 0,0.27 -0.27,0.405 -0.27,0.27 -0.54,0.81 -0.54,1.08 0,0.27 0.405,0.404 0.54,0.135 0.54,-0.945 1.35,-1.08 1.35,-1.62 z m 3.375,0 c 0.135,0.27 0.135,0.675 0.135,1.08 0,3.239 0.135,3.104 0.27,3.509 0,0.541 -0.405,1.215 -1.485,-0.27 -0.405,-0.674 -1.35,-0.945 -2.024,-0.811 -0.405,0.271 -0.81,-0.135 -0.675,-0.674 0,-0.945 1.485,-1.35 2.025,-2.835 v 0 h 1.754 z m 1.35,0 c 0,0.27 -0.135,0.54 -0.135,1.08 0,3.104 -0.135,3.104 -0.135,3.509 -0.135,0.406 0.27,1.08 1.35,-0.404 0.405,-0.676 1.35,-0.945 2.025,-0.676 0.405,0.137 0.81,-0.27 0.81,-0.809 -0.135,-0.945 -1.485,-1.215 -2.16,-2.7 0,0 0,0 0,-0.135 z m 3.374,0 c 0,0 0.135,0.27 0.27,0.405 0.27,0.27 0.54,0.675 0.54,0.945 0.135,0.27 -0.405,0.404 -0.405,0.27 -0.675,-0.945 -1.35,-1.215 -1.485,-1.62 z m 3.645,0 v 0 c 0.135,0.135 0.135,0.27 0.135,0.405 0,0.135 0,0.135 0,0.135 0.135,0 0.135,0.135 0.135,0.135 0.135,0 0.27,-0.135 0.27,-0.135 0.27,0 0.405,0.135 0.405,0.405 0,0.27 -0.135,0.406 -0.27,0.406 -0.27,0 -0.27,-0.271 -0.54,-0.406 h -0.135 c -0.135,0.135 -0.135,0.135 -0.27,0.27 -0.27,0.271 0,0.54 0.135,0.54 0.81,0.27 1.35,0.945 1.35,1.754 0,0.945 -0.27,1.756 -2.025,1.756 -2.024,0 -2.16,-0.811 -2.16,-1.756 0,-0.809 0.675,-1.484 1.62,-1.754 0.27,0 0.405,-0.27 0.135,-0.404 0,0 -0.27,-0.136 -0.27,-0.271 -0.135,0 -0.135,0 -0.135,-0.135 -0.135,0 -0.135,0 -0.135,0 -0.27,0.135 -0.27,0.406 -0.54,0.406 -0.27,0 -0.27,-0.136 -0.27,-0.406 0,-0.27 0.135,-0.405 0.27,-0.405 0.135,0 0.135,0.135 0.27,0.135 0.135,0 0.135,0 0.27,-0.135 -0.135,0 -0.135,0 -0.135,-0.135 0,-0.135 0.135,-0.27 0.27,-0.405 z m 2.025,0 c 0,0 -0.135,0.27 -0.405,0.405 -0.27,0.27 -0.54,0.81 -0.54,1.08 0,0.27 0.405,0.404 0.54,0.135 0.675,-0.945 1.35,-1.08 1.35,-1.62 z m 3.239,0 c 0.135,0.27 0.135,0.675 0.135,1.08 0,3.239 0.271,3.104 0.271,3.509 0,0.541 -0.405,1.215 -1.35,-0.27 -0.54,-0.674 -1.485,-0.945 -2.025,-0.811 -0.405,0.271 -0.945,-0.135 -0.81,-0.674 0.135,-0.945 1.484,-1.35 2.024,-2.835 v 0 h 1.755 z m -26.322,7.018 c 0.135,-0.404 0.405,-0.674 0.675,-0.943 0.135,-0.137 0.27,-0.271 0.405,-0.271 0.135,0 0.135,0.135 0.54,0.135 0.405,0.137 0.945,-0.404 1.08,-0.539 0.135,-0.135 0.54,-0.676 0.81,-0.811 0.27,-0.135 0.944,-0.135 0.54,0.406 -0.27,0.539 -0.944,1.35 -1.619,2.023 z m 3.375,0 c 0.27,-0.404 0.405,-0.674 0.54,-0.809 0.27,-0.271 0.135,-0.676 1.08,-0.676 0.945,0 1.484,0.135 1.484,0.135 0,0 1.89,-0.135 2.16,0 0.27,0.135 0.81,0.811 0.945,1.35 z m 9.449,0 c -0.135,-0.404 -0.405,-0.674 -0.675,-0.943 -0.135,-0.137 -0.27,-0.271 -0.405,-0.271 -0.135,0 -0.135,0.135 -0.54,0.135 -0.405,0.137 -0.945,-0.404 -1.08,-0.539 -0.135,-0.135 -0.54,-0.676 -0.81,-0.811 -0.27,-0.135 -0.81,-0.135 -0.54,0.406 0.27,0.539 0.944,1.35 1.62,2.023 z m 0.81,0 c 0.135,-0.404 0.405,-0.674 0.81,-0.943 0,-0.137 0.135,-0.271 0.27,-0.271 0.135,0 0.135,0.135 0.675,0.135 0.27,0.137 0.81,-0.404 0.945,-0.539 0.135,-0.135 0.675,-0.676 0.945,-0.811 0.27,-0.135 0.81,-0.135 0.54,0.406 -0.405,0.539 -1.08,1.35 -1.755,2.023 z m 3.509,0 c 0.135,-0.404 0.27,-0.674 0.54,-0.809 0.135,-0.271 0.135,-0.676 0.944,-0.676 0.945,0 1.485,0.135 1.485,0.135 0,0 1.89,-0.135 2.16,0 0.27,0.135 0.81,0.811 0.945,1.35 z m 9.449,0 c -0.27,-0.404 -0.405,-0.674 -0.81,-0.943 0,-0.137 -0.271,-0.271 -0.271,-0.271 -0.135,0 -0.135,0.135 -0.675,0.135 -0.405,0.137 -0.81,-0.404 -0.945,-0.539 -0.135,-0.135 -0.675,-0.676 -0.945,-0.811 -0.27,-0.135 -0.81,-0.135 -0.54,0.406 0.405,0.539 1.08,1.35 1.755,2.023 z m -9.584,-2.699 c 0.271,-0.404 -0.27,-0.674 -0.675,-0.539 -0.405,0.135 -0.675,0.27 -0.945,0.674 -0.27,0.27 -0.54,0.811 -0.54,0.945 0.135,0.27 0.405,0.404 0.675,0.27 0.54,-0.404 0.81,-0.539 1.485,-1.35 z m 6.075,0 c -0.135,-0.404 0.405,-0.674 0.81,-0.539 0.405,0.135 0.675,0.27 0.945,0.674 0.27,0.27 0.54,0.811 0.405,0.945 0,0.27 -0.271,0.404 -0.54,0.27 -0.541,-0.404 -0.811,-0.539 -1.62,-1.35 z m -3.24,-2.969 c -0.135,-0.136 -0.135,-0.136 -0.135,-0.136 z m -16.468,2.969 c 0.27,-0.404 -0.27,-0.674 -0.81,-0.539 -0.405,0.135 -0.675,0.27 -0.945,0.674 -0.27,0.27 -0.405,0.811 -0.405,0.945 0,0.27 0.405,0.404 0.675,0.27 0.541,-0.404 0.81,-0.539 1.485,-1.35 z m 6.074,0 c -0.27,-0.404 0.27,-0.674 0.81,-0.539 0.405,0.135 0.675,0.27 0.945,0.674 0.27,0.27 0.405,0.811 0.405,0.945 0,0.27 -0.405,0.404 -0.674,0.27 -0.541,-0.404 -0.811,-0.539 -1.486,-1.35 z m -3.374,-2.969 c 0,-0.136 0,-0.136 0,-0.136 z"
       id="path106"
       inkscape:connector-curvature="0"
       style="clip-rule:evenodd;fill:#c48b3b;fill-opacity:1;fill-rule:evenodd" /><path
       d="m 281.553,388.144 c -0.27,0.405 -0.54,0.54 -0.54,0.54 -0.405,0.405 -0.675,0 -0.675,-0.405 z m 0.54,0 c -0.405,0.54 -0.945,1.215 -1.08,1.35 -0.54,0.54 -0.135,1.08 0.135,1.35 0.54,0.54 0.945,0.81 0.675,1.081 -0.135,0.135 -0.271,0.27 -0.271,0.54 0,0.54 0.675,0.54 0.945,0.27 0.54,-0.27 0.81,-0.81 0.54,-1.08 -0.54,-0.675 -0.674,-0.81 -1.214,-1.35 -0.405,-0.405 0.675,-1.215 1.08,-1.755 0.135,-0.135 0.27,-0.27 0.27,-0.27 z m 7.964,0 c -0.405,0.271 -0.54,0.405 -1.214,0.405 -0.674,0 -1.62,-0.135 -2.43,-0.135 -0.811,0 -1.35,0.135 -1.755,0.135 -0.27,0 -0.81,0 -0.81,-0.27 0,0 0,0 -0.135,-0.135 z m 1.62,0 c 0.54,0.54 1.08,1.215 1.215,1.35 0.405,0.54 0.135,1.08 -0.135,1.35 -0.54,0.54 -0.944,0.81 -0.81,1.081 0.135,0.135 0.27,0.27 0.27,0.54 0.135,0.54 -0.54,0.54 -0.944,0.27 -0.404,-0.27 -0.81,-0.81 -0.405,-1.08 0.54,-0.675 0.674,-0.81 1.214,-1.35 0.405,-0.405 -0.675,-1.215 -1.214,-1.755 -0.135,-0.135 -0.135,-0.27 -0.135,-0.27 z m 0.675,0 c 0.27,0.405 0.405,0.54 0.54,0.54 0.405,0.405 0.54,0 0.674,-0.405 z m -16.603,7.154 c -0.27,-0.81 -1.484,-1.755 -1.754,-0.135 z m 0.54,0 c 0,-0.27 0,-0.405 0.135,-0.54 0.135,-0.54 0.81,-1.08 1.214,-0.405 0.135,0.405 -0.405,0.54 -0.405,0.945 z m 2.97,0 c 0,-0.135 0.135,-0.135 0.135,-0.135 -0.135,-0.27 -0.27,-0.405 -0.405,-0.675 -0.135,-0.135 -0.54,-0.135 -0.54,-0.405 0,-0.405 0.27,-0.54 0.54,-0.54 0.27,0 0.54,0 0.54,0.27 0,0.135 -0.135,0.405 -0.135,0.54 0,0.135 0.135,0.405 0.271,0.54 0.135,0 0.27,-0.135 0.54,-0.135 0.135,0 0.27,0.135 0.405,0.135 0.135,-0.135 0.27,-0.27 0.405,-0.54 0,-0.135 -0.135,-0.405 -0.135,-0.54 0,-0.27 0.135,-0.27 0.54,-0.27 0.27,0 0.54,0.135 0.54,0.54 0,0.27 -0.405,0.27 -0.54,0.405 -0.135,0.271 -0.405,0.54 -0.405,0.675 z m 4.724,0 c 0,-0.135 0,-0.27 -0.135,-0.54 -0.135,-0.405 -0.81,-0.945 -1.215,-0.271 -0.135,0.405 0.27,0.405 0.27,0.81 h 1.08 z m 0.54,0 c 0.27,-0.675 1.484,-1.62 1.754,0 z m 4.859,0 c -0.27,-0.81 -1.485,-1.755 -1.754,-0.135 z m 0.54,0 c 0,-0.27 0,-0.405 0.135,-0.54 0.271,-0.54 0.811,-1.08 1.215,-0.405 0.27,0.405 -0.405,0.54 -0.27,0.945 z m 3.105,0 c 0,-0.135 0,-0.135 0,-0.135 -0.135,-0.27 -0.27,-0.405 -0.405,-0.675 -0.135,-0.135 -0.405,-0.135 -0.405,-0.405 0,-0.405 0.135,-0.54 0.54,-0.54 0.27,0 0.405,0 0.405,0.27 0,0.135 0,0.405 0,0.54 0,0.135 0.135,0.405 0.135,0.54 0.135,0 0.405,-0.135 0.54,-0.135 0.135,0 0.405,0.135 0.54,0.135 0.135,-0.135 0.27,-0.27 0.27,-0.54 0,-0.135 -0.135,-0.405 -0.135,-0.54 0,-0.27 0.27,-0.27 0.54,-0.27 0.27,0 0.54,0.135 0.54,0.54 0,0.27 -0.405,0.27 -0.54,0.405 -0.135,0.271 -0.27,0.54 -0.405,0.675 z m 4.589,0 c 0,-0.135 0,-0.27 -0.135,-0.54 -0.135,-0.405 -0.81,-0.945 -1.08,-0.271 -0.27,0.405 0.135,0.405 0.271,0.81 h 0.944 z m 0.54,0 c 0.405,-0.675 1.485,-1.62 1.755,0 z m -13.363,-2.025 c 0.405,-0.405 0.54,-0.945 0.135,-1.35 -0.54,-0.541 -0.675,-0.81 -1.215,-1.35 -0.135,-0.135 -0.675,-0.675 -0.135,-0.945 0.675,-0.54 0,-1.08 -0.27,-0.81 -0.54,0.405 -0.675,0.675 -0.81,0.81 -0.405,0.405 0.135,0.811 0.27,1.08 0.405,0.54 1.484,1.485 1.35,1.755 -0.135,0.135 -0.405,0.405 -0.405,0.54 -0.135,0.54 0.54,0.81 1.08,0.27 z m 4.185,0 c -0.405,-0.405 -0.405,-0.945 -0.135,-1.35 0.675,-0.541 0.81,-0.81 1.214,-1.35 0.135,-0.135 0.675,-0.675 0.135,-0.945 -0.675,-0.54 0,-1.08 0.405,-0.81 0.405,0.405 0.675,0.675 0.81,0.81 0.27,0.405 -0.135,0.811 -0.405,1.08 -0.405,0.54 -1.485,1.485 -1.215,1.755 0.135,0.135 0.405,0.405 0.405,0.54 0,0.54 -0.674,0.81 -1.214,0.27 z m -2.97,-4.319 h 1.62 c 0.54,0 0.675,0 1.08,0 0.405,0 0.675,0 0.81,0.135 0.135,0.135 0.27,0.675 0.27,0.81 -0.135,0.27 -0.27,0.54 -0.54,0.675 -0.27,0 -0.945,0 -1.485,0 -0.405,0 -1.62,0 -1.89,0 -0.27,0 -0.81,0.135 -1.08,0 -0.27,0 -0.675,-0.54 -0.675,-0.81 0,-0.27 0.135,-0.675 0.675,-0.81 0.405,0 1.215,0 1.215,0 z m -0.27,2.16 c 0,0 0.54,0.135 1.35,0 0.675,0 0.81,0 1.08,0 0.404,0.135 0.54,0.135 0.54,0.405 0.135,0.135 -0.135,0.405 -0.405,0.675 -0.27,0.27 -0.81,0.81 -1.08,0.81 -0.135,0.135 -0.675,0.135 -0.81,0 -0.135,-0.135 -0.675,-0.81 -0.945,-1.08 -0.54,-0.675 0.27,-0.81 0.27,-0.81 z"
       id="path108"
       inkscape:connector-curvature="0"
       style="clip-rule:evenodd;fill:#c48b3b;fill-opacity:1;fill-rule:evenodd" /><path
       d="m 280.744,381.125 c 0,2.835 -0.135,2.7 -0.27,3.104 0,0.541 0.405,1.215 1.485,-0.27 0.405,-0.675 1.35,-0.945 2.025,-0.81 0.405,0.135 0.81,-0.135 0.675,-0.675 0,-0.54 -0.405,-0.945 -0.945,-1.35 h -2.97 z m 4.319,0 c 0,0.271 -0.405,0.405 -0.54,0.135 v -0.135 z m 2.43,0 c 0,0.135 0.135,0.271 0.27,0.405 0.81,0.135 1.35,0.945 1.35,1.62 0,0.945 -0.27,1.755 -2.16,1.755 -1.89,0 -2.024,-0.81 -2.024,-1.755 0,-0.81 0.674,-1.485 1.62,-1.62 0.135,-0.135 0.27,-0.27 0.135,-0.405 z m 1.485,0 v 0 c 0,0.271 0.405,0.405 0.54,0.271 0,-0.135 0.135,-0.135 0.135,-0.271 z m 4.319,0 c 0,2.835 0.27,2.835 0.27,3.24 0,0.405 -0.405,1.08 -1.35,-0.27 -0.54,-0.81 -1.484,-1.08 -2.024,-0.81 -0.54,0.135 -0.945,-0.27 -0.81,-0.81 0,-0.54 0.54,-0.81 1.08,-1.35 z m -12.958,7.019 c 0,-0.135 0,-0.27 0,-0.54 0,-0.945 0.405,-1.35 0.81,-1.89 0.135,0 0.27,-0.135 0.405,-0.135 0.135,0 0.135,0 0.675,0.135 0.27,0 0.81,-0.405 0.945,-0.54 0.135,-0.135 0.54,-0.81 0.945,-0.81 0.27,-0.135 0.81,-0.135 0.54,0.27 -0.675,1.081 -2.294,2.7 -3.105,3.51 z m 2.834,0 c 0,-0.27 -0.405,-0.54 -0.945,-0.135 0,0.135 0,0.135 -0.135,0.135 z m 0.54,0 c 0,-0.135 -0.135,-0.675 0,-0.945 0.271,-0.54 0.54,-1.08 0.675,-1.35 0.27,-0.135 0.27,-0.54 1.08,-0.54 0.945,0 1.485,0 1.485,0 0,0 1.89,0 2.16,0.135 0.27,0.135 0.945,1.08 1.08,1.62 0,0.405 0.135,0.81 -0.135,1.08 0,0 0,0 0,0.135 z m 7.019,0 c -0.135,-0.27 0.405,-0.54 0.81,-0.135 0.135,0.135 0.135,0.135 0.135,0.135 z m 2.834,0 c 0,-0.135 0,-0.27 0,-0.54 -0.135,-0.945 -0.405,-1.35 -0.944,-1.89 0,0 -0.27,-0.135 -0.405,-0.135 0,0 -0.135,0 -0.54,0.135 -0.405,0 -0.81,-0.405 -0.945,-0.54 -0.135,-0.135 -0.675,-0.81 -0.945,-0.81 -0.27,-0.135 -0.81,-0.135 -0.54,0.27 0.54,1.081 2.16,2.7 3.104,3.51 z m -9.718,-4.185 c 0.27,-0.27 -0.27,-0.54 -0.675,-0.405 -0.54,0.135 -0.675,0.27 -0.945,0.54 -0.27,0.405 -0.54,0.945 -0.54,1.08 0.135,0.135 0.405,0.27 0.675,0.135 0.54,-0.269 0.81,-0.405 1.485,-1.35 z m 6.074,0 c -0.27,-0.27 0.405,-0.54 0.81,-0.405 0.405,0.135 0.675,0.27 0.945,0.54 0.27,0.405 0.54,0.945 0.405,1.08 0,0.135 -0.405,0.27 -0.54,0.135 -0.674,-0.269 -0.81,-0.405 -1.62,-1.35 z"
       id="path110"
       inkscape:connector-curvature="0"
       style="clip-rule:evenodd;fill:#c48b3b;fill-opacity:1;fill-rule:evenodd" /><path
       d="m 283.713,381.125 c -0.405,-0.405 -0.81,-0.81 -1.08,-1.485 -0.27,-0.675 -1.89,-2.024 -1.89,1.08 0,0.135 0,0.27 0,0.405 z m 0.81,0 c -0.811,-1.08 -1.62,-1.08 -1.215,-2.024 0.135,-0.405 0.81,-0.945 1.215,-0.27 0.27,0.54 -0.811,0.54 0,1.215 0.27,0.27 0.54,0.81 0.54,1.08 v 0 h -0.54 z m 2.16,0 c 0,0 0,-0.135 -0.135,-0.135 l -0.135,-0.135 c -0.135,0 -0.135,-0.135 -0.27,-0.135 v 0 c -0.271,0.135 -0.405,0.405 -0.541,0.405 -0.27,0 -0.27,-0.27 -0.27,-0.405 0,-0.27 0.135,-0.54 0.27,-0.54 0.135,0 0.135,0.135 0.27,0.135 0.135,0 0.135,0 0.135,0 v -0.135 c 0,-0.27 0.135,-0.405 0.27,-0.675 -0.135,-0.135 -0.27,-0.405 -0.405,-0.54 -0.135,-0.27 -0.405,-0.27 -0.405,-0.54 0,-0.271 0.135,-0.54 0.54,-0.54 0.27,0 0.405,0.135 0.405,0.405 0,0.135 0,0.27 0,0.405 0,0.27 0.135,0.405 0.135,0.675 0.135,-0.135 0.405,-0.135 0.54,-0.135 0.135,0 0.405,0 0.54,0.135 0.135,-0.135 0.27,-0.405 0.27,-0.675 0,-0.135 -0.135,-0.27 -0.135,-0.405 0,-0.27 0.27,-0.405 0.54,-0.405 0.27,0 0.54,0.27 0.54,0.54 0,0.27 -0.405,0.27 -0.54,0.54 -0.135,0.27 -0.27,0.54 -0.405,0.675 0.135,0.135 0.135,0.405 0.135,0.54 v 0.135 h 0.135 c 0.135,0 0.27,-0.135 0.27,-0.135 0.27,0 0.405,0.271 0.405,0.54 0,0.135 -0.135,0.405 -0.271,0.405 -0.27,0 -0.27,-0.27 -0.54,-0.405 0,0 -0.135,0 -0.135,-0.135 -0.135,0.135 -0.135,0.27 -0.27,0.405 -0.135,0 -0.135,0.135 -0.135,0.135 z m 2.969,0 c 0.675,-0.945 1.485,-1.08 1.08,-1.89 -0.135,-0.405 -0.81,-0.945 -1.215,-0.405 -0.27,0.54 0.945,0.54 0,1.35 -0.27,0.271 -0.54,0.675 -0.54,0.945 z m 0.81,0 c 0.27,-0.27 0.675,-0.674 0.945,-1.35 0.27,-0.81 1.89,-2.16 1.89,1.08 0,0.135 0,0.135 0,0.27 z m -3.914,-0.135 z"
       id="path112"
       inkscape:connector-curvature="0"
       style="clip-rule:evenodd;fill:#c48b3b;fill-opacity:1;fill-rule:evenodd" /><path
       d="m 311.38599,375.35127 v 33.60859 l 26.14891,17.78411 c -1.26547,3.22009 -2.81112,6.30116 -4.63903,9.24115 l -26.43115,-18.06317 -27.69662,17.22288 c -1.54668,-2.93999 -2.95278,-6.02003 -4.07763,-9.1011 l 27.27479,-16.66372 v -34.02874 z"
       id="path114"
       inkscape:connector-curvature="0"
       style="clip-rule:evenodd;fill:#c48b3b;fill-opacity:1;fill-rule:evenodd;stroke-width:1.03946698" /></g></svg>