<?xml version="1.0" encoding="UTF-8" standalone="no"?>
<!-- Created with Inkscape (http://www.inkscape.org/) -->

<svg
   xmlns:dc="http://purl.org/dc/elements/1.1/"
   xmlns:cc="http://creativecommons.org/ns#"
   xmlns:rdf="http://www.w3.org/1999/02/22-rdf-syntax-ns#"
   xmlns:svg="http://www.w3.org/2000/svg"
   xmlns="http://www.w3.org/2000/svg"
   xmlns:sodipodi="http://sodipodi.sourceforge.net/DTD/sodipodi-0.dtd"
   xmlns:inkscape="http://www.inkscape.org/namespaces/inkscape"
   version="1.1"
   id="svg2"
   xml:space="preserve"
   width="135"
   height="135"
   viewBox="0 0 134.99999 134.99999"
   sodipodi:docname="activity-mini-cricket.svg"
   inkscape:version="0.92.2 5c3e80d, 2017-08-06"><metadata
     id="metadata8"><rdf:RDF><cc:Work
         rdf:about=""><dc:format>image/svg+xml</dc:format><dc:type
           rdf:resource="http://purl.org/dc/dcmitype/StillImage" /><dc:title /></cc:Work></rdf:RDF></metadata><defs
     id="defs6"><clipPath
       clipPathUnits="userSpaceOnUse"
       id="clipPath340"><path
         d="m 4600,4842.26 c 0,-331.37 -268.63,-600 -600,-600 -331.37,0 -600,268.63 -600,600 0,331.37 268.63,600 600,600 331.37,0 600,-268.63 600,-600 z"
         id="path338"
         inkscape:connector-curvature="0" /></clipPath></defs><sodipodi:namedview
     pagecolor="#ffffff"
     bordercolor="#666666"
     borderopacity="1"
     objecttolerance="10"
     gridtolerance="10"
     guidetolerance="10"
     inkscape:pageopacity="0"
     inkscape:pageshadow="2"
     inkscape:window-width="1366"
     inkscape:window-height="742"
     id="namedview4"
     showgrid="false"
     inkscape:pagecheckerboard="true"
     fit-margin-top="5"
     fit-margin-left="5"
     fit-margin-bottom="5"
     fit-margin-right="5"
     inkscape:zoom="2.5031578"
     inkscape:cx="-134.61825"
     inkscape:cy="130.10486"
     inkscape:window-x="1920"
     inkscape:window-y="312"
     inkscape:window-maximized="1"
     inkscape:current-layer="g10" /><g
     id="g10"
     inkscape:groupmode="layer"
     inkscape:label="ink_ext_XXXXXX"
     transform="matrix(1.3333333,0,0,-1.3333333,-465.83397,600.8328)"><path
       style="opacity:1;fill:#222222;fill-opacity:1;stroke:none;stroke-width:0.00757005;stroke-miterlimit:4;stroke-dasharray:none;stroke-opacity:1"
       d="m 400.00049,446.87459 c -11.90313,0 -22.76259,-4.44376 -31.02979,-11.75391 0.10547,-0.11329 0.21116,-0.22539 0.30176,-0.35742 6.97266,-10.11484 18.46084,-16.15283 30.72803,-16.15283 12.40781,0 23.96806,6.14678 30.92432,16.44287 0.0228,0.0344 0.052,0.0594 0.0762,0.0923 -8.26406,7.29531 -19.11065,11.72901 -31.00049,11.72901 z m 35.44922,-16.22461 c -8.17734,-11.46562 -21.33594,-18.29005 -35.44922,-18.29005 -14.08672,0 -27.27862,6.82784 -35.45361,18.28565 -7.11015,-8.21876 -11.42139,-18.92569 -11.42139,-30.646 0,-12.64924 5.01853,-24.11895 13.16308,-32.55177 8.31405,10.16484 20.58145,15.99317 33.71192,15.99317 13.13047,0 25.39561,-5.82833 33.71045,-15.99317 8.14453,8.43282 13.16455,19.90253 13.16455,32.55177 0,11.72188 -4.31327,22.43166 -11.42578,30.6504 z m -35.44922,-53.4595 c -11.33047,0 -21.91562,-5.06289 -29.03906,-13.89258 -0.0141,-0.0165 -0.0313,-0.0275 -0.0454,-0.0439 7.99297,-6.33515 18.09307,-10.12939 29.08447,-10.12939 10.99062,0 21.09004,3.79356 29.08301,10.12794 -0.0141,0.0172 -0.0328,0.0297 -0.0469,0.0469 -7.12344,8.82813 -17.70645,13.89111 -29.03613,13.89111 z"
       id="path815"
       inkscape:connector-curvature="0"
       sodipodi:nodetypes="sccsccscscscscscsccsccs" /></g></svg>