<?xml version="1.0" encoding="UTF-8" standalone="no"?>
<!-- Generator: Adobe Illustrator 18.1.1, SVG Export Plug-In . SVG Version: 6.00 Build 0)  -->

<svg
   xmlns:dc="http://purl.org/dc/elements/1.1/"
   xmlns:cc="http://creativecommons.org/ns#"
   xmlns:rdf="http://www.w3.org/1999/02/22-rdf-syntax-ns#"
   xmlns:svg="http://www.w3.org/2000/svg"
   xmlns="http://www.w3.org/2000/svg"
   xmlns:sodipodi="http://sodipodi.sourceforge.net/DTD/sodipodi-0.dtd"
   xmlns:inkscape="http://www.inkscape.org/namespaces/inkscape"
   version="1.1"
   id="Capa_1"
   x="0px"
   y="0px"
   viewBox="0 0 134.99914 135.0002"
   xml:space="preserve"
   sodipodi:docname="activity-band.svg"
   width="134.99913"
   height="135.0002"
   inkscape:version="0.92.2 5c3e80d, 2017-08-06"><metadata
     id="metadata61"><rdf:RDF><cc:Work
         rdf:about=""><dc:format>image/svg+xml</dc:format><dc:type
           rdf:resource="http://purl.org/dc/dcmitype/StillImage" /><dc:title /></cc:Work></rdf:RDF></metadata><defs
     id="defs59" /><sodipodi:namedview
     pagecolor="#ffffff"
     bordercolor="#666666"
     borderopacity="1"
     objecttolerance="10"
     gridtolerance="10"
     guidetolerance="10"
     inkscape:pageopacity="0"
     inkscape:pageshadow="2"
     inkscape:window-width="1366"
     inkscape:window-height="742"
     id="namedview57"
     showgrid="false"
     inkscape:pagecheckerboard="true"
     fit-margin-left="5"
     fit-margin-top="5"
     fit-margin-bottom="5"
     fit-margin-right="5"
     inkscape:zoom="2.2700166"
     inkscape:cx="-48.721876"
     inkscape:cy="71.401566"
     inkscape:window-x="1920"
     inkscape:window-y="312"
     inkscape:window-maximized="1"
     inkscape:current-layer="Capa_1" /><path
     style="opacity:1;fill:#222222;fill-opacity:1;stroke:none;stroke-width:0.0094584;stroke-miterlimit:4;stroke-dasharray:none;stroke-opacity:1"
     d="m 124.66406,5.000206 c -1.03665,0.0092 -2.07884,0.327866 -2.98242,0.976562 l -37.6875,27.730469 c 0,0 -2.0736,0.837045 -3.76172,-0.01563 -1.40437,-0.703503 -3.03409,-0.981405 -4.69336,-0.832031 -5.08843,0.448122 -8.83971,4.93912 -8.38281,10.0371 0.4521,5.09317 4.91937,8.84553 10.00781,8.39258 5.07881,-0.44331 9.49004,-5.04018 8.38867,-10.02734 -0.38957,-1.73948 1.14454,-2.92968 1.14454,-2.92968 l 18.90625,-10.892582 c 7.0783,4.135986 11.2246,9.122846 11.2246,13.880862 0,17.18282 -27.85591,23.2578 -51.71093,23.2578 -29.597536,2e-5 -51.71094,-12.28123 -51.71094,-23.25781 0,-11.005484 22.113404,-23.292961 51.71094,-23.292961 8.56088,0 16.46346,1.050362 23.41797,2.77539 l 6.69336,-6.904296 C 86.36465,11.185813 76.10204,9.60567 65.11719,9.60567 31.907734,9.60567 5,23.810027 5,41.320506 c 0,17.48157 26.907734,31.68555 60.11719,31.68555 33.20946,0 60.11719,-9.89141 60.11719,-31.68555 -1e-5,-6.946966 -4.28192,-13.354114 -11.48047,-18.576164 l 13.68945,-7.886719 c 2.55384,-1.513014 3.34662,-4.853736 1.67773,-7.431641 -1.01901,-1.599347 -2.72928,-2.441116 -4.45703,-2.425776 z m 0.57032,44.82422 c -1e-5,9.78641 -5.44844,17.15005 -14.42774,22.32031 v 48.546884 c 8.9793,-5.17509 14.42774,-12.54771 14.42774,-22.343754 z M 5,49.830286 v 48.52148 C 5,107.5214 12.429055,115.76694 24.236328,121.5588 V 73.021686 C 12.429055,67.234646 5,58.999916 5,49.830286 Z m 96.1875,26.57422 c -8.23864,2.81401 -18.09667,4.44301 -28.85547,4.92968 v 48.550794 c 10.7588,-0.49151 20.61683,-2.1196 28.85547,-4.9336 z m -67.332031,0.45703 v 48.541014 c 8.474301,2.72728 18.305421,4.37601 28.857421,4.59766 V 81.449426 c -10.552,-0.21683 -20.38312,-1.86543 -28.857421,-4.58789 z"
     id="path812"
     inkscape:connector-curvature="0"
     sodipodi:nodetypes="ccccccccccssssccsssccccccccsccsccccccccccccc" /></svg>