<?xml version="1.0" encoding="UTF-8" standalone="no"?>
<!-- Created with Inkscape (http://www.inkscape.org/) -->

<svg
   xmlns:dc="http://purl.org/dc/elements/1.1/"
   xmlns:cc="http://creativecommons.org/ns#"
   xmlns:rdf="http://www.w3.org/1999/02/22-rdf-syntax-ns#"
   xmlns:svg="http://www.w3.org/2000/svg"
   xmlns="http://www.w3.org/2000/svg"
   xmlns:sodipodi="http://sodipodi.sourceforge.net/DTD/sodipodi-0.dtd"
   xmlns:inkscape="http://www.inkscape.org/namespaces/inkscape"
   version="1.1"
   id="svg2"
   xml:space="preserve"
   width="135"
   height="135"
   viewBox="0 0 134.99999 134.99999"
   sodipodi:docname="activity-soccer.svg"
   inkscape:version="0.92.2 5c3e80d, 2017-08-06"><metadata
     id="metadata8"><rdf:RDF><cc:Work
         rdf:about=""><dc:format>image/svg+xml</dc:format><dc:type
           rdf:resource="http://purl.org/dc/dcmitype/StillImage" /><dc:title /></cc:Work></rdf:RDF></metadata><defs
     id="defs6"><clipPath
       clipPathUnits="userSpaceOnUse"
       id="clipPath340"><path
         d="m 4600,4842.26 c 0,-331.37 -268.63,-600 -600,-600 -331.37,0 -600,268.63 -600,600 0,331.37 268.63,600 600,600 331.37,0 600,-268.63 600,-600 z"
         id="path338"
         inkscape:connector-curvature="0" /></clipPath></defs><sodipodi:namedview
     pagecolor="#ffffff"
     bordercolor="#666666"
     borderopacity="1"
     objecttolerance="10"
     gridtolerance="10"
     guidetolerance="10"
     inkscape:pageopacity="0"
     inkscape:pageshadow="2"
     inkscape:window-width="1366"
     inkscape:window-height="742"
     id="namedview4"
     showgrid="false"
     inkscape:zoom="1.425"
     inkscape:cx="-237.7193"
     inkscape:cy="104.98028"
     inkscape:window-x="1920"
     inkscape:window-y="312"
     inkscape:window-maximized="1"
     inkscape:current-layer="g10"
     inkscape:pagecheckerboard="true"
     fit-margin-left="5"
     fit-margin-bottom="5"
     fit-margin-top="5"
     fit-margin-right="5" /><g
     id="g10"
     inkscape:groupmode="layer"
     inkscape:label="ink_ext_XXXXXX"
     transform="matrix(1.3333333,0,0,-1.3333333,-465.83398,600.83273)"><path
       style="opacity:1;fill:#222222;fill-opacity:1;stroke:none;stroke-width:0.00927672;stroke-miterlimit:4;stroke-dasharray:none;stroke-opacity:1"
       d="m 130,67.5 c -34.463212,0 -62.5,28.034821 -62.5,62.49805 2.7e-5,34.46318 28.036788,62.50195 62.5,62.50195 34.4632,0 62.5,-28.03877 62.5,-62.50195 C 192.5,95.534821 164.4632,67.5 130,67.5 Z m 0,2.048828 c 5.87279,0 11.54528,0.856475 16.91797,2.425781 -1.15844,5.74608 -2.08854,9.296178 -2.41602,10.521485 -17.6777,2.355 -26.52028,8.042209 -26.89062,8.285156 -0.0348,0.02293 -0.0549,0.05954 -0.0859,0.08594 -2.1294,-1.24688 -8.13662,-4.267765 -17.826171,-5.335938 0.07427,-1.352827 0.413741,-6.010994 1.763671,-8.808594 8.50497,-4.573935 18.22244,-7.17383 28.53707,-7.17383 z m -31.203125,8.695313 v 0.002 c -0.9644,3.423533 -1.134484,7.430851 -1.146484,7.769531 -2.498134,1.506707 -9.430506,6.406521 -16.257813,17.681648 -0.160027,-0.0595 -0.330825,-0.0914 -0.511719,-0.0606 -0.160586,0.0273 -3.12861,0.54806 -6.03125,1.6543 5.063587,-11.25786 13.463253,-20.702083 23.947266,-27.046882 z m 46.886715,6.042968 v 0.002 c 10.1001,5.238347 17.36841,12.907575 19.84766,15.738281 0,0.0313 -0.013,0.0583 -0.0117,0.0898 0.007,0.0908 0.64869,9.23919 -3.03906,27.4375 -0.001,0.006 0.001,0.0129 0,0.0195 -2.58084,0.95632 -13.05903,4.72483 -25.00586,7.48242 -15.58964,-13.72607 -24.03581,-20.71764 -24.11914,-20.78711 -0.0616,-0.0509 -0.13446,-0.0735 -0.20313,-0.10742 0.3794,-2.39269 1.805,-10.61532 4.9668,-21.533207 0.0164,0.0013 0.0306,0.0059 0.0469,0.0059 0.18962,0 0.3803,-0.051 0.55078,-0.164063 0.0877,-0.0576 8.99074,-5.801061 26.58203,-8.050781 0.14086,-0.01813 0.26996,-0.06468 0.38476,-0.132813 z m 32.45508,9.199219 c 4.39214,5.776333 7.76136,12.365562 9.85742,19.496092 -4.3428,-8.57174 -9.65683,-13.575234 -9.95703,-13.853514 -0.096,-0.08864 -0.20564,-0.150646 -0.32031,-0.195312 0.20305,-2.558347 0.40166,-5.191853 0.41992,-5.447266 z m -1.70508,6.783202 c 0.054,0.12573 0.1294,0.24273 0.23633,0.3418 0.0959,0.0879 9.57886,8.99108 13.35938,23.27734 0.0292,0.11026 0.0769,0.21092 0.13672,0.30078 0.18342,1.91334 0.28515,3.848 0.28515,5.8086 0,5.06641 -0.63485,9.9875 -1.81445,14.69336 -0.0179,0.007 -0.0371,0.006 -0.0547,0.0137 -8.12816,3.93042 -13.40584,3.80853 -14.02344,3.7832 -0.53188,-2.68459 -2.67775,-10.878 -10.17578,-20.32226 0.0245,-0.0604 0.0588,-0.11498 0.0723,-0.18164 3.18394,-15.70868 3.19968,-24.25681 3.11328,-26.85352 3.22975,-0.19424 7.38621,-0.68117 8.86523,-0.86133 z m -95.423824,5.39844 c 0.549773,2.25447 2.485802,8.49868 8.544922,17.55664 -0.0232,0.0464 -0.05729,0.0838 -0.07422,0.13477 -0.186814,0.56459 -4.564263,14.00159 -3.978516,28.25976 0.0013,0.012 0.0068,0.0212 0.0078,0.0332 -1.541507,0.85698 -4.998562,2.58541 -10.177735,4.11328 -3.701133,-7.82143 -5.783203,-16.55555 -5.783203,-25.76757 0,-7.75719 1.486343,-15.16972 4.160156,-21.99024 2.8662,-1.4902 6.732942,-2.23664 7.300782,-2.33984 z m 30.880854,9.9375 c 0.0531,0.0788 0.10471,0.15906 0.18165,0.22265 0.0833,0.0684 8.51039,7.04295 24.07421,20.7461 -0.30102,2.91956 -1.6278,15.45437 -2.96875,23.48633 -10.72892,5.02922 -26.42423,9.04567 -26.58203,9.08593 -0.14044,0.0355 -0.26598,0.0999 -0.37304,0.1836 -3.14328,-2.14148 -12.566338,-8.8875 -18.927738,-17.11719 0.14056,-0.19223 0.23137,-0.42821 0.220703,-0.68945 -0.5686,-13.83826 3.824874,-27.33141 3.869141,-27.4668 0.08253,-0.25013 0.05928,-0.50629 -0.02539,-0.73437 2.6552,-1.214 9.636594,-4.22088 20.531244,-7.7168 z m 76.05665,31.58398 c -4.86391,16.36608 -16.47487,29.85467 -31.60547,37.21094 2.29344,-6.80048 2.13433,-12.95873 2.125,-13.24023 -0.001,-0.0516 -0.0258,-0.0955 -0.0352,-0.14454 2.81359,-2.42535 11.59688,-10.53157 15.875,-20.50585 0.0879,0.007 0.20441,0.0137 0.50195,0.0137 1.64166,0 6.40212,-0.33805 13.13868,-3.33399 z m -54.11329,14.79102 c 2.62344,2.06628 11.56624,8.4886 22.60743,9.72656 0.008,1.232 -0.0734,7.41252 -2.6543,13.84961 -0.002,0.003 -0.001,0.007 -0.002,0.01 -6.38756,2.7445 -13.33785,4.42374 -20.62696,4.80078 -0.0903,-0.0505 -0.18381,-0.0969 -0.29101,-0.11719 -11.84192,-2.244 -24.29108,-9.65554 -24.41602,-9.73047 -0.10946,-0.0657 -0.2269,-0.10358 -0.3457,-0.12305 -0.25755,-1.58914 -0.61863,-4.74917 -0.4375,-9.44921 1.64956,-0.4272 15.84111,-4.16517 26.16601,-8.9668 z m -26.74609,19.82812 c 0.0811,0.15878 0.1915,0.30226 0.35547,0.40039 0.41303,0.24855 8.31505,4.95073 17.66797,8.02735 -8.88364,-0.71492 -17.22785,-3.3533 -24.61914,-7.50586 0.4822,-0.17577 0.96484,-0.35156 0.96484,-0.35156 0,0 3.30275,-0.2603 5.63086,-0.57032 z"
       transform="matrix(0.75000002,0,0,-0.75000002,302.50049,497.49956)"
       id="path815"
       inkscape:connector-curvature="0"
       sodipodi:nodetypes="ssssssccccccsccccccccccccccccccscccccccccccccsccccccccccccccscccccccccccccccccccsccccccccccccccccccc" /><path
       id="path818"
       transform="matrix(0.75000002,0,0,-0.75000002,302.50049,497.49956)"
       d="m 130,67.5 c -34.463212,0 -62.5,28.034821 -62.5,62.49805 2.7e-5,34.46318 28.036788,62.50195 62.5,62.50195 34.4632,0 62.5,-28.03877 62.5,-62.50195 C 192.5,95.534821 164.4632,67.5 130,67.5 Z m 0,2.048828 c 5.87279,0 11.54528,0.856475 16.91797,2.425781 -1.15844,5.74608 -2.08854,9.296178 -2.41602,10.521485 -17.6777,2.355 -26.52028,8.042209 -26.89062,8.285156 -0.0348,0.02293 -0.0549,0.05954 -0.0859,0.08594 -2.1294,-1.24688 -8.13662,-4.267765 -17.826171,-5.335938 0.07427,-1.352827 0.413741,-6.010994 1.763671,-8.808594 8.50497,-4.573935 18.22244,-7.17383 28.53707,-7.17383 z m -31.203125,8.695313 v 0.002 c -0.9644,3.423533 -1.134484,7.430851 -1.146484,7.769531 -2.498134,1.506707 -9.430506,6.406521 -16.257813,17.681648 -0.160027,-0.0595 -0.330825,-0.0914 -0.511719,-0.0606 -0.160586,0.0273 -3.12861,0.54806 -6.03125,1.6543 5.063587,-11.25786 13.463253,-20.702083 23.947266,-27.046882 z m 46.886715,6.042968 v 0.002 c 10.1001,5.238347 17.36841,12.907575 19.84766,15.738281 0,0.0313 -0.013,0.0583 -0.0117,0.0898 0.007,0.0908 0.64869,9.23919 -3.03906,27.4375 -0.001,0.006 0.001,0.0129 0,0.0195 -2.58084,0.95632 -13.05903,4.72483 -25.00586,7.48242 -15.58964,-13.72607 -24.03581,-20.71764 -24.11914,-20.78711 -0.0616,-0.0509 -0.13446,-0.0735 -0.20313,-0.10742 0.3794,-2.39269 1.805,-10.61532 4.9668,-21.533207 0.0164,0.0013 0.0306,0.0059 0.0469,0.0059 0.18962,0 0.3803,-0.051 0.55078,-0.164063 0.0877,-0.0576 8.99074,-5.801061 26.58203,-8.050781 0.14086,-0.01813 0.26996,-0.06468 0.38476,-0.132813 z m 32.45508,9.199219 c 4.39214,5.776333 7.76136,12.365562 9.85742,19.496092 -4.3428,-8.57174 -9.65683,-13.575234 -9.95703,-13.853514 -0.096,-0.08864 -0.20564,-0.150646 -0.32031,-0.195312 0.20305,-2.558347 0.40166,-5.191853 0.41992,-5.447266 z m -1.70508,6.783202 c 0.054,0.12573 0.1294,0.24273 0.23633,0.3418 0.0959,0.0879 9.57886,8.99108 13.35938,23.27734 0.0292,0.11026 0.0769,0.21092 0.13672,0.30078 0.18342,1.91334 0.28515,3.848 0.28515,5.8086 0,5.06641 -0.63485,9.9875 -1.81445,14.69336 -0.0179,0.007 -0.0371,0.006 -0.0547,0.0137 -8.12816,3.93042 -13.40584,3.80853 -14.02344,3.7832 -0.53188,-2.68459 -2.67775,-10.878 -10.17578,-20.32226 0.0245,-0.0604 0.0588,-0.11498 0.0723,-0.18164 3.18394,-15.70868 3.19968,-24.25681 3.11328,-26.85352 3.22975,-0.19424 7.38621,-0.68117 8.86523,-0.86133 z m -95.423824,5.39844 c 0.549773,2.25447 2.485802,8.49868 8.544922,17.55664 -0.0232,0.0464 -0.05729,0.0838 -0.07422,0.13477 -0.186814,0.56459 -4.564263,14.00159 -3.978516,28.25976 0.0013,0.012 0.0068,0.0212 0.0078,0.0332 -1.541507,0.85698 -4.998562,2.58541 -10.177735,4.11328 -3.701133,-7.82143 -5.783203,-16.55555 -5.783203,-25.76757 0,-7.75719 1.486343,-15.16972 4.160156,-21.99024 2.8662,-1.4902 6.732942,-2.23664 7.300782,-2.33984 z m 30.880854,9.9375 c 0.0531,0.0788 0.10471,0.15906 0.18165,0.22265 0.0833,0.0684 8.51039,7.04295 24.07421,20.7461 -0.30102,2.91956 -1.6278,15.45437 -2.96875,23.48633 -10.72892,5.02922 -26.42423,9.04567 -26.58203,9.08593 -0.14044,0.0355 -0.26598,0.0999 -0.37304,0.1836 -3.14328,-2.14148 -12.566338,-8.8875 -18.927738,-17.11719 0.14056,-0.19223 0.23137,-0.42821 0.220703,-0.68945 -0.5686,-13.83826 3.824874,-27.33141 3.869141,-27.4668 0.08253,-0.25013 0.05928,-0.50629 -0.02539,-0.73437 2.6552,-1.214 9.636594,-4.22088 20.531244,-7.7168 z m 76.05665,31.58398 c -4.86391,16.36608 -16.47487,29.85467 -31.60547,37.21094 2.29344,-6.80048 2.13433,-12.95873 2.125,-13.24023 -0.001,-0.0516 -0.0258,-0.0955 -0.0352,-0.14454 2.81359,-2.42535 11.59688,-10.53157 15.875,-20.50585 0.0879,0.007 0.20441,0.0137 0.50195,0.0137 1.64166,0 6.40212,-0.33805 13.13868,-3.33399 z m -54.11329,14.79102 c 2.62344,2.06628 11.56624,8.4886 22.60743,9.72656 0.008,1.232 -0.0734,7.41252 -2.6543,13.84961 -0.002,0.003 -0.001,0.007 -0.002,0.01 -6.38756,2.7445 -13.33785,4.42374 -20.62696,4.80078 -0.0903,-0.0505 -0.18381,-0.0969 -0.29101,-0.11719 -11.84192,-2.244 -24.29108,-9.65554 -24.41602,-9.73047 -0.10946,-0.0657 -0.2269,-0.10358 -0.3457,-0.12305 -0.25755,-1.58914 -0.61863,-4.74917 -0.4375,-9.44921 1.64956,-0.4272 15.84111,-4.16517 26.16601,-8.9668 z m -26.74609,19.82812 c 0.0811,0.15878 0.1915,0.30226 0.35547,0.40039 0.41303,0.24855 8.31505,4.95073 17.66797,8.02735 -8.88364,-0.71492 -17.22785,-3.3533 -24.61914,-7.50586 0.4822,-0.17577 0.96484,-0.35156 0.96484,-0.35156 0,0 3.30275,-0.2603 5.63086,-0.57032 z"
       style="opacity:1;fill:#222222;fill-opacity:1;stroke:none;stroke-width:0.00927672;stroke-miterlimit:4;stroke-dasharray:none;stroke-opacity:1"
       inkscape:connector-curvature="0"
       sodipodi:nodetypes="ssssssccccccsccccccccccccccccccscccccccccccccsccccccccccccccscccccccccccccccccccsccccccccccccccccccc" /></g></svg>