<?xml version="1.0" encoding="UTF-8" standalone="no"?>
<!-- Created with Inkscape (http://www.inkscape.org/) -->

<svg
   xmlns:dc="http://purl.org/dc/elements/1.1/"
   xmlns:cc="http://creativecommons.org/ns#"
   xmlns:rdf="http://www.w3.org/1999/02/22-rdf-syntax-ns#"
   xmlns:svg="http://www.w3.org/2000/svg"
   xmlns="http://www.w3.org/2000/svg"
   xmlns:sodipodi="http://sodipodi.sourceforge.net/DTD/sodipodi-0.dtd"
   xmlns:inkscape="http://www.inkscape.org/namespaces/inkscape"
   version="1.1"
   id="svg2"
   xml:space="preserve"
   width="135"
   height="135"
   viewBox="0 0 135.00001 135"
   sodipodi:docname="activity-athletics.svg"
   inkscape:version="0.92.2 5c3e80d, 2017-08-06"><metadata
     id="metadata8"><rdf:RDF><cc:Work
         rdf:about=""><dc:format>image/svg+xml</dc:format><dc:type
           rdf:resource="http://purl.org/dc/dcmitype/StillImage" /><dc:title /></cc:Work></rdf:RDF></metadata><defs
     id="defs6" /><sodipodi:namedview
     pagecolor="#ffffff"
     bordercolor="#666666"
     borderopacity="1"
     objecttolerance="10"
     gridtolerance="10"
     guidetolerance="10"
     inkscape:pageopacity="0"
     inkscape:pageshadow="2"
     inkscape:window-width="1366"
     inkscape:window-height="742"
     id="namedview4"
     showgrid="false"
     inkscape:zoom="3.784629"
     inkscape:cx="-5.0565991"
     inkscape:cy="29.361985"
     inkscape:window-x="1920"
     inkscape:window-y="312"
     inkscape:window-maximized="1"
     inkscape:current-layer="g10"
     inkscape:pagecheckerboard="true"
     fit-margin-top="5"
     fit-margin-left="5"
     fit-margin-right="5"
     fit-margin-bottom="5" /><g
     id="g10"
     inkscape:groupmode="layer"
     inkscape:label="ink_ext_XXXXXX"
     transform="matrix(1.3333333,0,0,-1.3333333,-419.34896,573.24869)"><path
       style="opacity:1;fill:#222222;fill-opacity:1;stroke:none;stroke-width:0.00664575;stroke-miterlimit:4;stroke-dasharray:none;stroke-opacity:1"
       d="m 354.29443,426.18653 c -1.63095,0 -2.96362,-1.26477 -2.96362,-2.80837 v -8.53625 c 0,-1.54214 1.33267,-2.80673 2.96362,-2.80673 h 1.63893 c 1.63094,0 2.96537,-1.2615 2.96537,-2.8051 v -2.41276 c -3.94915,-0.59493 -7.70526,-1.74364 -11.17565,-3.36252 l -4.39421,5.87338 c -0.78535,1.04952 -2.32248,1.29582 -3.43065,0.55251 l -6.52795,-4.37438 c -1.11045,-0.74329 -1.37217,-2.19693 -0.58682,-3.24646 l 4.4324,-5.92568 c -7.17557,-6.77738 -11.62183,-16.14264 -11.62183,-26.47349 0,-20.63539 17.73968,-37.42415 39.54271,-37.42415 21.80309,0 39.54271,16.78876 39.54271,37.42415 0,10.59396 -4.67848,20.17362 -12.17914,26.98677 l 4.33171,5.78675 c 0.78537,1.04878 0.52362,2.50169 -0.58682,3.24645 l -6.52794,4.37602 c -1.10969,0.74255 -2.64529,0.49535 -3.43067,-0.55416 l -4.43587,-5.92896 c -3.27346,1.45004 -6.78994,2.4905 -10.47424,3.04377 v 2.41276 c 0,1.5436 1.3327,2.8051 2.96364,2.8051 h 1.63719 c 1.6325,0 2.96709,1.26459 2.96709,2.80673 v 8.53625 c 0,1.5436 -1.33459,2.80837 -2.96709,2.80837 z m 10.8423,-27.88422 c 16.56971,0 30.05288,-12.75862 30.05288,-28.44163 0,-15.68228 -13.48317,-28.44164 -30.05288,-28.44164 -16.57039,0 -30.05114,12.75936 -30.05114,28.44164 0,15.68301 13.48075,28.44163 30.05114,28.44163 z m 0,-4.98738 c -0.0662,0 -0.13135,-0.007 -0.19619,-0.007 v -23.2581 h -24.5805 c -8.4e-4,-0.0615 -0.003,-0.1237 -0.003,-0.18799 0,-12.86915 11.01053,-23.34702 24.58397,-23.44935 0.065,0 0.12981,-0.004 0.19618,-0.004 13.66302,0 24.78018,10.51897 24.78018,23.45099 0,0.0643 -0.007,0.12661 -0.007,0.18799 h 0.003 c -0.10654,12.84433 -11.17838,23.26463 -24.77497,23.26463 z"
       id="path816"
       inkscape:connector-curvature="0"
       sodipodi:nodetypes="sssssscccccccssscccccccssssssssssssccccscsscccc" /></g></svg>