<?xml version="1.0" encoding="UTF-8" standalone="no"?>
<!-- Created with Inkscape (http://www.inkscape.org/) -->

<svg
   xmlns:dc="http://purl.org/dc/elements/1.1/"
   xmlns:cc="http://creativecommons.org/ns#"
   xmlns:rdf="http://www.w3.org/1999/02/22-rdf-syntax-ns#"
   xmlns:svg="http://www.w3.org/2000/svg"
   xmlns="http://www.w3.org/2000/svg"
   xmlns:sodipodi="http://sodipodi.sourceforge.net/DTD/sodipodi-0.dtd"
   xmlns:inkscape="http://www.inkscape.org/namespaces/inkscape"
   version="1.1"
   id="svg2"
   xml:space="preserve"
   width="135"
   height="135"
   viewBox="0 0 134.99999 134.99999"
   sodipodi:docname="activity-netball.svg"
   inkscape:version="0.92.2 5c3e80d, 2017-08-06"><metadata
     id="metadata8"><rdf:RDF><cc:Work
         rdf:about=""><dc:format>image/svg+xml</dc:format><dc:type
           rdf:resource="http://purl.org/dc/dcmitype/StillImage" /><dc:title /></cc:Work></rdf:RDF></metadata><defs
     id="defs6"><clipPath
       clipPathUnits="userSpaceOnUse"
       id="clipPath340"><path
         d="m 4600,4842.26 c 0,-331.37 -268.63,-600 -600,-600 -331.37,0 -600,268.63 -600,600 0,331.37 268.63,600 600,600 331.37,0 600,-268.63 600,-600 z"
         id="path338"
         inkscape:connector-curvature="0" /></clipPath></defs><sodipodi:namedview
     pagecolor="#ffffff"
     bordercolor="#666666"
     borderopacity="1"
     objecttolerance="10"
     gridtolerance="10"
     guidetolerance="10"
     inkscape:pageopacity="0"
     inkscape:pageshadow="2"
     inkscape:window-width="1366"
     inkscape:window-height="742"
     id="namedview4"
     showgrid="false"
     inkscape:pagecheckerboard="true"
     fit-margin-top="5"
     fit-margin-left="5"
     fit-margin-bottom="5"
     fit-margin-right="5"
     inkscape:zoom="1.7699999"
     inkscape:cx="-138.75709"
     inkscape:cy="54.617978"
     inkscape:window-x="1920"
     inkscape:window-y="312"
     inkscape:window-maximized="1"
     inkscape:current-layer="g10" /><g
     id="g10"
     inkscape:groupmode="layer"
     inkscape:label="ink_ext_XXXXXX"
     transform="matrix(1.3333333,0,0,-1.3333333,-382.81967,513.35393)"><path
       style="opacity:1;fill:#222222;fill-opacity:1;stroke:none;stroke-width:0.01005683;stroke-miterlimit:4;stroke-dasharray:none;stroke-opacity:1"
       d="m 130,67.5 c -18.03219,0 -34.295038,7.685433 -45.712891,19.941406 -0.145946,0.0884 -0.251051,0.212343 -0.333984,0.34961 C 73.743539,98.919789 67.5,113.74251 67.5,130 c 0,34.46224 28.037161,62.5 62.5,62.5 34.46181,0 62.5,-28.03776 62.5,-62.5 0,-16.22817 -6.21948,-31.028391 -16.39648,-42.150391 -0.0825,-0.136066 -0.18745,-0.259656 -0.33204,-0.347656 C 164.35064,75.209767 148.06213,67.5 130,67.5 Z m 0,2.048828 c 3.30089,0 6.53659,0.27551 9.69531,0.78711 -0.0209,1.817679 -0.20587,10.359511 -1.82031,20.953124 -2.48017,-0.127559 -5.09185,-0.207031 -7.875,-0.207031 -2.78336,0 -5.39663,0.07957 -7.87695,0.207031 -1.61292,-10.586973 -1.79898,-19.135258 -1.82032,-20.953124 3.15888,-0.51164 6.39618,-0.78711 9.69727,-0.78711 z m -11.74023,1.154297 c 0.0407,2.45472 0.2933,10.639771 1.81445,20.708984 -15.89848,1.04716 -25.022948,4.309639 -27.246095,5.197266 -3.301813,-2.88592 -5.831312,-6.727666 -6.703125,-8.128906 8.4604,-8.93612 19.60278,-15.300411 32.13477,-17.777344 z m 23.47851,0 c 12.56095,2.482427 23.72751,8.871177 32.19531,17.839844 -0.87124,1.398506 -3.38689,5.208997 -6.69726,8.091797 -2.06008,-0.83148 -11.19398,-4.16111 -27.31055,-5.222657 1.52189,-10.069213 1.77197,-18.254264 1.8125,-20.708984 z M 84.6875,90.048828 c 1.169053,1.811813 3.60225,5.281341 6.660156,7.990234 -1.419813,2.828898 -6.15039,13.631118 -6.15039,31.996098 0,18.2848 4.686319,29.00939 6.128906,31.88086 -3.06604,2.72257 -5.50443,6.20804 -6.66211,8.00586 C 75.268103,159.26421 69.550781,145.2912 69.550781,130 c 0,-15.30503 5.726093,-29.29012 15.136719,-39.951172 z m 90.67969,0.0625 c 9.3777,10.653162 15.08203,24.613762 15.08203,39.888672 0,15.26105 -5.69553,29.20964 -15.0586,39.85938 -1.15839,-1.79579 -3.59804,-5.2714 -6.67968,-7.99024 0.1648,-0.34365 0.3589,-0.77059 0.5957,-1.30859 0.56044,-1.27358 1.40482,-3.39112 2.24805,-6.23438 1.48257,-4.99489 3.24804,-13.26331 3.24804,-24.29101 0,-18.27527 -4.68046,-29.04469 -6.125,-31.937504 3.07916,-2.706653 5.51818,-6.174221 6.68946,-7.986328 z M 130,93.130859 c 21.9076,0 34.52917,4.632497 36.63672,5.472657 0.76821,1.480894 4.09594,8.500784 5.49023,20.523434 -3.96469,-0.61216 -18.31213,-2.54101 -42.08398,-2.54101 -23.90859,0 -38.30291,1.95251 -42.169923,2.55273 C 89.26838,107.13302 92.596855,100.0889 93.363281,98.603516 95.474948,97.761302 108.09649,93.130859 130,93.130859 Z m 0.043,25.503911 c 24.85396,0 39.34244,2.11694 42.30273,2.5957 0.2492,2.7114 0.40625,5.63505 0.40625,8.80469 0,2.25601 -0.0779,4.39059 -0.21093,6.41406 -2.18392,0.36608 -16.73239,2.63086 -42.49805,2.63086 -26.15541,0 -40.752212,-2.33085 -42.583986,-2.64258 -0.132226,-2.01931 -0.21289,-4.15102 -0.21289,-6.40234 0,-3.16271 0.158736,-6.08041 0.408203,-8.78907 2.637213,-0.43292 17.145783,-2.61132 42.388673,-2.61132 z m -42.416017,19.90429 c 3.56576,0.56236 18.102187,2.58985 42.416017,2.58985 24.17222,0 38.65675,-2.00222 42.32812,-2.57813 -1.19806,13.46731 -4.92009,21.28594 -5.73437,22.84766 -2.10449,0.84016 -14.72604,5.4707 -36.63672,5.4707 -21.91273,0 -34.533152,-4.63156 -36.638672,-5.4707 -0.816307,-1.56748 -4.538722,-9.37992 -5.734375,-22.85938 z m 79.658207,24.80274 c 3.3269,2.91389 5.84027,6.74964 6.67187,8.08984 -8.47,8.98129 -19.64528,15.37997 -32.2168,17.86524 -0.0323,-2.21728 -0.25738,-10.47589 -1.79492,-20.71094 16.19908,-1.06892 25.35351,-4.43797 27.33985,-5.24414 z m -74.507816,0.0293 c 2.094253,0.84404 11.219476,4.15509 27.277346,5.21485 -1.53678,10.23505 -1.76448,18.49366 -1.79688,20.71094 -12.54326,-2.4799 -23.697354,-8.85519 -32.160154,-17.80469 0.83016,-1.34059 3.352581,-5.19562 6.679688,-8.1211 z m 29.328126,5.33789 c 2.48548,0.12811 5.10458,0.20704 7.89453,0.20704 2.78609,0 5.41205,-0.0734 7.89453,-0.20118 1.62717,10.74999 1.78962,19.41289 1.80469,20.94922 -3.15965,0.51195 -6.3973,0.78711 -9.69922,0.78711 -3.30211,0 -6.53943,-0.27515 -9.69922,-0.78711 0.0152,-1.53656 0.1768,-10.20304 1.80469,-20.95508 z"
       transform="matrix(0.75000002,0,0,-0.75000002,240.23976,431.89046)"
       id="path815"
       inkscape:connector-curvature="0"
       sodipodi:nodetypes="sccsssccssccsccsccccccccccccsccsccsccccsccsccsccsscscscscscsccscccccccccccccsccscc" /></g></svg>