<?xml version="1.0" encoding="UTF-8" standalone="no"?>
<!-- Created with Inkscape (http://www.inkscape.org/) -->

<svg
   xmlns:dc="http://purl.org/dc/elements/1.1/"
   xmlns:cc="http://creativecommons.org/ns#"
   xmlns:rdf="http://www.w3.org/1999/02/22-rdf-syntax-ns#"
   xmlns:svg="http://www.w3.org/2000/svg"
   xmlns="http://www.w3.org/2000/svg"
   xmlns:sodipodi="http://sodipodi.sourceforge.net/DTD/sodipodi-0.dtd"
   xmlns:inkscape="http://www.inkscape.org/namespaces/inkscape"
   version="1.1"
   id="svg2"
   xml:space="preserve"
   width="135"
   height="135"
   viewBox="0 0 135 135"
   sodipodi:docname="activity-drama.svg"
   inkscape:version="0.92.2 5c3e80d, 2017-08-06"><metadata
     id="metadata8"><rdf:RDF><cc:Work
         rdf:about=""><dc:format>image/svg+xml</dc:format><dc:type
           rdf:resource="http://purl.org/dc/dcmitype/StillImage" /><dc:title /></cc:Work></rdf:RDF></metadata><defs
     id="defs6"><clipPath
       clipPathUnits="userSpaceOnUse"
       id="clipPath84"><path
         d="m 765.102,2689.43 -347.711,348.36 c -64.649,58.56 -110.36,144.18 -122.95,203.96 -21.066,100.05 -25,408.96 -25,408.96 0,0 188.528,-54.84 302.313,-54.84 116.211,0 287.117,54.84 287.117,54.84 l 293.789,-293.78 -387.558,-667.5"
         id="path82"
         inkscape:connector-curvature="0" /></clipPath><linearGradient
       x1="0"
       y1="0"
       x2="1"
       y2="0"
       gradientUnits="userSpaceOnUse"
       gradientTransform="matrix(-711.918,522.747,522.747,711.918,1072.02,2979.14)"
       spreadMethod="pad"
       id="linearGradient92"><stop
         style="stop-opacity:1;stop-color:#eceeef"
         offset="0"
         id="stop86" /><stop
         style="stop-opacity:1;stop-color:#eceeef"
         offset="0.181037"
         id="stop88" /><stop
         style="stop-opacity:1;stop-color:#d6d8d8"
         offset="1"
         id="stop90" /></linearGradient><clipPath
       clipPathUnits="userSpaceOnUse"
       id="clipPath104"><path
         d="m 1672.32,2689.43 -347.71,348.36 c -64.64,58.56 -110.36,144.18 -122.95,203.96 -21.06,100.05 -25,408.96 -25,408.96 0,0 188.53,-54.84 302.31,-54.84 116.22,0 287.11,54.84 287.11,54.84 l 293.79,-293.78 -387.55,-667.5"
         id="path102"
         inkscape:connector-curvature="0" /></clipPath><linearGradient
       x1="0"
       y1="0"
       x2="1"
       y2="0"
       gradientUnits="userSpaceOnUse"
       gradientTransform="matrix(-711.911,522.742,522.742,711.911,1979.23,2979.14)"
       spreadMethod="pad"
       id="linearGradient112"><stop
         style="stop-opacity:1;stop-color:#eceeef"
         offset="0"
         id="stop106" /><stop
         style="stop-opacity:1;stop-color:#eceeef"
         offset="0.181037"
         id="stop108" /><stop
         style="stop-opacity:1;stop-color:#d6d8d8"
         offset="1"
         id="stop110" /></linearGradient><clipPath
       clipPathUnits="userSpaceOnUse"
       id="clipPath124"><path
         d="m 2579.54,2689.43 -347.7,348.36 c -64.65,58.56 -110.37,144.18 -122.95,203.96 -21.08,100.05 -25,408.96 -25,408.96 0,0 188.52,-54.84 302.3,-54.84 116.22,0 287.12,54.84 287.12,54.84 l 293.79,-293.78 -387.56,-667.5"
         id="path122"
         inkscape:connector-curvature="0" /></clipPath><linearGradient
       x1="0"
       y1="0"
       x2="1"
       y2="0"
       gradientUnits="userSpaceOnUse"
       gradientTransform="matrix(-711.904,522.737,522.737,711.904,2886.45,2979.15)"
       spreadMethod="pad"
       id="linearGradient132"><stop
         style="stop-opacity:1;stop-color:#eceeef"
         offset="0"
         id="stop126" /><stop
         style="stop-opacity:1;stop-color:#eceeef"
         offset="0.181037"
         id="stop128" /><stop
         style="stop-opacity:1;stop-color:#d6d8d8"
         offset="1"
         id="stop130" /></linearGradient><clipPath
       clipPathUnits="userSpaceOnUse"
       id="clipPath144"><path
         d="m 3486.76,2689.43 -347.71,348.36 c -64.65,58.56 -110.36,144.18 -122.95,203.96 -21.07,100.05 -25,408.96 -25,408.96 0,0 188.53,-54.84 302.31,-54.84 116.22,0 287.12,54.84 287.12,54.84 l 293.79,-293.78 -387.56,-667.5"
         id="path142"
         inkscape:connector-curvature="0" /></clipPath><linearGradient
       x1="0"
       y1="0"
       x2="1"
       y2="0"
       gradientUnits="userSpaceOnUse"
       gradientTransform="matrix(-711.911,522.742,522.742,711.911,3793.67,2979.14)"
       spreadMethod="pad"
       id="linearGradient152"><stop
         style="stop-opacity:1;stop-color:#eceeef"
         offset="0"
         id="stop146" /><stop
         style="stop-opacity:1;stop-color:#eceeef"
         offset="0.181037"
         id="stop148" /><stop
         style="stop-opacity:1;stop-color:#d6d8d8"
         offset="1"
         id="stop150" /></linearGradient><clipPath
       clipPathUnits="userSpaceOnUse"
       id="clipPath164"><path
         d="m 2579.54,348.621 -347.7,348.348 c -64.65,58.562 -110.37,144.179 -122.95,203.961 -21.08,100.05 -25,408.96 -25,408.96 0,0 188.52,-54.84 302.3,-54.84 116.22,0 287.12,54.84 287.12,54.84 L 2967.1,1016.11 2579.54,348.621"
         id="path162"
         inkscape:connector-curvature="0" /></clipPath><linearGradient
       x1="0"
       y1="0"
       x2="1"
       y2="0"
       gradientUnits="userSpaceOnUse"
       gradientTransform="matrix(-711.897,522.732,522.732,711.897,2886.45,638.33)"
       spreadMethod="pad"
       id="linearGradient172"><stop
         style="stop-opacity:1;stop-color:#eceeef"
         offset="0"
         id="stop166" /><stop
         style="stop-opacity:1;stop-color:#eceeef"
         offset="0.181037"
         id="stop168" /><stop
         style="stop-opacity:1;stop-color:#d6d8d8"
         offset="1"
         id="stop170" /></linearGradient><clipPath
       clipPathUnits="userSpaceOnUse"
       id="clipPath184"><path
         d="m 3486.76,348.621 -347.72,348.348 c -64.65,58.562 -110.35,144.179 -122.95,203.961 -21.05,100.05 -25,408.96 -25,408.96 0,0 188.54,-54.84 302.31,-54.84 116.23,0 287.13,54.84 287.13,54.84 l 293.79,-293.78 -387.56,-667.489"
         id="path182"
         inkscape:connector-curvature="0" /></clipPath><linearGradient
       x1="0"
       y1="0"
       x2="1"
       y2="0"
       gradientUnits="userSpaceOnUse"
       gradientTransform="matrix(-711.911,522.742,522.742,711.911,3793.67,638.33)"
       spreadMethod="pad"
       id="linearGradient192"><stop
         style="stop-opacity:1;stop-color:#eceeef"
         offset="0"
         id="stop186" /><stop
         style="stop-opacity:1;stop-color:#eceeef"
         offset="0.181037"
         id="stop188" /><stop
         style="stop-opacity:1;stop-color:#d6d8d8"
         offset="1"
         id="stop190" /></linearGradient><clipPath
       clipPathUnits="userSpaceOnUse"
       id="clipPath204"><path
         d="m 1672.32,348.621 -347.71,348.348 c -64.64,58.562 -110.36,144.179 -122.95,203.961 -21.07,100.05 -24.99,408.96 -24.99,408.96 0,0 188.52,-54.84 302.3,-54.84 116.22,0 287.12,54.84 287.12,54.84 l 293.77,-293.78 -387.54,-667.489"
         id="path202"
         inkscape:connector-curvature="0" /></clipPath><linearGradient
       x1="0"
       y1="0"
       x2="1"
       y2="0"
       gradientUnits="userSpaceOnUse"
       gradientTransform="matrix(-711.904,522.737,522.737,711.904,1979.23,638.33)"
       spreadMethod="pad"
       id="linearGradient212"><stop
         style="stop-opacity:1;stop-color:#eceeef"
         offset="0"
         id="stop206" /><stop
         style="stop-opacity:1;stop-color:#eceeef"
         offset="0.181037"
         id="stop208" /><stop
         style="stop-opacity:1;stop-color:#d6d8d8"
         offset="1"
         id="stop210" /></linearGradient><clipPath
       clipPathUnits="userSpaceOnUse"
       id="clipPath224"><path
         d="M 765.098,348.621 417.387,696.969 c -64.649,58.562 -110.36,144.179 -122.949,203.961 -21.063,100.05 -25,408.96 -25,408.96 0,0 188.531,-54.84 302.312,-54.84 116.219,0 287.117,54.84 287.117,54.84 L 1152.65,1016.11 765.098,348.621"
         id="path222"
         inkscape:connector-curvature="0" /></clipPath><linearGradient
       x1="0"
       y1="0"
       x2="1"
       y2="0"
       gradientUnits="userSpaceOnUse"
       gradientTransform="matrix(-711.904,522.737,522.737,711.904,1072,638.33)"
       spreadMethod="pad"
       id="linearGradient232"><stop
         style="stop-opacity:1;stop-color:#eceeef"
         offset="0"
         id="stop226" /><stop
         style="stop-opacity:1;stop-color:#eceeef"
         offset="0.181037"
         id="stop228" /><stop
         style="stop-opacity:1;stop-color:#d6d8d8"
         offset="1"
         id="stop230" /></linearGradient><clipPath
       clipPathUnits="userSpaceOnUse"
       id="clipPath244"><path
         d="M 1087.93,1362.98 498.5,1952.4 c -24.695,19.34 -45.172,39.96 -58.93,58.94 -54.023,74.49 -170.593,326.92 -170.593,326.92 0,0 175.054,24.1 268.566,65.85 95.504,42.64 215.836,150.41 215.836,150.41 l 134.82,-134.81 c 4.121,11.67 6.551,18.42 6.551,18.42 0,0 141.61,-105.69 237.52,-141.58 97.95,-36.66 259.31,-44.34 259.31,-44.34 l 233.44,-233.44 -537.09,-655.79"
         id="path242"
         inkscape:connector-curvature="0" /></clipPath><linearGradient
       x1="0"
       y1="0"
       x2="1"
       y2="0"
       gradientUnits="userSpaceOnUse"
       gradientTransform="matrix(-823.571,818.03,818.03,823.571,1406.18,1642.29)"
       spreadMethod="pad"
       id="linearGradient252"><stop
         style="stop-opacity:1;stop-color:#eceeef"
         offset="0"
         id="stop246" /><stop
         style="stop-opacity:1;stop-color:#eceeef"
         offset="0.181037"
         id="stop248" /><stop
         style="stop-opacity:1;stop-color:#d6d8d8"
         offset="1"
         id="stop250" /></linearGradient><clipPath
       clipPathUnits="userSpaceOnUse"
       id="clipPath266"><path
         d="m 2096.67,1477.87 -347.71,348.36 c -64.65,58.55 -110.36,144.17 -122.95,203.96 -20.11,95.48 -24.61,394.77 -24.97,408.93 49.18,-49.15 187.28,-55.39 254.28,-55.39 22.82,0 37.39,0.72 37.39,0.72 l 123.92,-107.89 103.15,60.93 279.44,-279.44 -302.55,-580.18 m -495.63,961.25 c -0.01,0 -0.02,0.01 -0.03,0.02 0,0.33 0,0.5 0.01,0.5 0,0 0.01,-0.18 0.02,-0.52"
         id="path264"
         inkscape:connector-curvature="0" /></clipPath><linearGradient
       x1="0"
       y1="0"
       x2="1"
       y2="0"
       gradientUnits="userSpaceOnUse"
       gradientTransform="matrix(-656.386,454.186,454.186,656.386,2272.5,1794.02)"
       spreadMethod="pad"
       id="linearGradient274"><stop
         style="stop-opacity:1;stop-color:#eceeef"
         offset="0"
         id="stop268" /><stop
         style="stop-opacity:1;stop-color:#eceeef"
         offset="0.133955"
         id="stop270" /><stop
         style="stop-opacity:1;stop-color:#d6d8d8"
         offset="1"
         id="stop272" /></linearGradient><clipPath
       clipPathUnits="userSpaceOnUse"
       id="clipPath288"><path
         d="m 3257.75,1321.27 -605.77,564.57 c -24.7,19.33 -58.61,64.8 -72.38,83.79 -54.01,74.49 -140.8,326.92 -140.8,326.92 0,0 171.4,2.91 264.92,44.66 95.51,42.64 231.58,138.39 231.58,138.39 l 64.11,-64.71 c 4.13,11.67 75.1,181.35 75.1,181.35 0,0 125.64,-118.06 221.53,-153.95 97.96,-36.66 262.05,-64.15 262.05,-64.15 l 336.23,-301.62 -636.57,-755.25"
         id="path286"
         inkscape:connector-curvature="0" /></clipPath><linearGradient
       x1="0"
       y1="0"
       x2="1"
       y2="0"
       gradientUnits="userSpaceOnUse"
       gradientTransform="matrix(-823.564,818.024,818.024,823.564,3615.57,1640.42)"
       spreadMethod="pad"
       id="linearGradient296"><stop
         style="stop-opacity:1;stop-color:#eceeef"
         offset="0"
         id="stop290" /><stop
         style="stop-opacity:1;stop-color:#eceeef"
         offset="0.181037"
         id="stop292" /><stop
         style="stop-opacity:1;stop-color:#d6d8d8"
         offset="1"
         id="stop294" /></linearGradient></defs><sodipodi:namedview
     pagecolor="#ffffff"
     bordercolor="#666666"
     borderopacity="1"
     objecttolerance="10"
     gridtolerance="10"
     guidetolerance="10"
     inkscape:pageopacity="0"
     inkscape:pageshadow="2"
     inkscape:window-width="1366"
     inkscape:window-height="742"
     id="namedview4"
     showgrid="false"
     fit-margin-top="5"
     fit-margin-left="5"
     fit-margin-bottom="5"
     fit-margin-right="5"
     inkscape:pagecheckerboard="true"
     inkscape:zoom="2.5031581"
     inkscape:cx="-102.53717"
     inkscape:cy="102.2743"
     inkscape:window-x="1920"
     inkscape:window-y="312"
     inkscape:window-maximized="1"
     inkscape:current-layer="g10" /><g
     id="g10"
     inkscape:groupmode="layer"
     inkscape:label="ink_ext_XXXXXX"
     transform="matrix(1.3333333,0,0,-1.3333333,-186.15494,361.24704)"><path
       style="opacity:1;fill:#222222;fill-opacity:1;stroke:none;stroke-width:0.00698634;stroke-miterlimit:4;stroke-dasharray:none;stroke-opacity:1"
       d="m 196.64429,257.89702 c 0,0 -4.81627,-12.55853 -8.13778,-22.7679 -1.87372,6.44649 -3.51232,11.68869 -3.51232,11.68869 0,0 -11.87856,-9.99898 -19.91538,-13.38077 -8.20672,-3.45397 -21.7126,-4.13556 -21.7126,-4.13556 0,0 8.34535,-24.61079 12.42612,-32.00892 4.03724,-7.32022 16.28687,-17.75091 26.0561,-13.63958 5.07236,2.13448 8.43499,7.73448 10.34202,13.82326 1.06356,-1.12156 2.25813,-2.06314 3.60181,-2.75102 9.49722,-4.86178 22.44156,4.47178 26.94246,11.46048 4.54441,7.05614 14.38149,30.99312 14.38149,30.99312 0,0 -14.643,2.353 -22.45552,6.35224 -7.97993,4.08473 -18.0164,14.36596 -18.0164,14.36596 z m 0.36288,-11.05973 c -5e-4,0 0.49078,-0.39082 1.15361,-1.05198 0.33476,-0.32868 0.71123,-0.7245 1.10456,-1.16052 0.39503,-0.43506 0.80635,-0.90931 1.20388,-1.39568 0.3992,-0.48732 0.78656,-0.98649 1.13889,-1.46526 0.35401,-0.47783 0.67261,-0.93491 0.9354,-1.33864 0.53144,-0.79889 0.83731,-1.38594 0.83731,-1.38594 5e-4,8e-4 -0.49078,0.39126 -1.15361,1.05338 -0.33392,0.3277 -0.71245,0.72171 -1.1058,1.15773 -0.39502,0.43507 -0.8055,0.91071 -1.20387,1.39708 -0.39837,0.48732 -0.78327,0.98788 -1.13644,1.46666 -0.35401,0.47782 -0.67299,0.93585 -0.93662,1.33862 -0.53228,0.79986 -0.83731,1.38455 -0.83731,1.38455 z m -1.97131,-8.9168 c 0.89549,-0.0119 2.25933,-0.41655 3.6962,-1.15215 2.29898,-1.17699 3.91464,-2.75571 3.60916,-3.52611 -0.30631,-0.77134 -2.4188,-0.44087 -4.71864,0.73612 -2.29812,1.17695 -3.91509,2.7557 -3.60793,3.52609 0.11455,0.2889 0.48391,0.42365 1.02121,0.41605 z m -13.98919,-5.0303 c 0.52641,0.0133 1.01984,0.009 1.44415,-0.0125 0.8478,-0.0323 1.41718,-0.13081 1.41718,-0.13081 1e-5,8.1e-4 -0.55214,-0.18896 -1.38653,-0.359 -0.41679,-0.0893 -0.90392,-0.1755 -1.42699,-0.24769 -0.5239,-0.076 -1.0841,-0.14087 -1.64399,-0.18646 -0.56072,-0.0456 -1.12286,-0.0716 -1.65011,-0.0821 -0.5281,-0.0133 -1.02022,-0.008 -1.44538,0.0125 -0.84612,0.0323 -1.41596,0.12941 -1.41596,0.12941 0,0 0.55091,0.18758 1.38531,0.35761 0.41678,0.0903 0.90432,0.17594 1.42822,0.24908 0.52307,0.076 1.08409,0.14086 1.64398,0.18646 0.56074,0.0465 1.12286,0.073 1.65012,0.0835 z m 42.94709,-1.70321 c 0.58501,-0.0171 1.16975,-0.0528 1.71877,-0.1002 0.54817,-0.0456 1.05955,-0.10509 1.49809,-0.17254 0.87625,-0.12633 1.45805,-0.28665 1.45887,-0.28665 0,0 -0.58947,-0.12577 -1.4699,-0.20176 -0.44022,-0.0437 -0.95398,-0.0752 -1.503,-0.0905 -0.54985,-0.0157 -1.1366,-0.0204 -1.72244,-0.005 -0.585,0.017 -1.16937,0.0518 -1.71755,0.10018 -0.54818,0.0456 -1.05916,0.10556 -1.49687,0.17394 -0.87624,0.1254 -1.46009,0.28527 -1.46009,0.28527 0,0 0.58947,0.12666 1.4699,0.20454 0.44021,0.0426 0.95399,0.0739 1.503,0.089 0.549,0.0171 1.13622,0.0189 1.72122,0.003 z m -41.07386,-4.12165 c 1.27939,0.0496 2.26658,-0.3631 2.53647,-1.18836 0.43184,-1.32232 -1.13617,-3.19847 -3.50128,-4.19402 -2.3651,-0.99456 -4.63296,-0.73275 -5.06313,0.58862 -0.43184,1.32136 1.13618,3.19847 3.50128,4.19401 0.8866,0.37298 1.75904,0.56992 2.52666,0.59975 z m 34.26132,-0.48147 c 0.89568,-0.0121 2.25934,-0.41736 3.6962,-1.15356 2.29899,-1.17696 3.91466,-2.75473 3.60916,-3.52609 -0.3063,-0.77039 -2.41881,-0.43991 -4.71864,0.7361 -2.29899,1.17794 -3.91423,2.75614 -3.60793,3.52749 0.11487,0.28891 0.48379,0.42367 1.02121,0.41606 z m -58.61705,-1.46109 c 0,0 -0.37688,-0.49495 -1.00036,-1.14661 -0.30966,-0.32961 -0.68106,-0.69749 -1.08864,-1.07841 -0.40589,-0.38188 -0.84635,-0.77872 -1.29827,-1.15774 -0.45111,-0.38092 -0.91116,-0.74696 -1.35221,-1.07564 -0.43938,-0.33249 -0.8577,-0.62701 -1.22594,-0.86831 -0.73062,-0.48826 -1.25864,-0.75281 -1.25781,-0.7528 0,0 0.37603,0.49634 1.00037,1.14799 0.30965,0.32868 0.67984,0.69801 1.0874,1.07703 0.40674,0.38376 0.84841,0.77776 1.2995,1.15774 0.45193,0.38092 0.91239,0.74462 1.35344,1.07426 0.43938,0.33246 0.85855,0.62796 1.22594,0.8683 0.73062,0.48921 1.25658,0.75323 1.25658,0.75419 z m 45.68462,-4.13556 c 0.0927,-0.004 0.17816,-0.0692 0.21331,-0.17395 0.45193,-1.3565 1.79411,-2.04456 2.99006,-1.53066 0.12386,0.0523 0.26046,-0.0175 0.30649,-0.15723 0.0477,-0.13965 -0.0155,-0.29608 -0.13853,-0.34928 -0.72141,-0.30964 -1.48524,-0.25784 -2.13804,0.0765 -0.65361,0.33438 -1.19423,0.94975 -1.46622,1.76861 -0.0469,0.13964 0.016,0.29701 0.13976,0.34927 0.0308,0.0138 0.0623,0.0176 0.0932,0.0167 z m -44.10683,-3.50801 c 1.27964,0.0498 2.26639,-0.36248 2.53524,-1.18835 0.43183,-1.32041 -1.13579,-3.19846 -3.50006,-4.19401 -2.36594,-0.99554 -4.63334,-0.73135 -5.06435,0.59 -0.43185,1.32041 1.13703,3.19942 3.50128,4.19401 0.88723,0.37333 1.76011,0.56843 2.52789,0.59835 z m 38.06295,-0.59835 c 0.65118,-0.0285 1.25453,-0.48931 1.49932,-1.22313 0.54902,-1.64815 1.63086,-2.95574 3.04523,-3.68055 1.41605,-0.72481 2.99484,-0.77995 4.44771,-0.15584 0.86286,0.37046 1.82675,-0.1227 2.15397,-1.10208 0.32557,-0.9794 -0.10892,-2.07441 -0.97094,-2.44488 -2.28727,-0.98224 -4.77549,-0.89552 -7.00501,0.24628 -2.22869,1.13993 -3.93257,3.19904 -4.7971,5.79426 -0.32724,0.97938 0.10892,2.07535 0.97094,2.44489 0.21613,0.0926 0.43882,0.13056 0.65588,0.12105 z m -23.02681,-6.29379 c 0.0309,-8.1e-4 0.0619,-0.01 0.0919,-0.025 0.11936,-0.0617 0.17293,-0.22316 0.1177,-0.35901 -0.32138,-0.79511 -0.89756,-1.36822 -1.57044,-1.65033 -0.67119,-0.28216 -1.43754,-0.27435 -2.13803,0.0904 -0.1202,0.0627 -0.17293,0.2241 -0.11769,0.35901 0.0561,0.13642 0.19662,0.19534 0.31629,0.13358 1.16247,-0.60605 2.54238,-0.0244 3.07466,1.2941 0.0421,0.10186 0.13267,0.1601 0.22557,0.15725 z m 5.18326,-4.25943 c 1.49761,-0.004 3.04728,-1.39885 3.61408,-3.13367 0.7549,-2.3112 -0.1627,-5.47024 -2.32193,-5.73719 -1.01516,-0.12539 -3.12156,0.49478 -4.08483,0.10436 -1.02857,-0.41514 -2.41425,-2.5336 -3.32229,-3.22134 -1.80606,-1.36982 -4.29921,0.32292 -5.05578,2.63412 -0.75489,2.31309 0.16438,5.45264 2.32193,5.73859 1.05534,0.13968 3.25564,-0.4575 4.25156,-0.0348 0.98421,0.41702 2.28517,2.48111 3.15556,3.15177 0.44942,0.346 0.94251,0.50006 1.4417,0.49816 z"
       id="path879"
       inkscape:connector-curvature="0"
       sodipodi:nodetypes="ccccccccccccccccccccccccccccccccccccccccccccccccccccccccccccccccccccccccccccccccccccccccccccccccccccccccccccccccccccccccccccccc" /></g></svg>