<?xml version="1.0" encoding="UTF-8" standalone="no"?>
<!-- Created with Inkscape (http://www.inkscape.org/) -->

<svg
   xmlns:dc="http://purl.org/dc/elements/1.1/"
   xmlns:cc="http://creativecommons.org/ns#"
   xmlns:rdf="http://www.w3.org/1999/02/22-rdf-syntax-ns#"
   xmlns:svg="http://www.w3.org/2000/svg"
   xmlns="http://www.w3.org/2000/svg"
   xmlns:sodipodi="http://sodipodi.sourceforge.net/DTD/sodipodi-0.dtd"
   xmlns:inkscape="http://www.inkscape.org/namespaces/inkscape"
   width="49.343582mm"
   height="49.868118mm"
   viewBox="0 0 49.343582 49.868118"
   version="1.1"
   id="svg8"
   inkscape:version="0.92.2 5c3e80d, 2017-08-06"
   sodipodi:docname="public-service-commission-alt.svg">
  <defs
     id="defs2">
    <clipPath
       clipPathUnits="userSpaceOnUse"
       id="clipPath901">
      <rect
         style="opacity:1;fill:#868686;fill-opacity:1;stroke:none;stroke-width:0.00264583;stroke-miterlimit:4;stroke-dasharray:none;stroke-opacity:1"
         id="rect903"
         width="80.180862"
         height="72.697311"
         x="73.499123"
         y="100.28963" />
    </clipPath>
    <clipPath
       clipPathUnits="userSpaceOnUse"
       id="clipPath907">
      <rect
         style="opacity:1;fill:#868686;fill-opacity:1;stroke:none;stroke-width:0.00264583;stroke-miterlimit:4;stroke-dasharray:none;stroke-opacity:1"
         id="rect909"
         width="52.384827"
         height="53.453903"
         x="74.835464"
         y="113.6531" />
    </clipPath>
  </defs>
  <sodipodi:namedview
     id="base"
     pagecolor="#ffffff"
     bordercolor="#666666"
     borderopacity="1.0"
     inkscape:pageopacity="0.0"
     inkscape:pageshadow="2"
     inkscape:zoom="2.8"
     inkscape:cx="23.930826"
     inkscape:cy="88.429505"
     inkscape:document-units="mm"
     inkscape:current-layer="layer1"
     showgrid="false"
     inkscape:window-width="1920"
     inkscape:window-height="1054"
     inkscape:window-x="0"
     inkscape:window-y="0"
     inkscape:window-maximized="1"
     fit-margin-top="5"
     fit-margin-left="5"
     fit-margin-right="5"
     fit-margin-bottom="5"
     inkscape:pagecheckerboard="true" />
  <metadata
     id="metadata5">
    <rdf:RDF>
      <cc:Work
         rdf:about="">
        <dc:format>image/svg+xml</dc:format>
        <dc:type
           rdf:resource="http://purl.org/dc/dcmitype/StillImage" />
        <dc:title />
      </cc:Work>
    </rdf:RDF>
  </metadata>
  <g
     inkscape:label="Layer 1"
     inkscape:groupmode="layer"
     id="layer1"
     transform="translate(-59.180342,-122.44301)">
    <path
       style="fill:#84b7bb;stroke-width:0.27394432;fill-opacity:1"
       d="m 88.02539,167.00623 c 0,-0.18692 0.483732,-0.90182 1.074963,-1.58866 0.593952,-0.69001 1.227398,-1.8255 1.415627,-2.5376 0.715866,-2.70819 1.54478,-2.83816 1.848288,-0.28978 0.111013,0.93213 0.289157,1.91518 0.395873,2.18456 0.161311,0.40719 -0.172756,0.66528 -1.981092,1.53056 -2.345129,1.12212 -2.753659,1.22611 -2.753659,0.70092 z m -16.051639,-1.1907 c 0.124414,-0.16836 0.543589,-0.64432 0.9315,-1.05769 1.126115,-1.20001 2.620356,-4.03956 2.826171,-5.37065 0.32679,-2.11351 0.796979,-1.38203 0.888875,1.38283 l 0.08666,2.60729 -0.931737,0.57627 c -0.512456,0.31696 -1.495331,0.93443 -2.184167,1.37217 -1.279608,0.81316 -2.022525,1.03814 -1.6173,0.48978 z m 21.713156,-0.58083 c -0.966196,-0.83312 -1.083112,-1.43129 -1.156665,-5.91777 -0.03904,-2.3807 -0.183047,-3.80717 -0.395586,-3.91823 -0.183813,-0.096 -0.509299,-1.05623 -0.723297,-2.13374 -0.483217,-2.43307 -1.442273,-4.58444 -2.716043,-6.09269 -1.139832,-1.34964 -1.154159,-1.41684 -0.415962,-1.9507 0.793088,-0.57356 1.209137,-0.50852 2.088327,0.32645 0.864741,0.82125 2.523405,1.82871 2.733863,1.66053 0.07575,-0.0605 -0.293199,-0.58543 -0.819877,-1.16644 -1.604634,-1.77017 -2.097692,-2.89292 -2.097692,-4.77672 0,-2.78164 1.333893,-4.51636 3.187007,-4.14469 0.932667,0.18706 2.971907,1.91555 3.81147,3.23066 0.341053,0.53423 0.812019,1.78493 1.046592,2.77935 l 0.426494,1.80802 0.352483,-0.97956 c 0.461877,-1.28358 0.432544,-3.50856 -0.07386,-5.60022 l -0.407195,-1.68199 0.909876,-0.82812 c 0.500431,-0.45547 1.013068,-0.82813 1.139198,-0.82813 0.31609,0 1.99196,3.03743 2.49963,4.53045 0.99462,2.9251 0.30097,7.55026 -1.75244,11.68508 -1.341223,2.70072 -3.896092,6.80409 -4.235831,6.80314 -0.180574,-4.9e-4 -0.781476,-0.2217 -1.335335,-0.49156 l -1.007024,-0.49064 0.08768,-2.36604 c 0.06019,-1.62434 0.207877,-2.39788 0.471118,-2.46762 0.210894,-0.0559 0.512429,0.1556 0.670083,0.46993 0.171154,0.34125 0.294467,0.4177 0.306063,0.18976 0.0107,-0.20997 -0.187425,-0.59567 -0.440244,-0.85711 -0.451126,-0.46653 -0.468042,-0.46672 -0.910174,-0.01 -0.367773,0.37989 -0.44581,1.4817 -0.424941,5.99978 0.01504,3.26048 0.150429,5.6581 0.329461,5.83541 0.216763,0.21467 0.470395,0.22976 0.884611,0.0526 0.490369,-0.20973 0.580713,-0.53276 0.580713,-2.07642 v -1.82805 h 0.91934 0.91934 v 1.73844 c 0,3.38407 -2.397611,5.26762 -4.451224,3.49685 z m 4.31829,-9.66953 c 0.138882,-0.17957 0.0043,-0.21905 -0.398319,-0.11692 -0.772421,0.19591 -1.221573,-0.234 -1.38657,-1.32716 -0.12914,-0.8556 -0.129248,-0.85552 -0.178261,0.13567 -0.02697,0.54549 0.116438,1.12404 0.318693,1.28567 0.461089,0.36846 1.367383,0.381 1.644457,0.0228 z m 0.155252,-2.83659 c -0.685478,-3.02913 -4.061068,-3.748 -5.417506,-1.15371 -0.235016,0.44949 -0.421263,1.01364 -0.413887,1.25367 0.0073,0.24003 0.248704,-0.11202 0.536282,-0.78234 0.601651,-1.40238 1.622749,-2.0129 2.92857,-1.751 1.158457,0.23235 1.957996,1.41797 2.235919,3.3156 0.129951,0.8873 0.284946,1.3719 0.344427,1.0769 0.05949,-0.29501 -0.03673,-1.17661 -0.213805,-1.95912 z M 85.392058,165.0191 c -0.680475,-0.54379 -0.756524,-0.785 -0.675575,-2.14278 0.08003,-1.34246 0.166348,-1.53002 0.70411,-1.53002 0.518281,0 0.636546,0.20407 0.766117,1.32199 0.17428,1.50366 0.8164,2.07061 1.689398,1.49162 0.41908,-0.27794 0.495199,-0.68787 0.408744,-2.20127 -0.09725,-1.70237 -0.215144,-1.99344 -1.393373,-3.44004 -1.782621,-2.18865 -2.237003,-3.17221 -2.237003,-4.84223 0,-2.13969 1.469901,-3.72251 3.144949,-3.38655 1.169575,0.23458 2.064645,1.56343 2.064645,3.06526 0,1.17729 -0.04845,1.25677 -0.766117,1.25677 -0.698658,0 -0.766117,-0.0929 -0.766117,-1.0552 0,-0.58036 -0.206943,-1.26911 -0.459875,-1.53055 -0.450295,-0.46547 -0.473336,-0.46263 -1.106293,0.13605 -1.198249,1.13337 -0.572056,2.87426 2.421087,6.73093 1.187322,1.52987 1.365699,2.40924 0.881133,4.3439 -0.545252,2.17696 -3.007427,3.11538 -4.67583,1.78212 z m -8.259889,0.0589 c -0.08159,-0.16991 -0.111739,-3.55857 -0.067,-7.53034 l 0.08136,-7.2214 1.445191,-0.0743 c 2.550551,-0.13113 3.412417,0.65867 3.748028,3.43465 0.339301,2.8065 -0.745768,4.70012 -2.899715,5.06045 l -1.067717,0.17862 0.08346,2.67963 c 0.0459,1.4738 0.0088,2.92758 -0.08245,3.23063 -0.178038,0.59128 -0.996789,0.75096 -1.241159,0.24206 z m 2.931456,-8.20096 c 0.58225,-0.59122 0.650443,-0.91906 0.558524,-2.68513 -0.111214,-2.13677 -0.588837,-2.92872 -1.58253,-2.62401 -0.438895,0.13459 -0.514077,0.55971 -0.514077,2.90686 0,3.33478 0.244166,3.71614 1.538083,2.40228 z m -1.231636,-2.38767 c 0,-2.14092 0.07821,-2.57133 0.467255,-2.57133 0.656902,0 1.064978,1.01743 1.064978,2.65523 0,1.34858 -0.569174,2.48744 -1.243163,2.48744 -0.162775,0 -0.28907,-1.12342 -0.28907,-2.57134 z m 15.935228,7.85091 c 0,-1.27941 0.389378,-1.89594 0.915899,-1.45021 0.416568,0.35266 -0.01588,2.78265 -0.495218,2.78265 -0.305065,0 -0.420681,-0.3662 -0.420681,-1.33244 z m -15.935228,-1.5858 c 0,-1.64182 0.03734,-1.73463 0.69793,-1.73463 2.518263,0 4.08545,-3.68873 2.95251,-6.9494 -0.554983,-1.59726 -1.46048,-2.1115 -3.71809,-2.1115 h -1.934188 l -0.677947,-2.755 c -0.372869,-1.51525 -0.765946,-3.00295 -0.873502,-3.306 -0.219974,-0.6198 0.224582,-0.71227 1.524949,-0.31718 0.550064,0.16712 0.827798,0.4818 0.973673,1.10318 0.194517,0.82859 1.873701,2.9879 2.151127,2.7662 0.07259,-0.058 -0.109942,-0.48151 -0.405629,-0.94111 -0.38331,-0.59581 -0.53761,-1.40984 -0.53761,-2.83625 0,-1.78029 0.08182,-2.0702 0.742924,-2.63256 1.505767,-1.28085 3.314232,-0.4224 4.191732,1.98976 0.515499,1.41705 0.37915,2.86295 -0.382062,4.05152 -0.237216,0.37039 -0.313163,0.67344 -0.16877,0.67344 0.283156,0 0.783641,-0.69883 1.271532,-1.77544 0.418523,-0.92355 1.374473,-0.92355 1.140619,0 -0.09379,0.37039 -0.0284,1.42709 0.145326,2.34821 0.287646,1.5252 0.262054,1.72203 -0.286574,2.204 -1.047482,0.92022 -1.291909,1.55197 -1.291909,3.33912 0,1.85289 0.410754,2.75351 2.216601,4.86011 0.498818,0.5819 0.859175,1.09232 0.800792,1.13427 -0.05839,0.042 -0.841118,0.20023 -1.739412,0.35172 -1.297131,0.21876 -3.874638,1.07391 -6.564187,2.17784 -0.126409,0.0519 -0.229835,-0.68625 -0.229835,-1.6403 z m -6.641541,-1.13413 c -1.894091,-1.31649 -4.285532,-3.84085 -5.556762,-5.86561 -1.558618,-2.48251 -2.248722,-4.64558 -2.422001,-7.59157 -0.247015,-4.19963 0.953835,-7.59117 4.0359,-11.39851 2.722461,-3.36311 6.218398,-5.47782 11.146373,-6.74248 2.279789,-0.58507 2.888221,-0.64251 5.669264,-0.53529 5.390077,0.20782 9.803556,1.87405 13.401005,5.05931 1.000467,0.88583 1.819023,1.67764 1.819023,1.75957 0,0.36662 -3.212801,3.03381 -3.576875,2.96943 -0.223807,-0.0396 -0.406925,0.0431 -0.406925,0.18367 0,0.54976 -0.852724,0.20529 -2.157933,-0.87172 -1.771703,-1.46194 -3.146232,-2.15341 -5.516969,-2.77535 -2.034768,-0.5338 -5.980764,-0.69371 -6.962085,-0.28213 -0.292668,0.12275 -1.160722,0.39929 -1.929008,0.61455 -2.986039,0.83662 -6.628789,3.89343 -7.646644,6.41668 -0.210634,0.52216 -0.484103,1.05958 -0.607709,1.19427 -0.293978,0.32033 -0.331611,0.56103 -0.509053,3.25584 -0.244936,3.71985 0.925356,6.57104 3.71478,9.05033 1.346517,1.19681 1.415822,1.32759 1.30244,2.45781 -0.06587,0.65655 -0.192137,1.29495 -0.280605,1.41866 -0.08847,0.12371 -0.2551,0.53946 -0.370294,0.92388 -0.225335,0.752 -1.0482,1.87617 -1.366161,1.86641 -0.107025,-0.003 -0.907917,-0.50177 -1.779761,-1.10775 z m 2.463779,-1.44001 c 0.789886,-1.90501 0.666309,-2.47708 -0.841771,-3.89677 -2.708708,-2.54994 -3.867422,-5.203 -3.867422,-8.85507 0,-4.07891 1.361295,-6.88725 4.573353,-9.43477 3.618508,-2.86988 7.486142,-4.00769 11.800802,-3.47164 1.272041,0.15803 2.555545,0.38695 2.852229,0.50872 0.296686,0.12176 1.07031,0.42645 1.719169,0.67709 0.648858,0.25064 2.033583,1.07806 3.077169,1.83871 l 1.897426,1.38301 1.806267,-1.32215 1.80626,-1.32215 -0.899622,-0.77482 c -2.622675,-2.25885 -5.435776,-3.76932 -8.662317,-4.65116 -2.921563,-0.79849 -8.272209,-0.79366 -10.930558,0.01 -5.361821,1.6207 -8.91096,4.10461 -11.399708,7.97825 -3.182487,4.95341 -3.264231,11.74584 -0.200047,16.62288 1.700238,2.70615 5.940958,6.65697 6.555448,6.10731 0.117106,-0.10475 0.438101,-0.73353 0.713322,-1.3973 z m -2.540179,-0.34926 c -0.30774,-0.45951 -0.284673,-0.66711 0.130368,-1.1733 0.277659,-0.33864 0.690507,-0.55789 0.918715,-0.48792 0.22795,0.0699 0.579322,-0.0316 0.780828,-0.22568 0.201506,-0.19403 0.48739,-0.35278 0.635299,-0.35278 0.570688,0 0.219586,0.65641 -0.912025,1.7051 -1.171423,1.08557 -1.181785,1.08914 -1.553185,0.53458 z m -1.785955,-1.62643 c -0.561622,-0.50976 -0.490689,-0.67869 0.658832,-1.56905 0.77458,-0.59994 1.207007,-0.7651 1.685457,-0.64375 0.926454,0.23497 0.799745,0.64362 -0.518529,1.6723 -1.307513,1.02028 -1.299706,1.01797 -1.82576,0.5405 z m -1.81873,-1.98983 c -0.129584,-0.26985 0.1925,-0.6589 1.005569,-1.21463 1.289927,-0.88166 1.587069,-0.91817 2.093666,-0.25731 0.258879,0.33771 0.198681,0.50398 -0.284553,0.78596 -0.337092,0.1967 -0.855797,0.52085 -1.152679,0.72032 -0.707948,0.47568 -1.424203,0.46088 -1.662003,-0.0343 z m -0.815666,-1.4837 c -0.394771,-0.31547 -0.179436,-0.54468 1.221557,-1.30027 1.007824,-0.54354 1.517045,-0.69069 1.748935,-0.50538 0.231892,0.18531 0.197129,0.35688 -0.119395,0.58925 -0.812001,0.59613 -2.647393,1.37918 -2.851097,1.2164 z m -0.982855,-2.05884 c -0.259529,-0.33557 0.07571,-0.57837 1.242289,-0.89975 0.505637,-0.13929 1.160667,-0.33142 1.455622,-0.42695 0.381298,-0.1235 0.536281,-0.0575 0.536281,0.22854 0,0.24456 -0.550522,0.59082 -1.404415,0.88332 -1.646716,0.56407 -1.566935,0.5547 -1.829777,0.21484 z m -0.366556,-1.60237 c -0.524365,-0.17977 -0.481139,-0.70016 0.0896,-1.07868 0.358009,-0.23744 0.558706,-0.24471 0.827406,-0.03 0.488477,0.39036 0.845063,0.35498 0.845063,-0.0838 0,-0.4901 1.193681,-0.47426 1.430533,0.019 0.10203,0.21248 -0.0057,0.53504 -0.239453,0.71681 -0.473607,0.36831 -2.360056,0.66006 -2.953148,0.45672 z m 1.762068,-3.91628 c 0,-0.31868 -0.08764,-0.33919 -0.442802,-0.10365 -0.613951,0.40719 -1.827906,0.22328 -1.951678,-0.29566 -0.117907,-0.49436 0.910417,-0.92456 1.103505,-0.46165 0.0948,0.22726 0.227159,0.23127 0.55068,0.0167 0.614825,-0.40776 1.966082,-0.0742 1.966082,0.48537 0,0.2524 -0.218129,0.5258 -0.484733,0.60755 -0.690203,0.21166 -0.741054,0.19459 -0.741054,-0.24867 z m -1.455621,-1.86068 c -0.379228,-0.14616 -0.689505,-0.4693 -0.689505,-0.71809 0,-0.49094 0.456726,-0.60752 0.77382,-0.19751 0.108404,0.14017 0.44969,0.19079 0.758413,0.11248 0.308723,-0.0783 0.654147,-0.0223 0.76761,0.12438 0.148607,0.19215 0.319577,0.19161 0.6114,-0.002 0.562662,-0.37316 0.939494,0.15021 0.448529,0.62295 -0.429273,0.41335 -1.677532,0.44033 -2.670267,0.0577 z m 1.239293,-1.74008 c -1.421712,-0.41602 -1.81391,-0.78752 -1.326684,-1.25666 0.443076,-0.42663 1.410426,-0.50238 1.696236,-0.13282 0.104167,0.13469 0.526008,0.24489 0.937426,0.24489 0.753308,0 0.923888,0.32839 0.56202,1.08197 -0.215225,0.4482 -0.516762,0.45831 -1.868998,0.0626 z m 0.842757,-2.11709 c -1.2716,-0.40225 -2.020777,-0.98662 -1.264859,-0.98662 0.182591,0 0.331984,-0.1653 0.331984,-0.36733 0,-0.48957 0.484475,-0.46442 1.179732,0.0612 0.311761,0.23571 0.869233,0.62434 1.238827,0.86364 0.369592,0.23929 0.589029,0.54234 0.487639,0.67344 -0.228319,0.29522 -0.292826,0.28723 -1.973323,-0.24435 z m 0.982416,-1.74562 c -1.155115,-0.6538 -1.733495,-1.445 -1.056322,-1.445 0.505128,0 2.818391,1.52488 2.818391,1.85785 0,0.49023 -0.284167,0.42365 -1.762069,-0.41285 z m 0.746208,-1.3986 c -1.01264,-0.82872 -1.098691,-0.98626 -0.687613,-1.2589 0.604047,-0.40061 1.452857,-0.14407 1.334792,0.40342 -0.06562,0.30426 0.122663,0.42469 0.675129,0.43184 0.608443,0.008 0.766117,0.13522 0.766117,0.61878 0,0.93276 -0.801757,0.85785 -2.088425,-0.19514 z m 1.651066,-1.44909 c -1.046845,-1.01489 -1.165532,-1.41492 -0.481981,-1.62454 0.252817,-0.0775 0.45967,-0.0298 0.45967,0.10616 0,0.4159 1.315799,1.69662 1.743086,1.69662 0.221122,0 0.40204,0.16531 0.40204,0.36734 0,0.67741 -1.172031,0.37619 -2.122815,-0.54558 z m 22.409587,0.61905 c -0.538443,-0.43029 -0.46807,-0.63642 0.577354,-1.69123 1.048814,-1.05823 1.672167,-1.204 1.967612,-0.46013 0.136399,0.34343 -0.09807,0.79015 -0.771216,1.46934 -1.050196,1.05962 -1.219676,1.12479 -1.77375,0.68202 z m -1.906479,-1.30419 c -0.317553,-0.30576 -0.282636,-0.53087 0.192311,-1.23981 0.319173,-0.47642 0.834096,-1.05068 1.144275,-1.27615 0.528621,-0.38425 0.590207,-0.38125 0.98282,0.0478 0.357186,0.39036 0.347667,0.57018 -0.06463,1.2212 -0.54702,0.86375 -1.315401,1.62055 -1.645343,1.62055 -0.121788,0 -0.39603,-0.16812 -0.609431,-0.37361 z m -17.450537,-1.36491 c -0.756244,-0.98216 -0.882857,-1.31757 -0.600135,-1.5898 0.469689,-0.45226 1.03185,-0.43719 1.528444,0.041 0.331812,0.3195 0.326607,0.42268 -0.03021,0.5989 -0.2371,0.11711 -0.366133,0.24646 -0.286742,0.28745 0.0794,0.041 0.420151,0.19655 0.757242,0.34568 0.836777,0.37018 0.930058,0.9884 0.196476,1.30214 -0.532749,0.22785 -0.723327,0.10786 -1.565071,-0.98535 z m 15.618366,0.38983 c 0,-0.41344 1.721924,-2.56954 2.052111,-2.56954 0.555934,0 0.502839,0.30664 -0.274497,1.58523 -0.428617,0.70501 -0.874834,1.10855 -1.225786,1.10855 -0.303505,0 -0.551828,-0.0559 -0.551828,-0.12424 z m -13.472974,-1.32687 c -0.592332,-1.01062 -0.649356,-1.2901 -0.326627,-1.60086 0.215045,-0.20706 0.565246,-0.37648 0.778222,-0.37648 0.549205,0 1.433383,1.60459 1.319137,2.39394 -0.162834,1.12506 -0.979806,0.93285 -1.770732,-0.4166 z m 11.803624,0.53924 c -0.121105,-0.2522 -0.01686,-0.53068 0.258978,-0.69187 0.261167,-0.1526 0.393309,-0.47866 0.304268,-0.75075 -0.179096,-0.5473 0.876625,-1.46109 1.393242,-1.20594 0.431311,0.21302 0.418918,0.86665 -0.01643,0.86665 -0.196781,0 -0.270654,0.2186 -0.173848,0.51443 0.381159,1.16476 -1.252551,2.33716 -1.766208,1.26748 z m -9.300644,-0.74113 c -0.741211,-1.56618 -0.722891,-1.98396 0.106025,-2.41799 0.718091,-0.37599 0.830927,-0.37828 1.272063,-0.0257 0.266242,0.21276 0.54938,0.92995 0.629198,1.59375 0.133155,1.10742 0.08541,1.2197 -0.579068,1.36184 -1.063077,0.2274 -1.081481,0.2208 -1.428218,-0.51185 z m 7.4503,0.27468 c -0.505144,-0.40368 -0.504787,-0.44115 0.007,-0.74023 0.443494,-0.25915 0.470274,-0.38133 0.150958,-0.68879 -0.317046,-0.30528 -0.293724,-0.48895 0.127282,-1.00242 0.59966,-0.73136 1.198588,-0.67722 1.344889,0.12156 0.06486,0.35415 -0.01937,0.49887 -0.229835,0.39492 -0.437434,-0.21604 -0.424401,0.2433 0.02313,0.81599 0.289273,0.37015 0.239424,0.55418 -0.268018,0.98945 -0.591829,0.50764 -0.650327,0.51319 -1.155471,0.10952 z m -4.580881,-1.1704 c -0.254219,-1.35472 0.176921,-2.10417 1.210468,-2.10417 0.869289,0 1.164954,0.61476 1.012333,2.1049 -0.08932,0.87215 -0.182215,0.96276 -1.056599,1.03073 -0.920746,0.0716 -0.96687,0.0308 -1.166202,-1.03146 z m 2.799398,0.89572 c -0.07026,-0.10102 -0.04393,-0.73341 0.05852,-1.40532 0.136499,-0.89518 0.329594,-1.24356 0.722561,-1.30362 0.586518,-0.0897 0.709571,0.66965 0.344753,2.12733 -0.17495,0.69903 -0.814391,1.02937 -1.125841,0.58161 z m 3.368948,26.01791 c -1.918321,-2.3665 -2.754398,-4.46437 -2.049654,-5.14296 0.556809,-0.53615 0.978705,-0.12062 0.978705,0.96391 0,1.01226 0.588362,1.60928 1.585942,1.60928 0.376261,0 1.132351,0.36956 1.680201,0.82126 0.926904,0.76422 0.989608,0.92155 0.902841,2.26522 -0.08104,1.25492 -0.178055,1.45364 -0.741065,1.51786 -0.516252,0.0589 -0.994943,-0.35433 -2.35697,-2.03457 z m 6.401279,1.43585 c -0.106273,-0.22131 -0.1302,-0.45275 -0.05317,-0.5143 0.243543,-0.19463 0.793718,0.19618 0.793718,0.5638 0,0.48036 -0.502229,0.44678 -0.740543,-0.0495 z"
       id="path4827"
       inkscape:connector-curvature="0"
       sodipodi:nodetypes="scccccscccsccccccccsccccssscscccccsscccccccccccccscccsccccsccccccccccccccsscscscssscccsccccsscccscccscscsssssscsssscsccsccccscccsccccsccccsccsscccscscsccscsscccccccssccscccccscsscccccccsccccccccssccccccccccccscccccscccccccccsccccsccccccccccsscccsscccccssssccccscccsssccsccccsccsscccccccccccsscssccsscccccscccccccccccccscccccccscccccccccscsscccsccscc" />
  </g>
</svg>
